<?xml version="1.0" standalone="no"?>
<!DOCTYPE svg PUBLIC "-//W3C//DTD SVG 1.1//EN" "http://www.w3.org/Graphics/SVG/1.1/DTD/svg11.dtd" >
<svg xmlns="http://www.w3.org/2000/svg" xmlns:xlink="http://www.w3.org/1999/xlink" version="1.1">
<metadata>
Created by FontForge 20190801 at Thu Mar 15 10:44:32 2012
 By root
(C) 2008, 2009, 2010, 2011, 2012 Andrey V. Panov
</metadata>
<defs>
<font id="IstokWeb-Italic" horiz-adv-x="0" >
  <font-face 
    font-family="Istok Web"
    font-weight="500"
    font-style="italic"
    font-stretch="normal"
    units-per-em="2048"
    panose-1="2 15 6 3 3 4 3 9 2 4"
    ascent="1638"
    descent="-410"
    x-height="1050"
    cap-height="1434"
    bbox="-1319 -586.75 2149 2052"
    underline-thickness="102"
    underline-position="-306"
    slope="-13"
    unicode-range="U+0020-FB02"
  />
<missing-glyph horiz-adv-x="1240" 
d="M241 0q-45 0 -45 45v1344q0 45 37 45h858q45 0 45 -45v-1344q0 -45 -45 -45h-850zM316 120h700v1194h-700v-1194z" />
    <glyph glyph-name="igrave" unicode="i&#x300;" horiz-adv-x="460" 
d="M180 1383q-38 52 22 52h101q54 0 75 -37l112 -195q30 -53 -19 -53h-64q-56 0 -77 29zM67 0q-45 0 -35 45l222 960q10 45 55 45h86q45 0 35 -45l-222 -960q-10 -45 -55 -45h-86z" />
    <glyph glyph-name="iacute" unicode="&#x456;&#x301;" horiz-adv-x="460" 
d="M296 1150q-50 0 -5 53l166 195q32 37 87 37h121q59 0 6 -52l-206 -204q-30 -29 -85 -29h-84zM67 0q-45 0 -35 45l222 960q10 45 55 45h86q45 0 35 -45l-222 -960q-10 -45 -55 -45h-86z" />
    <glyph glyph-name="icircumflex" unicode="i&#x302;" horiz-adv-x="460" 
d="M86 1190q-17 26 25 55l234 163q37 26 62 26h50q25 0 50 -26l174 -179q28 -29 -1 -55l-25 -23q-29 -27 -57 2l-172 179h-2l-256 -179q-40 -28 -57 -2zM67 0q-45 0 -35 45l222 960q10 45 55 45h86q45 0 35 -45l-222 -960q-10 -45 -55 -45h-86z" />
    <glyph glyph-name="idieresis" unicode="i&#x308;" horiz-adv-x="460" 
d="M67 0q-45 0 -35 45l222 960q10 45 55 45h86q45 0 35 -45l-222 -960q-10 -45 -55 -45h-86zM186 1240q-45 0 -34 45l20 86q10 45 55 45h86q45 0 35 -45l-20 -86q-11 -45 -56 -45h-86zM520 1240q-45 0 -34 45l20 86q10 45 55 45h86q45 0 35 -45l-20 -86q-11 -45 -56 -45h-86
z" />
    <glyph glyph-name="Aogonek" unicode="A&#x328;" horiz-adv-x="1360" 
d="M-47 0q-51 0 -12 66l770 1307q36 61 80 61h140q41 0 52 -61l226 -1307q7 -47 -23 -66q-30 -18 -140 -98.5t-110 -134.5q0 -27 15 -40.5t51 -13.5q43 0 73 6q25 5 27 -22l6 -77q2 -24 -18 -28q-45 -9 -118 -9q-100 0 -148 37.5t-48 95.5q0 52 19 97t89.5 97t95.5 70
q42 29 35 69l-57 331h-615l-195 -331q-29 -49 -83 -49h-112zM441 544h488l-70 400q-13 72 -21 157.5t-8 159.5h-4q-18 -71 -56 -145t-95 -172z" />
    <glyph glyph-name="imacron" unicode="i&#x304;" horiz-adv-x="460" 
d="M132 1240q-45 0 -37 35l10 40q8 35 53 35h528q45 0 37 -35l-10 -40q-8 -35 -53 -35h-528zM67 0q-45 0 -35 45l222 960q10 45 55 45h86q45 0 35 -45l-222 -960q-10 -45 -55 -45h-86z" />
    <glyph glyph-name="ibreve" unicode="i&#x306;" horiz-adv-x="460" 
d="M117 1370q-15 41 18 53l48 18q31 11 44 -22q27 -67 62 -105t112 -38q90 0 144.5 42.5t93.5 103.5q19 31 46 15l45 -27q31 -18 8 -55q-64 -112 -160.5 -160.5t-195.5 -48.5q-106 0 -164 52t-101 172zM67 0q-45 0 -35 45l222 960q10 45 55 45h86q45 0 35 -45l-222 -960
q-10 -45 -55 -45h-86z" />
    <glyph glyph-name="jcircumflex" unicode="j&#x302;" horiz-adv-x="466" 
d="M92 1190q-17 26 25 55l234 163q37 26 62 26h50q25 0 50 -26l174 -179q28 -29 -1 -55l-25 -23q-29 -27 -57 2l-172 179h-2l-256 -179q-40 -28 -57 -2zM-290 -397q-17 9 -10 32l25 81q8 26 29 15q35 -18 91 -18q59 0 101 57t83 236l231 999q10 45 55 45h86q45 0 35 -45
l-253 -1098q-45 -194 -136 -259t-200 -65q-99 0 -137 20z" />
    <glyph glyph-name="uni01D0" unicode="i&#x30c;" horiz-adv-x="460" 
d="M123 1343q-28 29 1 55l25 23q29 27 57 -2l172 -179h2l256 179q40 28 57 2l25 -39q17 -26 -25 -55l-234 -163q-37 -26 -62 -26h-50q-25 0 -50 26zM67 0q-45 0 -35 45l222 960q10 45 55 45h86q45 0 35 -45l-222 -960q-10 -45 -55 -45h-86z" />
    <glyph glyph-name="uni01F0" unicode="j&#x30c;" horiz-adv-x="466" 
d="M129 1343q-28 29 1 55l25 23q29 27 57 -2l172 -179h2l256 179q40 28 57 2l25 -39q17 -26 -25 -55l-234 -163q-37 -26 -62 -26h-50q-25 0 -50 26zM-290 -397q-17 9 -10 32l25 81q8 26 29 15q35 -18 91 -18q59 0 101 57t83 236l231 999q10 45 55 45h86q45 0 35 -45
l-253 -1098q-45 -194 -136 -259t-200 -65q-99 0 -137 20z" />
    <glyph glyph-name="fi" unicode="fi" horiz-adv-x="1112" 
d="M182 918q-45 0 -37 35l14 62q8 35 53 35h107l28 119q45 193 156.5 258.5t317.5 65.5q101 0 167 -24.5t133 -85.5q18 -16 -1 -36l-66 -69q-14 -15 -35 6q-43 44 -97 61.5t-114 17.5q-140 0 -200 -43t-92 -180l-21 -90h552q45 0 35 -45l-222 -960q-10 -45 -55 -45h-86
q-45 0 -35 45l202 873h-421l-294 -1273q-10 -45 -55 -45h-86q-45 0 -35 45l294 1273h-107z" />
    <glyph glyph-name="fl" unicode="fl" horiz-adv-x="1112" 
d="M182 918q-45 0 -37 35l14 62q8 35 53 35h107l28 119q46 199 161.5 261.5t292.5 62.5q131 0 226 -33.5t142 -78.5l-309 -1336q-10 -45 -55 -45h-86q-45 0 -35 45l291 1260q-35 35 -88 46.5t-98 11.5q-95 0 -166 -33.5t-107 -189.5l-21 -90h183q45 0 37 -35l-14 -62
q-8 -35 -53 -35h-183l-294 -1273q-10 -45 -55 -45h-86q-45 0 -35 45l294 1273h-107z" />
    <glyph glyph-name=".notdef" horiz-adv-x="1240" 
d="M241 0q-45 0 -45 45v1344q0 45 37 45h858q45 0 45 -45v-1344q0 -45 -45 -45h-850zM316 120h700v1194h-700v-1194z" />
    <glyph glyph-name=".notdef" horiz-adv-x="1240" 
d="M241 0q-45 0 -45 45v1344q0 45 37 45h858q45 0 45 -45v-1344q0 -45 -45 -45h-850zM316 120h700v1194h-700v-1194z" />
    <glyph glyph-name=".null" 
 />
    <glyph glyph-name="nonmarkingreturn" horiz-adv-x="682" 
 />
    <glyph glyph-name="space" unicode=" " horiz-adv-x="682" 
 />
    <glyph glyph-name="exclam" unicode="!" horiz-adv-x="600" 
d="M396 1379q11 55 63 55h104q50 0 37 -55l-239 -944q-11 -45 -55 -45h-72q-45 0 -35 45zM124 0q-45 0 -35 45l29 122q10 45 55 45h112q45 0 35 -45l-29 -122q-10 -45 -55 -45h-112z" />
    <glyph glyph-name="quotedbl" unicode="&#x22;" horiz-adv-x="828" 
d="M357 1414q11 55 49 55h104q38 0 23 -55l-146 -545q-13 -45 -46 -45h-64q-33 0 -24 45zM707 1414q11 55 49 55h104q38 0 23 -55l-146 -545q-13 -45 -46 -45h-64q-33 0 -24 45z" />
    <glyph glyph-name="numbersign" unicode="#" horiz-adv-x="1390" 
d="M165 375q-45 0 -39 35l9 50q6 35 51 35h215l76 432h-215q-44 0 -38 35l8 50q6 35 52 35h215l58 330q8 45 43 45h62q35 0 27 -45l-58 -330h336l58 330q8 45 43 45h62q35 0 27 -45l-58 -330h215q44 0 38 -35l-8 -50q-6 -35 -52 -35h-215l-76 -432h215q45 0 39 -35l-9 -50
q-6 -35 -51 -35h-215l-58 -330q-8 -45 -43 -45h-62q-35 0 -27 45l58 330h-336l-58 -330q-8 -45 -43 -45h-62q-35 0 -27 45l58 330h-215zM533 495h336l76 432h-336z" />
    <glyph glyph-name="dollar" unicode="$" horiz-adv-x="1110" 
d="M54 99q-51 50 -20 86l44 51q32 37 86 -14q70 -66 129 -81t121 -19l125 541q-40 22 -86 51q-55 34 -94 77t-67.5 105t-28.5 173q0 161 98.5 248t184.5 108.5t175 25.5l28 120q10 45 45 45h50q35 0 25 -45l-29 -125q56 -8 123 -36t106 -67q45 -45 17 -80l-48 -59
q-26 -32 -64 4q-41 38 -93.5 56.5t-76.5 24.5l-117 -505q63 -30 125 -74q52 -37 85.5 -75.5t57.5 -99t24 -150.5q0 -141 -97.5 -244t-192 -134t-190.5 -36l-31 -136q-10 -45 -45 -45h-50q-35 0 -25 45l32 137q-108 7 -187 37.5t-139 89.5zM449 1084q0 -58 14 -112.5
t71 -99.5q22 -17 46 -33l107 462q-93 -6 -165.5 -64t-72.5 -153zM535 125q75 14 161.5 81.5t86.5 175.5q0 50 -13.5 103t-83.5 97q-19 13 -40 24z" />
    <glyph glyph-name="percent" unicode="%" horiz-adv-x="1782" 
d="M121 1052q0 168 113 311.5t262 143.5q143 0 199 -86.5t56 -228.5q0 -168 -113 -311.5t-262 -143.5q-143 0 -199 86.5t-56 228.5zM281 1032q0 -80 20 -130t85 -50q80 0 142.5 110t62.5 250q0 80 -20 130t-85 50q-80 0 -142.5 -110t-62.5 -250zM191 -40q-27 23 2 56
l1280 1496q29 35 56 12l38 -33q25 -22 -4 -56l-1278 -1497q-31 -35 -58 -12zM1006 258q0 168 113 311.5t262 143.5q143 0 199 -86.5t56 -228.5q0 -168 -113 -311.5t-262 -143.5q-143 0 -199 86.5t-56 228.5zM1166 238q0 -80 20 -130t85 -50q80 0 142.5 110t62.5 250
q0 80 -20 130t-85 50q-80 0 -142.5 -110t-62.5 -250z" />
    <glyph glyph-name="ampersand" unicode="&#x26;" horiz-adv-x="1354" 
d="M71 290q0 103 91.5 238t334.5 289q-25 51 -60.5 139.5t-35.5 200.5q0 120 87 213.5t281 93.5q106 0 202 -64t96 -221q0 -95 -101.5 -196t-246.5 -190l235 -387q49 42 109.5 124t80.5 129q19 45 54 29l67 -30q41 -18 24 -57q-38 -87 -121 -181.5t-138 -139.5l135 -222
q35 -58 -31 -58h-81q-58 0 -84 43l-80 130q-114 -91 -200.5 -147t-239.5 -56q-172 0 -275 77t-103 243zM266 307q0 -92 47.5 -142t169.5 -50q92 0 171 53t162 125l-245 405q-153 -92 -229 -196.5t-76 -194.5zM581 1143q0 -91 19.5 -140t43.5 -92q132 89 187.5 155t55.5 129
q0 56 -35 93t-109 37q-66 0 -114 -44.5t-48 -137.5z" />
    <glyph glyph-name="quotesingle" unicode="'" horiz-adv-x="478" 
d="M357 1414q11 55 49 55h104q38 0 23 -55l-146 -545q-13 -45 -46 -45h-64q-33 0 -24 45z" />
    <glyph glyph-name="parenleft" unicode="(" horiz-adv-x="670" 
d="M90 316q0 287 151.5 588.5t472.5 592.5q43 39 70 14l32 -30q28 -26 -7 -58q-122 -109 -322.5 -431.5t-200.5 -705.5q0 -241 31 -397t73 -232q23 -41 -4 -59l-37 -24q-30 -19 -66 26q-94 118 -143.5 332t-49.5 384z" />
    <glyph glyph-name="parenright" unicode=")" horiz-adv-x="670" 
d="M-135 -393q-28 26 7 58q122 109 322.5 431.5t200.5 705.5q0 241 -31 397t-73 232q-23 41 4 59l37 24q30 19 66 -26q94 -118 143.5 -332t49.5 -384q0 -287 -151.5 -588.5t-472.5 -592.5q-43 -39 -70 -14z" />
    <glyph glyph-name="asterisk" unicode="*" horiz-adv-x="940" 
d="M494 1057l-193 93q-73 35 -16 106l8 10q57 70 116 17l155 -139l27 232q10 88 91 88h12q81 0 51 -88l-81 -232l219 139q83 53 108 -17l4 -10q25 -71 -66 -106l-235 -93l193 -92q74 -35 16 -106l-8 -10q-57 -70 -116 -18l-155 140l-26 -232q-11 -88 -92 -88h-12
q-81 0 -50 88l80 232l-219 -140q-83 -52 -108 18l-4 10q-24 71 66 106z" />
    <glyph glyph-name="plus" unicode="+" horiz-adv-x="1280" 
d="M172 665q-45 0 -45 35v50q0 35 45 35h454v454q0 45 35 45h50q35 0 35 -45v-454h456q45 0 45 -35v-50q0 -35 -45 -35h-456v-456q0 -45 -35 -45h-50q-35 0 -35 45v456h-454z" />
    <glyph glyph-name="comma" unicode="," horiz-adv-x="600" 
d="M122 0q-46 0 -35 45l29 122q11 45 55 45h116q46 0 35 -45l-29 -122q-30 -127 -67.5 -192t-115.5 -127q-26 -20 -38 -7l-37 40q-14 15 13 35q35 26 74 88.5t52 117.5h-52z" />
    <glyph glyph-name="hyphen" unicode="-" horiz-adv-x="680" 
d="M93 483q-45 0 -37 35l16 70q8 35 53 35h478q45 0 37 -35l-16 -70q-8 -35 -53 -35h-478z" />
    <glyph glyph-name="period" unicode="." horiz-adv-x="600" 
d="M124 0q-45 0 -35 45l29 122q10 45 55 45h112q45 0 35 -45l-29 -122q-10 -45 -55 -45h-112z" />
    <glyph glyph-name="slash" unicode="/" horiz-adv-x="840" 
d="M-188 -388q-30 15 -4 56l1124 1771q27 43 57 28l47 -24q28 -14 2 -55l-1124 -1771q-27 -43 -55 -29z" />
    <glyph glyph-name="zero" unicode="0" horiz-adv-x="1110" 
d="M104 440q0 365 144 688.5t469 323.5q190 0 278.5 -135t88.5 -335q0 -365 -144 -688.5t-469 -323.5q-190 0 -278.5 135t-88.5 335zM290 410q0 -100 44 -198t149 -98q195 0 305 274t110 624q0 100 -44 198t-149 98q-195 0 -305 -274t-110 -624z" />
    <glyph glyph-name="one" unicode="1" horiz-adv-x="827" 
d="M302 1148q-11 30 35 46q70 24 163 92t144 118q37 36 64 36h85q46 0 36 -45l-312 -1350q-10 -45 -55 -45h-86q-45 0 -35 45l248 1074q3 14 16 60h-4q-34 -40 -106.5 -79t-118.5 -52q-34 -10 -45 20z" />
    <glyph glyph-name="two" unicode="2" horiz-adv-x="1110" 
d="M29 0q-55 0 -45 45l11 48q9 38 50 72l483 395q215 176 307 294t92 247q0 78 -51 139.5t-172 61.5q-125 0 -203 -72t-120 -173q-22 -54 -63 -38l-75 29q-33 13 -8 86q41 120 170 219t301 99q212 0 314.5 -94.5t102.5 -253.5q0 -195 -133.5 -333t-320.5 -286l-403 -319
l-1 -4q41 2 81 2h531q54 0 44 -45l-17 -74q-10 -45 -65 -45h-810z" />
    <glyph glyph-name="three" unicode="3" horiz-adv-x="1110" 
d="M39 148q-36 49 -9 76l57 58q30 32 79 -25q56 -65 129.5 -101t149.5 -36q146 0 249 92t103 229q0 129 -51 192t-165 63h-108q-46 0 -38 33l17 74q8 35 53 35h71q132 0 232.5 92.5t100.5 200.5q0 81 -57 126t-163 45q-98 0 -174.5 -45t-115.5 -87q-42 -45 -73 -9l-54 62
q-28 31 30 80q70 59 176.5 104t223.5 45q198 0 296.5 -90t98.5 -244q0 -126 -115 -227.5t-211 -112.5l-1 -4q100 -27 161.5 -117t61.5 -230q0 -151 -138 -304t-424 -153q-152 0 -248.5 57t-143.5 121z" />
    <glyph glyph-name="four" unicode="4" horiz-adv-x="1110" 
d="M71 354q-45 0 -35 45l20 88q8 32 40 69l745 848q31 36 64 36h91q46 0 36 -45l-202 -877h171q45 0 34 -45l-17 -74q-10 -45 -54 -45h-172l-72 -309q-10 -45 -55 -45h-86q-45 0 -35 45l72 309h-545zM255 518h399l127 555q7 30 16 60h-2z" />
    <glyph glyph-name="five" unicode="5" horiz-adv-x="1110" 
d="M49 169q-34 53 -3 76l67 49q36 28 76 -31q24 -36 88.5 -89.5t191.5 -53.5q149 0 240.5 108t91.5 273q0 129 -55.5 182t-167.5 53q-47 0 -95.5 -13.5t-126.5 -64.5q-50 -33 -88 -33h-47q-44 0 -34 45l163 707q10 45 55 45h690q45 0 35 -45l-17 -74q-10 -45 -56 -45h-559
l-91 -395q-5 -24 -16 -60h4q45 43 114.5 63t123.5 20q207 0 285.5 -114.5t78.5 -291.5q0 -219 -152 -364.5t-385 -145.5q-178 0 -275.5 68.5t-135.5 130.5z" />
    <glyph glyph-name="six" unicode="6" horiz-adv-x="1110" 
d="M116 449q0 415 179 709t495 294q102 0 185.5 -34t131.5 -89q39 -45 14 -66l-62 -50q-37 -31 -72 13q-27 34 -85 55t-134 21q-156 0 -280.5 -157.5t-179.5 -401.5h2q57 78 152.5 117t185.5 39q168 0 270 -98.5t102 -290.5q0 -207 -136.5 -373.5t-370.5 -166.5
q-189 0 -293 127.5t-104 351.5zM305 384q0 -123 56 -193.5t159 -70.5q125 0 214.5 129t89.5 275q0 106 -59 164t-159 58q-132 0 -216.5 -120.5t-84.5 -241.5z" />
    <glyph glyph-name="seven" unicode="7" horiz-adv-x="1100" 
d="M303 1258q-45 0 -34 45l17 74q10 45 55 45h834q45 0 35 -45l-16 -69q-8 -31 -53 -72q-252 -227 -438 -509t-258 -594l-22 -94q-10 -45 -55 -45h-91q-45 0 -35 45l14 59q90 381 282 645.5t453 514.5l1 2q-31 -2 -61 -2h-628z" />
    <glyph glyph-name="eight" unicode="8" horiz-adv-x="1110" 
d="M57 350q0 160 117 278.5t229 143.5v3q-76 48 -112 112t-36 161q0 165 135 284.5t337 119.5q205 0 297.5 -93t92.5 -231q0 -158 -110 -253t-204 -109v-2q94 -35 140.5 -116t46.5 -188q0 -202 -148.5 -346t-368.5 -144q-194 0 -305 96t-111 284zM252 356q0 -113 54 -174.5
t178 -61.5q131 0 220.5 96t89.5 230q0 94 -41.5 166t-151.5 72q-148 0 -248.5 -99t-100.5 -229zM443 1068q0 -129 50 -175.5t121 -46.5q124 0 219.5 75t95.5 187q0 88 -50.5 141t-162.5 53q-114 0 -193.5 -78t-79.5 -156z" />
    <glyph glyph-name="nine" unicode="9" horiz-adv-x="1110" 
d="M179 912q0 207 136.5 373.5t370.5 166.5q189 0 293 -127.5t104 -351.5q0 -415 -179 -709t-495 -294q-102 0 -185.5 34t-131.5 89q-39 45 -14 66l62 50q37 31 72 -13q27 -34 85 -55t134 -21q156 0 280.5 157.5t179.5 401.5h-2q-57 -78 -152.5 -117t-185.5 -39
q-168 0 -270 98.5t-102 290.5zM375 898q0 -106 59 -164t159 -58q132 0 216.5 120.5t84.5 241.5q0 123 -56 193.5t-159 70.5q-125 0 -214.5 -129t-89.5 -275z" />
    <glyph glyph-name="colon" unicode=":" horiz-adv-x="600" 
d="M317 838q-45 0 -35 45l29 122q10 45 55 45h112q45 0 35 -45l-29 -122q-10 -45 -55 -45h-112zM124 0q-45 0 -35 45l29 122q10 45 55 45h112q45 0 35 -45l-29 -122q-10 -45 -55 -45h-112z" />
    <glyph glyph-name="semicolon" unicode=";" horiz-adv-x="600" 
d="M317 838q-45 0 -35 45l29 122q10 45 55 45h112q45 0 35 -45l-29 -122q-10 -45 -55 -45h-112zM122 0q-46 0 -35 45l29 122q11 45 55 45h116q46 0 35 -45l-29 -122q-30 -127 -67.5 -192t-115.5 -127q-26 -20 -38 -7l-37 40q-14 15 13 35q35 26 74 88.5t52 117.5h-52z" />
    <glyph glyph-name="less" unicode="&#x3c;" horiz-adv-x="1280" 
d="M177 685q-25 14 -25 34v32q0 20 25 34l952 550q39 23 57 -8l25 -43q18 -30 -22 -53l-859 -495v-2l859 -495q40 -23 22 -53l-25 -43q-18 -31 -57 -8z" />
    <glyph glyph-name="equal" unicode="=" horiz-adv-x="1280" 
d="M172 495q-45 0 -45 35v50q0 35 45 35h1030q45 0 45 -35v-50q0 -35 -45 -35h-1030zM172 835q-45 0 -45 35v50q0 35 45 35h1030q45 0 45 -35v-50q0 -35 -45 -35h-1030z" />
    <glyph glyph-name="greater" unicode="&#x3e;" horiz-adv-x="1280" 
d="M163 186q-18 30 22 53l859 495v2l-859 495q-40 23 -22 53l25 43q18 31 57 8l952 -550q25 -14 25 -34v-32q0 -20 -25 -34l-952 -550q-39 -23 -57 8z" />
    <glyph glyph-name="question" unicode="?" horiz-adv-x="1016" 
d="M251 1170q-34 19 4 86q42 73 147 140.5t268 67.5q198 0 287.5 -81t89.5 -250q0 -159 -231 -365t-258 -330l-5 -23q-10 -45 -56 -45h-86q-44 0 -34 45l8 37q38 176 252 373.5t214 318.5q0 98 -53.5 134t-133.5 36q-88 0 -167.5 -51t-106.5 -104q-27 -52 -68 -29zM312 0
q-45 0 -35 45l29 122q10 45 55 45h112q45 0 35 -45l-29 -122q-10 -45 -55 -45h-112z" />
    <glyph glyph-name="at" unicode="@" horiz-adv-x="1992" 
d="M120 551q0 381 260 651.5t680 270.5q306 0 559 -178.5t253 -578.5q0 -294 -141 -449.5t-371 -155.5q-130 0 -166 57t-36 164h-2q-38 -89 -130 -155t-183 -66q-134 0 -215.5 96t-81.5 260q0 206 131.5 390.5t328.5 184.5q191 0 235 -176h4l23 106q7 34 42 34h110
q35 0 27 -35l-131 -591q-22 -98 4 -123.5t71 -25.5q146 0 252.5 111.5t106.5 373.5q0 304 -194 470.5t-494 166.5q-342 0 -581 -218.5t-239 -598.5q0 -332 228.5 -540t549.5 -208q150 0 302.5 54.5t283.5 160.5q27 22 43 0l39 -54q17 -24 -10 -42q-163 -115 -322.5 -177
t-344.5 -62q-359 0 -625 238t-266 645zM717 447q0 -123 44.5 -169.5t123.5 -46.5q101 0 188.5 142.5t103.5 208.5q15 64 15 145q0 69 -41 133t-121 64q-134 0 -223.5 -144t-89.5 -333z" />
    <glyph glyph-name="A" unicode="A" horiz-adv-x="1360" 
d="M-47 0q-51 0 -12 66l770 1307q36 61 80 61h140q41 0 52 -61l226 -1307q11 -66 -42 -66h-91q-53 0 -61 49l-57 331h-615l-195 -331q-29 -49 -83 -49h-112zM441 544h488l-70 400q-13 72 -21 157.5t-8 159.5h-4q-18 -71 -56 -145t-95 -172z" />
    <glyph glyph-name="B" unicode="B" horiz-adv-x="1338" 
d="M100 0q-50 0 -37 55l305 1324q13 55 63 55h370q273 0 379 -100.5t106 -249.5q0 -139 -95.5 -221.5t-237.5 -112.5v-3q103 -21 183.5 -100.5t80.5 -215.5q0 -167 -151 -299t-496 -132h-470zM280 164h296q210 0 323 71t113 204q0 121 -102.5 173t-278.5 52h-236zM429 808
h271q142 0 266.5 76t124.5 192q0 103 -73 148.5t-252 45.5h-231z" />
    <glyph glyph-name="C" unicode="C" horiz-adv-x="1392" 
d="M110 580q0 395 210.5 639.5t587.5 244.5q184 0 298 -64t161 -170q23 -53 -23 -80l-78 -46q-27 -16 -52 28q-30 54 -109 115t-214 61q-250 0 -413 -183t-163 -568q0 -182 96 -306.5t326 -124.5q136 0 230.5 71.5t146.5 143.5q42 58 78 35l90 -58q33 -21 -8 -80
q-79 -115 -213 -191.5t-351 -76.5q-302 0 -451 172.5t-149 437.5z" />
    <glyph glyph-name="D" unicode="D" horiz-adv-x="1406" 
d="M100 0q-50 0 -37 55l305 1324q13 55 63 55h319q358 0 496 -175t138 -411q0 -340 -210 -594t-655 -254h-419zM280 164h268q332 0 481.5 212t149.5 484q0 172 -81.5 292t-393.5 120h-168z" />
    <glyph glyph-name="E" unicode="E" horiz-adv-x="1270" 
d="M100 0q-50 0 -37 55l305 1324q13 55 63 55h875q55 0 45 -45l-17 -74q-11 -45 -66 -45h-733l-102 -444h673q55 0 44 -45l-17 -74q-10 -45 -65 -45h-673l-115 -498h763q55 0 44 -45l-17 -74q-10 -45 -65 -45h-905z" />
    <glyph glyph-name="F" unicode="F" horiz-adv-x="1166" 
d="M100 0q-50 0 -37 55l305 1324q13 55 63 55h815q55 0 45 -45l-17 -74q-11 -45 -66 -45h-673l-109 -474h587q55 0 44 -45l-17 -74q-10 -45 -65 -45h-587l-133 -577q-13 -55 -63 -55h-92z" />
    <glyph glyph-name="G" unicode="G" horiz-adv-x="1470" 
d="M110 580q0 395 210.5 639.5t595.5 244.5q194 0 308 -66t158 -150q26 -51 -19 -81l-76 -50q-28 -19 -53 25q-25 43 -109 104.5t-226 61.5q-257 0 -420.5 -183t-163.5 -568q0 -182 96 -306.5t326 -124.5q130 0 240 40t162 96l57 248h-297q-55 0 -45 45l17 74q11 45 66 45
h434q55 0 44 -45l-109 -472q-142 -106 -270 -146.5t-326 -40.5q-302 0 -451 172.5t-149 437.5z" />
    <glyph glyph-name="H" unicode="H" horiz-adv-x="1422" 
d="M100 0q-50 0 -37 55l305 1324q13 55 63 55h92q50 0 37 -55l-127 -551h698l127 551q13 55 63 55h92q50 0 37 -55l-305 -1324q-13 -55 -63 -55h-92q-50 0 -37 55l140 609h-698l-140 -609q-13 -55 -63 -55h-92z" />
    <glyph glyph-name="I" unicode="I" horiz-adv-x="532" 
d="M100 0q-50 0 -37 55l305 1324q13 55 63 55h92q50 0 37 -55l-305 -1324q-13 -55 -63 -55h-92z" />
    <glyph glyph-name="J" unicode="J" horiz-adv-x="824" 
d="M-37 29q-35 21 -13 65l36 71q26 52 76 14q70 -53 132 -53q97 0 152 65t83 187l231 1001q13 55 63 55h92q50 0 37 -55l-225 -978q-40 -176 -132 -303.5t-320 -127.5q-116 0 -212 59z" />
    <glyph glyph-name="K" unicode="K" horiz-adv-x="1328" 
d="M100 0q-50 0 -37 55l305 1324q13 55 63 55h92q50 0 37 -55l-130 -565q-5 -22 -21 -80h4l799 661q47 39 79 39h143q83 0 3 -66l-628 -518l354 -784q30 -66 -33 -66h-107q-43 0 -61 39l-307 684l-304 -252l-96 -416q-13 -55 -63 -55h-92z" />
    <glyph glyph-name="L" unicode="L" horiz-adv-x="1136" 
d="M100 0q-50 0 -37 55l305 1324q13 55 63 55h92q50 0 37 -55l-280 -1215h663q55 0 44 -45l-17 -74q-10 -45 -65 -45h-805z" />
    <glyph glyph-name="M" unicode="M" horiz-adv-x="1708" 
d="M100 0q-50 0 -37 55l305 1324q13 55 63 55h201q38 0 43 -60l79 -897q7 -82 10 -146.5t3 -124.5h6q27 63 59 125t78 146l493 897q33 60 71 60h225q50 0 37 -55l-305 -1324q-13 -55 -63 -55h-92q-50 0 -37 55l242 1049q10 45 20 80h-4l-628 -1123q-34 -61 -80 -61h-110
q-46 0 -52 61l-110 1123h-4q-8 -44 -16 -80l-242 -1049q-13 -55 -63 -55h-92z" />
    <glyph glyph-name="N" unicode="N" horiz-adv-x="1438" 
d="M100 0q-50 0 -37 55l305 1324q13 55 63 55h121q71 0 89 -50l388 -1060h4q9 46 17 80l224 975q13 55 63 55h92q50 0 37 -55l-305 -1324q-13 -55 -63 -55h-82q-70 0 -88 50l-413 1125h-4q-8 -44 -16 -80l-240 -1040q-13 -55 -63 -55h-92z" />
    <glyph glyph-name="O" unicode="O" horiz-adv-x="1514" 
d="M110 580q0 400 214 642t554 242q305 0 461 -162.5t156 -447.5q0 -400 -214 -642t-554 -242q-305 0 -461 162.5t-156 447.5zM315 556q0 -205 106.5 -317.5t316.5 -112.5q220 0 386 183.5t166 568.5q0 205 -106.5 317.5t-316.5 112.5q-220 0 -386 -183.5t-166 -568.5z" />
    <glyph glyph-name="P" unicode="P" horiz-adv-x="1298" 
d="M100 0q-50 0 -37 55l305 1324q13 55 63 55h410q234 0 355.5 -105t121.5 -284q0 -181 -145.5 -325t-499.5 -144h-298l-120 -521q-13 -55 -63 -55h-92zM413 740h311q207 0 303 78.5t96 206.5q0 136 -75 190.5t-242 54.5h-271z" />
    <glyph glyph-name="Q" unicode="Q" horiz-adv-x="1514" 
d="M110 580q0 400 214 642t554 242q305 0 461 -162.5t156 -447.5q0 -400 -214 -642q-185 -209 -464 -238q1 -123 52.5 -167t166.5 -44q51 0 116 13q40 7 43 -15l12 -90q3 -24 -28 -28q-122 -20 -175 -20q-205 0 -292 84.5t-87 267.5q-230 23 -359 157q-156 163 -156 448z
M315 556q0 -205 106.5 -317.5t316.5 -112.5q220 0 386 183.5t166 568.5q0 205 -106.5 317.5t-316.5 112.5q-220 0 -386 -183.5t-166 -568.5z" />
    <glyph glyph-name="R" unicode="R" horiz-adv-x="1384" 
d="M100 0q-50 0 -37 55l305 1324q13 55 63 55h453q252 0 360 -108t108 -270q0 -165 -137.5 -274t-333.5 -125l-1 -2q85 -76 109 -118.5t46 -103.5l131 -367q24 -66 -33 -66h-93q-48 0 -61 39l-116 357q-24 74 -95.5 149.5t-208.5 75.5h-174l-130 -566q-13 -55 -63 -55h-92z
M423 785h309q180 0 302.5 62t122.5 191q0 144 -89.5 188t-235.5 44h-297z" />
    <glyph glyph-name="S" unicode="S" horiz-adv-x="1217" 
d="M84 112q-50 49 -20 86l57 70q31 38 86 -13q65 -61 141 -95t194 -34q100 0 169 28.5t122.5 83t53.5 135.5q0 43 -12.5 89t-52 81t-87.5 54q-55 22 -117 42.5t-138 58.5q-64 32 -110 81t-73 117t-27 145q0 141 90 250.5t201 141t206 31.5q133 0 223 -33t164 -90
q49 -38 17 -80l-58 -75q-23 -30 -69 8q-36 30 -118 65t-171 35q-57 0 -123 -19t-118 -77.5t-52 -142.5q0 -44 12 -84.5t44.5 -70.5t69.5 -48q58 -28 119.5 -48t111.5 -40q80 -32 146.5 -83t95.5 -128.5t29 -147.5q0 -141 -76 -236t-187 -147t-301 -52q-164 0 -271 40
t-171 102z" />
    <glyph glyph-name="T" unicode="T" horiz-adv-x="1240" 
d="M262 1262q-55 0 -44 45l19 82q10 45 65 45h1058q55 0 45 -45l-19 -82q-11 -45 -66 -45h-433l-278 -1207q-13 -55 -63 -55h-92q-50 0 -37 55l278 1207h-433z" />
    <glyph glyph-name="U" unicode="U" horiz-adv-x="1402" 
d="M176 547l192 832q13 55 63 55h92q50 0 37 -55l-185 -802q-64 -280 -5 -365.5t240 -85.5q146 0 262.5 85.5t180.5 365.5l185 802q13 55 63 55h92q50 0 37 -55l-192 -832q-73 -317 -234 -447t-430 -130q-199 0 -335 130t-63 447z" />
    <glyph glyph-name="V" unicode="V" horiz-adv-x="1338" 
d="M242 1368q-9 66 42 66h90q55 0 61 -49l118 -895q8 -59 15 -157t7 -160h4q26 63 81.5 164t86.5 153l532 895q29 49 83 49h114q52 0 12 -66l-789 -1307q-37 -61 -80 -61h-140q-43 0 -52 61z" />
    <glyph glyph-name="W" unicode="W" horiz-adv-x="1888" 
d="M240 1374q-3 60 40 60h107q31 0 32 -46l23 -961q1 -61 -1 -117.5t-2 -136.5h5q24 59 50.5 117t61.5 136l439 954q25 54 76 54h135q51 0 52 -54l18 -954q1 -49 0 -115.5t-1 -137.5h5q27 60 63 133.5t57 120.5l434 961q21 46 54 46h132q41 0 12 -60l-633 -1297
q-38 -77 -92 -77h-125q-50 0 -52 84l-26 959q-2 76 0.5 117.5t2.5 98.5h-2q-21 -61 -37 -103.5t-49 -112.5l-453 -959q-40 -84 -90 -84h-125q-53 0 -56 77z" />
    <glyph glyph-name="X" unicode="X" horiz-adv-x="1298" 
d="M-42 0q-64 0 -3 66l638 686l-299 616q-32 66 33 66h98q43 0 61 -39l235 -522l456 522q34 39 79 39h138q64 0 3 -66l-591 -641l326 -661q33 -66 -33 -66h-105q-44 0 -61 39l-254 568l-497 -568q-34 -39 -79 -39h-145z" />
    <glyph glyph-name="Y" unicode="Y" horiz-adv-x="1302" 
d="M250 1368q-27 66 42 66h93q44 0 61 -49l156 -437q14 -40 37.5 -109.5t37.5 -129.5h4q42 60 82.5 112t102.5 127l358 437q40 49 83 49h125q70 0 12 -66l-681 -778l-123 -535q-13 -55 -63 -55h-92q-50 0 -37 55l123 535z" />
    <glyph glyph-name="Z" unicode="Z" horiz-adv-x="1216" 
d="M0 0q-55 0 -45 45l11 48q10 45 51 89l1010 1086l1 4q-41 -2 -81 -2h-622q-54 0 -44 45l17 74q10 45 65 45h922q55 0 45 -45l-7 -31q-7 -30 -35 -61l-1034 -1131l-1 -4q28 2 81 2h680q54 0 44 -45l-17 -74q-10 -45 -65 -45h-976z" />
    <glyph glyph-name="bracketleft" unicode="[" horiz-adv-x="658" 
d="M1 -408q-45 0 -35 45l419 1814q10 45 55 45h328q45 0 37 -35l-14 -60q-8 -35 -53 -35h-197l-379 -1644h197q45 0 37 -35l-14 -60q-8 -35 -53 -35h-328z" />
    <glyph glyph-name="backslash" unicode="\" horiz-adv-x="840" 
d="M147 1394q-12 46 23 55l47 12q37 9 47 -28l466 -1771q12 -46 -25 -56l-46 -12q-35 -9 -45 29z" />
    <glyph glyph-name="bracketright" unicode="]" horiz-adv-x="658" 
d="M-100 -408q-45 0 -37 35l14 60q8 35 53 35h197l379 1644h-197q-45 0 -37 35l14 60q8 35 53 35h328q45 0 35 -45l-419 -1814q-10 -45 -55 -45h-328z" />
    <glyph glyph-name="asciicircum" unicode="^" horiz-adv-x="866" 
d="M189 923q-29 19 -6 56l263 421q21 34 65 34h42q44 0 65 -34l263 -421q23 -37 -6 -56l-49 -32q-29 -19 -54 20l-239 379h-2l-239 -379q-25 -39 -54 -20z" />
    <glyph glyph-name="underscore" unicode="_" horiz-adv-x="1100" 
d="M-174 -390q-45 0 -45 35v60q0 35 45 35h1058q45 0 45 -35v-60q0 -35 -45 -35h-1058z" />
    <glyph glyph-name="grave" unicode="`" horiz-adv-x="614" 
d="M369 1383q-38 52 22 52h101q54 0 75 -37l112 -195q30 -53 -19 -53h-64q-56 0 -77 29z" />
    <glyph glyph-name="a" unicode="a" horiz-adv-x="1099" 
d="M66 339q0 275 186.5 501.5t391.5 226.5q90 0 148 -37.5t86 -87.5h2l21 63q15 45 49 45h84q45 0 35 -45l-222 -960q-10 -45 -55 -45h-81q-44 0 -35 45l25 120h-2q-49 -65 -130.5 -123.5t-181.5 -58.5q-145 0 -233 87.5t-88 268.5zM252 332q0 -66 35.5 -142.5t145.5 -76.5
q90 0 199 119t139 248l67 290q0 90 -57.5 128.5t-142.5 38.5q-140 0 -263 -179.5t-123 -425.5z" />
    <glyph glyph-name="b" unicode="b" horiz-adv-x="1119" 
d="M67 0q-45 0 -35 45l320 1386q10 45 55 45h86q45 0 35 -45l-112 -485q-7 -29 -16 -61h2q44 79 137 130.5t173 51.5q190 0 264.5 -116.5t74.5 -279.5q0 -255 -161 -471.5t-379 -216.5q-111 0 -173 33.5t-113 101.5h-2l-23 -73q-14 -45 -49 -45h-84zM265 290
q10 -100 65 -138.5t167 -38.5q152 0 260 169.5t108 395.5q0 104 -45 181.5t-158 77.5q-98 0 -199.5 -117.5t-132.5 -249.5z" />
    <glyph glyph-name="c" unicode="c" horiz-adv-x="1026" 
d="M68 402q0 265 163.5 465t428.5 200q162 0 231 -56.5t100 -124.5q16 -36 -14 -52l-66 -35q-34 -18 -53 25q-14 32 -64 72.5t-147 40.5q-156 0 -274.5 -140t-118.5 -410q0 -122 58.5 -198t188.5 -76q103 0 169 53.5t94 95.5q23 35 53 14l63 -46q29 -21 5 -55
q-29 -40 -127 -116t-270 -76q-234 0 -327 133.5t-93 285.5z" />
    <glyph glyph-name="d" unicode="d" horiz-adv-x="1119" 
d="M70 379q0 255 161 471.5t379 216.5q111 0 173 -33.5t113 -101.5h2q3 24 12 61l101 438q10 45 55 45h86q45 0 35 -45l-320 -1386q-10 -45 -55 -45h-84q-37 0 -29 45l22 120h-2q-44 -79 -137 -130.5t-173 -51.5q-190 0 -264.5 116.5t-74.5 279.5zM256 372q0 -104 45 -181.5
t158 -77.5q98 0 199.5 117.5t132.5 249.5l65 280q-10 100 -65 138.5t-167 38.5q-152 0 -260 -169.5t-108 -395.5z" />
    <glyph glyph-name="e" unicode="e" horiz-adv-x="1078" 
d="M68 396q0 300 156.5 485.5t427.5 185.5q155 0 250.5 -88.5t95.5 -200.5q0 -148 -141.5 -218t-350.5 -112l-246 -49q-6 -38 -6 -40q0 -99 54 -172t189 -73q115 0 185 42t95 76q35 47 63 21l59 -51q19 -17 -6 -56q-23 -36 -124 -99.5t-296 -63.5q-213 0 -309 123.5
t-96 289.5zM265 538l205 40q140 27 246 74.5t106 133.5q0 68 -61.5 109.5t-141.5 41.5q-121 0 -215.5 -92t-138.5 -307z" />
    <glyph glyph-name="f" unicode="f" horiz-adv-x="652" 
d="M182 918q-45 0 -37 35l14 62q8 35 53 35h107l35 149q38 167 143 230.5t221 63.5q69 0 109.5 -7t93.5 -31q20 -9 6 -32l-50 -79q-12 -20 -37 -8q-19 10 -49 18.5t-67 8.5q-83 0 -129 -40t-72 -153l-28 -120h183q45 0 37 -35l-14 -62q-8 -35 -53 -35h-183l-294 -1273
q-10 -45 -55 -45h-86q-45 0 -35 45l294 1273h-107z" />
    <glyph glyph-name="g" unicode="g" horiz-adv-x="1119" 
d="M70 379q0 255 161 471.5t379 216.5q111 0 173 -33.5t113 -101.5h2l23 73q14 45 49 45h84q45 0 35 -45l-234 -1013q-47 -205 -160 -307t-372 -102q-135 0 -221 32.5t-118 86.5q-21 35 4 60l50 48q25 25 56 -8q38 -40 96 -64.5t164 -24.5q124 0 208.5 67.5t121.5 230.5
l21 93q6 27 16 61h-2q-44 -79 -137 -130.5t-173 -51.5q-190 0 -264.5 116.5t-74.5 279.5zM256 372q0 -104 45 -181.5t158 -77.5q98 0 199.5 117.5t132.5 249.5l65 280q-10 100 -65 138.5t-167 38.5q-152 0 -260 -169.5t-108 -395.5z" />
    <glyph glyph-name="h" unicode="h" horiz-adv-x="1128" 
d="M67 0q-45 0 -35 45l320 1386q10 45 56 45h86q44 0 34 -45l-112 -486q-6 -28 -15 -60h4q59 73 153.5 127.5t214.5 54.5q170 0 232 -102.5t21 -280.5l-148 -639q-10 -45 -55 -45h-86q-45 0 -35 45l137 591q45 196 -3 248.5t-158 52.5q-120 0 -218.5 -116.5t-133.5 -266.5
l-118 -509q-10 -45 -55 -45h-86z" />
    <glyph glyph-name="i" unicode="i" horiz-adv-x="460" 
d="M67 0q-45 0 -35 45l222 960q10 45 55 45h86q45 0 35 -45l-222 -960q-10 -45 -55 -45h-86zM353 1240q-45 0 -34 45l20 86q10 45 55 45h86q45 0 35 -45l-20 -86q-11 -45 -56 -45h-86z" />
    <glyph glyph-name="j" unicode="j" horiz-adv-x="466" 
d="M-290 -397q-17 9 -10 32l25 81q8 26 29 15q35 -18 91 -18q59 0 101 57t83 236l231 999q10 45 55 45h86q45 0 35 -45l-253 -1098q-45 -194 -136 -259t-200 -65q-99 0 -137 20zM359 1240q-45 0 -34 45l20 86q10 45 55 45h86q45 0 35 -45l-20 -86q-11 -45 -56 -45h-86z" />
    <glyph glyph-name="k" unicode="k" horiz-adv-x="1003" 
d="M67 0q-45 0 -35 45l320 1386q10 45 56 45h86q44 0 34 -45l-189 -820q-7 -29 -16 -60h2l505 473q28 26 59 26h111q77 0 13 -59l-409 -380l228 -552q24 -59 -40 -59h-81q-33 0 -48 37l-186 454l-211 -198l-58 -248q-11 -45 -55 -45h-86z" />
    <glyph glyph-name="l" unicode="l" horiz-adv-x="460" 
d="M67 0q-45 0 -35 45l289 1248q4 20 18 38l100 127q27 35 39 35h35q30 0 22 -35l-327 -1413q-10 -45 -55 -45h-86z" />
    <glyph glyph-name="m" unicode="m" horiz-adv-x="1678" 
d="M67 0q-45 0 -35 45l222 960q10 45 55 45h84q45 0 35 -45l-27 -120h4q59 72 148.5 127t179.5 55q110 0 172.5 -69.5t62.5 -164.5h4q63 82 159.5 158t211.5 76q140 0 207 -102.5t26 -280.5l-148 -639q-10 -45 -55 -45h-86q-45 0 -35 45l135 581q45 195 13 253t-142 58
q-90 0 -189.5 -120.5t-132.5 -262.5l-118 -509q-10 -45 -55 -45h-86q-45 0 -35 45l135 581q45 195 13 253t-142 58q-90 0 -188.5 -116.5t-133.5 -266.5l-118 -509q-10 -45 -55 -45h-86z" />
    <glyph glyph-name="n" unicode="n" horiz-adv-x="1128" 
d="M67 0q-45 0 -35 45l222 960q10 45 55 45h84q45 0 35 -45l-27 -120h4q59 73 153.5 127.5t214.5 54.5q170 0 232 -102.5t21 -280.5l-148 -639q-10 -45 -55 -45h-86q-45 0 -35 45l137 591q45 196 -3 248.5t-158 52.5q-120 0 -218.5 -116.5t-133.5 -266.5l-118 -509
q-10 -45 -55 -45h-86z" />
    <glyph glyph-name="o" unicode="o" horiz-adv-x="1148" 
d="M68 402q0 264 163.5 464.5t428.5 200.5q234 0 327 -134.5t93 -284.5q0 -264 -163.5 -464.5t-428.5 -200.5q-234 0 -327 134.5t-93 284.5zM254 387q0 -125 58.5 -199.5t188.5 -74.5q156 0 274.5 141.5t118.5 408.5q0 125 -58.5 199.5t-188.5 74.5q-156 0 -274.5 -141.5
t-118.5 -408.5z" />
    <glyph glyph-name="p" unicode="p" horiz-adv-x="1119" 
d="M-25 -400q-45 0 -35 45l314 1360q10 45 55 45h84q37 0 29 -45l-22 -120h2q44 79 137 130.5t173 51.5q190 0 264.5 -116.5t74.5 -279.5q0 -255 -161 -471.5t-379 -216.5q-111 0 -173 33.5t-113 101.5h-2q-4 -28 -12 -61l-95 -412q-10 -45 -55 -45h-86zM265 290
q10 -100 65 -138.5t167 -38.5q152 0 260 169.5t108 395.5q0 104 -45 181.5t-158 77.5q-98 0 -199.5 -117.5t-132.5 -249.5z" />
    <glyph glyph-name="q" unicode="q" horiz-adv-x="1119" 
d="M70 379q0 255 161 471.5t379 216.5q111 0 173 -33.5t113 -101.5h2l23 73q14 45 49 45h84q45 0 35 -45l-314 -1360q-10 -45 -55 -45h-86q-45 0 -35 45l106 459q9 37 16 61h-2q-44 -79 -137 -130.5t-173 -51.5q-190 0 -264.5 116.5t-74.5 279.5zM256 372q0 -104 45 -181.5
t158 -77.5q98 0 199.5 117.5t132.5 249.5l65 280q-10 100 -65 138.5t-167 38.5q-152 0 -260 -169.5t-108 -395.5z" />
    <glyph glyph-name="r" unicode="r" horiz-adv-x="722" 
d="M67 0q-45 0 -35 45l222 960q10 45 55 45h84q45 0 35 -45l-37 -160h4q72 113 147.5 167.5t178.5 54.5q59 0 83 -11q19 -8 10 -30l-33 -82q-7 -18 -29 -14q-34 7 -69 7q-109 0 -221 -141.5t-147 -291.5l-107 -459q-10 -45 -55 -45h-86z" />
    <glyph glyph-name="s" unicode="s" horiz-adv-x="937" 
d="M28 102q-29 31 -8 55l50 59q21 24 65 -9q57 -43 122.5 -68.5t137.5 -25.5q54 0 107.5 14.5t88.5 57.5t35 86t-12.5 73t-43.5 51t-62 33q-42 16 -96.5 38t-101.5 44q-46 22 -82 63t-53 89.5t-17 103.5q0 82 50 160.5t144.5 109.5t205.5 31q96 0 173 -27.5t131 -72.5
q30 -25 4 -54l-50 -56q-19 -21 -64 11q-40 28 -92 46t-107 18q-48 0 -101.5 -14t-85.5 -50t-32 -86q0 -36 10 -66t35.5 -50.5t54.5 -33.5q52 -24 100.5 -41t88.5 -35q70 -30 114 -70t59.5 -89t15.5 -106q0 -111 -69.5 -184t-158.5 -98.5t-204 -25.5q-143 0 -228.5 39.5
t-123.5 79.5z" />
    <glyph glyph-name="t" unicode="t" horiz-adv-x="757" 
d="M183 918q-45 0 -37 35l14 62q8 35 53 35h118l21 90q5 19 19 38l99 127q27 35 39 35h35q30 0 22 -35l-59 -255h213q45 0 37 -35l-14 -62q-8 -35 -53 -35h-213l-147 -637q-24 -105 0.5 -136.5t59.5 -31.5q46 0 95 17.5t66 28.5q22 14 29 -6l26 -72q6 -18 -11 -29
q-41 -26 -119.5 -47.5t-167.5 -21.5q-88 0 -138.5 75t-18.5 212l150 648h-118z" />
    <glyph glyph-name="u" unicode="u" horiz-adv-x="1120" 
d="M104 366l148 639q10 45 55 45h86q45 0 35 -45l-136 -591q-45 -197 3 -249t153 -52q147 0 230 116.5t118 266.5l118 509q10 45 55 45h86q45 0 35 -45l-222 -960q-10 -45 -55 -45h-84q-45 0 -35 45l28 120h-4q-59 -73 -154.5 -127.5t-210.5 -54.5q-160 0 -225 102.5
t-24 280.5z" />
    <glyph glyph-name="v" unicode="v" horiz-adv-x="986" 
d="M156 1001q-6 49 38 49h99q32 0 36 -39l60 -660q4 -40 7 -91t3 -96h4q18 45 34.5 75.5t61.5 111.5l364 660q22 39 54 39h119q44 0 16 -49l-545 -940q-35 -61 -68 -61h-132q-33 0 -40 61z" />
    <glyph glyph-name="w" unicode="w" horiz-adv-x="1444" 
d="M156 1001q-2 49 38 49h97q36 0 36 -39l-3 -660q0 -45 -1 -98t-1 -84h4q11 28 38 87.5t45 94.5l328 660q19 39 54 39h90q35 0 36 -39l24 -660q1 -36 0 -84.5t-1 -97.5h4q13 29 41.5 91t42.5 91l299 660q18 39 54 39h113q40 0 16 -49l-465 -940q-30 -61 -68 -61h-120
q-38 0 -40 61l-17 661q-1 58 0.5 92t4.5 59h-2q-9 -25 -26 -66t-39 -85l-323 -661q-30 -61 -68 -61h-120q-38 0 -40 61z" />
    <glyph glyph-name="x" unicode="x" horiz-adv-x="968" 
d="M-44 0q-65 0 -12 59l452 506l-193 426q-27 59 39 59h74q36 0 47 -26l148 -348l287 348q21 26 59 26h109q66 0 13 -59l-400 -449l221 -483q27 -59 -40 -59h-78q-36 0 -47 26l-170 405l-338 -405q-22 -26 -59 -26h-112z" />
    <glyph glyph-name="y" unicode="y" horiz-adv-x="1128" 
d="M106 366l148 639q10 45 55 45h86q45 0 35 -45l-136 -591q-45 -197 2.5 -249t157.5 -52q106 0 211.5 113.5t141.5 269.5l117 509q10 45 55 45h86q45 0 35 -45l-234 -1014q-47 -205 -158 -306.5t-374 -101.5q-171 0 -236 33t-98 78q-29 40 2 68l56 52q32 29 50 0
q30 -48 87 -74.5t170 -26.5q121 0 206.5 68.5t122.5 228.5q23 102 37 155h-4q-59 -73 -150 -127.5t-218 -54.5q-170 0 -232 102.5t-21 280.5z" />
    <glyph glyph-name="z" unicode="z" horiz-adv-x="950" 
d="M-20 0q-45 0 -37 35l12 51q8 34 53 80l737 752v2q-30 -2 -60 -2h-469q-45 0 -37 35l14 62q8 35 53 35h702q45 0 37 -35l-11 -47q-7 -28 -55 -78l-740 -758v-2q30 2 60 2h521q45 0 37 -35l-14 -62q-8 -35 -53 -35h-750z" />
    <glyph glyph-name="braceleft" unicode="{" horiz-adv-x="776" 
d="M116 479q-35 0 -25 45l9 40q11 45 46 45q64 0 159 64.5t140 257.5l54 235q39 170 100 250t287 80q45 0 37 -35l-14 -60q-8 -35 -53 -35q-98 0 -125.5 -41.5t-49.5 -135.5l-67 -286q-54 -234 -156 -293t-173 -65l-1 -2q75 -19 138.5 -108.5t26.5 -249.5l-66 -286
q-22 -95 -13 -136t107 -41q45 0 37 -35l-14 -60q-8 -35 -53 -35q-180 0 -222.5 99t-12.5 231l54 235q41 176 -9.5 249t-140.5 73z" />
    <glyph glyph-name="bar" unicode="|" horiz-adv-x="590" 
d="M267 -440q-35 0 -35 45v1846q0 45 35 45h60q35 0 35 -45v-1846q0 -45 -35 -45h-60z" />
    <glyph glyph-name="braceright" unicode="}" horiz-adv-x="776" 
d="M-99 -408q-45 0 -37 35l14 60q8 35 53 35q98 0 125.5 41.5t49.5 135.5l67 286q54 234 156 293t173 65l1 2q-75 19 -138.5 108.5t-26.5 249.5l66 286q22 95 13 136t-107 41q-45 0 -37 35l14 60q8 35 53 35q180 0 222.5 -99t12.5 -231l-54 -235q-41 -176 9.5 -249
t140.5 -73q35 0 25 -45l-9 -40q-11 -45 -46 -45q-64 0 -159 -64.5t-140 -257.5l-54 -235q-39 -170 -100 -250t-287 -80z" />
    <glyph glyph-name="asciitilde" unicode="~" horiz-adv-x="1280" 
d="M148 628q-24 8 -13 43q35 110 116 174.5t196 64.5t278.5 -120t238.5 -120q69 0 113 45t69 101q13 30 37 21l43 -15q24 -8 13 -43q-35 -110 -116 -174.5t-196 -64.5t-278.5 120t-238.5 120q-69 0 -113 -45t-69 -101q-13 -30 -37 -21z" />
    <glyph glyph-name="exclamdown" unicode="&#xa1;" horiz-adv-x="600" 
d="M39 -384q-50 0 -37 55l239 944q11 45 55 45h72q45 0 35 -45l-197 -944q-11 -55 -63 -55h-104zM317 838q-45 0 -35 45l29 122q10 45 55 45h112q45 0 35 -45l-29 -122q-10 -45 -55 -45h-112z" />
    <glyph glyph-name="cent" unicode="&#xa2;" horiz-adv-x="1110" 
d="M118 402q0 265 158.5 459t401.5 205l43 186q10 45 45 45h50q35 0 25 -45l-44 -190q95 -12 154 -60t90 -116q16 -36 -14 -52l-66 -35q-34 -18 -53 25q-14 32 -54 64.5t-87 42.5l-189 -817q85 6 146.5 56t89.5 92q23 35 53 14l63 -46q29 -21 5 -55q-29 -40 -125.5 -115
t-261.5 -77l-43 -185q-10 -45 -45 -45h-50q-35 0 -25 45l45 193q-149 25 -230.5 142t-81.5 269zM304 387q0 -122 47 -183t109 -79l187 808q-126 -19 -234.5 -147.5t-108.5 -398.5z" />
    <glyph glyph-name="sterling" unicode="&#xa3;" horiz-adv-x="1110" 
d="M14 0q-56 0 -45 45l14 57q10 41 51 73q54 41 135 124t106 193l31 136h-158q-44 0 -34 45l17 74q10 45 56 45h157l51 221q57 247 175 343t321 96q108 0 178.5 -36.5t107.5 -80.5q26 -32 -1 -61l-41 -44q-29 -32 -66 2q-31 28 -82 49t-120 21q-114 0 -186.5 -63
t-104.5 -204l-56 -243h285q44 0 34 -45l-17 -74q-10 -45 -54 -45h-286l-31 -133q-31 -133 -96.5 -217t-117.5 -112v-4q27 2 81 2h571q54 0 44 -45l-17 -74q-10 -45 -65 -45h-837z" />
    <glyph glyph-name="currency" unicode="&#xa4;" horiz-adv-x="1110" 
d="M140 289q-26 24 5 57l131 140q-74 106 -74 242t74 242l-131 140q-31 33 -5 57l37 34q26 24 56 -9l124 -133q104 85 248 85t248 -85l124 133q30 33 56 9l37 -34q26 -24 -5 -57l-131 -140q74 -106 74 -242t-74 -242l131 -140q31 -33 5 -57l-37 -34q-26 -24 -56 9l-124 133
q-104 -85 -248 -85t-248 85l-124 -133q-30 -33 -56 -9zM335 728q0 -117 75 -201.5t195 -84.5t195 84.5t75 201.5t-75 201.5t-195 84.5t-195 -84.5t-75 -201.5z" />
    <glyph glyph-name="yen" unicode="&#xa5;" horiz-adv-x="1110" 
d="M211 1368q-23 66 42 66h80q47 0 61 -49l125 -437q23 -80 37.5 -129.5t28.5 -109.5h4q42 60 80 111t96 128l327 437q37 49 83 49h104q66 0 12 -66l-510 -629h176q44 0 34 -45l-13 -59q-10 -45 -56 -45h-263l-42 -181h263q46 0 35 -45l-14 -59q-11 -45 -55 -45h-263
l-50 -215q-10 -45 -55 -45h-86q-45 0 -35 45l50 215h-273q-46 0 -35 45l14 59q11 45 55 45h273l42 181h-273q-44 0 -34 45l13 59q10 45 56 45h186z" />
    <glyph glyph-name="brokenbar" unicode="&#xa6;" horiz-adv-x="590" 
d="M265 -338q-35 0 -35 45v644q0 45 35 45h60q35 0 35 -45v-644q0 -45 -35 -45h-60zM265 660q-35 0 -35 45v644q0 45 35 45h60q35 0 35 -45v-644q0 -45 -35 -45h-60z" />
    <glyph glyph-name="section" unicode="&#xa7;" horiz-adv-x="1160" 
d="M122 565q0 122 94.5 214t246.5 201q-40 76 -40 150q0 138 112.5 236t251.5 98q117 0 172 -32t87 -82q23 -35 -1 -55l-60 -51q-17 -16 -43 18q-28 37 -61 54.5t-99 17.5q-83 0 -130 -56.5t-47 -114.5q0 -140 222.5 -314t222.5 -324q0 -122 -94.5 -214t-246.5 -201
q40 -76 40 -150q0 -138 -112.5 -236t-251.5 -98q-117 0 -172 32t-87 82q-23 35 1 55l60 51q17 16 43 -18q28 -37 61 -54.5t99 -17.5q83 0 130 56.5t47 114.5q0 140 -222.5 314t-222.5 324zM293 608q0 -94 150 -218.5t200 -182.5l117 89q119 91 119 186q0 94 -150 218.5
t-200 182.5l-117 -89q-119 -91 -119 -186z" />
    <glyph glyph-name="dieresis" unicode="&#xa8;" horiz-adv-x="614" 
d="M227 1240q-45 0 -34 45l20 86q10 45 55 45h86q45 0 35 -45l-20 -86q-11 -45 -56 -45h-86zM633 1240q-45 0 -34 45l20 86q10 45 55 45h86q45 0 35 -45l-20 -86q-11 -45 -56 -45h-86z" />
    <glyph glyph-name="copyright" unicode="&#xa9;" horiz-adv-x="1654" 
d="M100 717q0 152 59.5 290t159.5 238t238 159.5t290 59.5t290 -59.5t238 -159.5t159.5 -238t59.5 -290t-59.5 -290t-159.5 -238t-238 -159.5t-290 -59.5t-290 59.5t-238 159.5t-159.5 238t-59.5 290zM200 717q0 -132 51.5 -251.5t138 -206t206 -140t251.5 -53.5t251.5 53.5
t206 140t138 206t51.5 251.5t-51.5 251.5t-138 206t-206 140t-251.5 53.5t-251.5 -53.5t-206 -140t-138 -206t-51.5 -251.5zM450 717q0 203 103 318t292 115q110 0 184.5 -38t105.5 -103q16 -34 -5 -46l-58 -32q-23 -13 -41 22q-19 37 -59 64.5t-122 27.5q-145 0 -207.5 -83
t-62.5 -245t62.5 -245t207.5 -83q84 0 130.5 34.5t69.5 76.5q18 33 42 20l60 -33q21 -12 3 -47q-34 -67 -113.5 -111.5t-196.5 -44.5q-188 0 -291.5 115t-103.5 318z" />
    <glyph glyph-name="ordfeminine" unicode="&#xaa;" horiz-adv-x="750" 
d="M188 1019q0 189 121 331.5t275 142.5q61 0 94 -24.5t52 -57.5h1l15 41q11 29 33 29h67q31 0 24 -29l-147 -624q-7 -29 -37 -29h-66q-29 0 -23 29l17 78h-2q-33 -42 -88.5 -80t-120.5 -38q-99 0 -157 56.5t-58 174.5zM326 1015q0 -43 24 -81t87 -38q59 0 131.5 74
t91.5 151l40 164q-10 61 -43 80.5t-70 19.5q-95 0 -178 -108.5t-83 -261.5z" />
    <glyph glyph-name="guillemotleft" unicode="&#xab;" horiz-adv-x="1032" 
d="M120 517q-14 23 11 46l411 380q28 26 45 8l45 -49q16 -17 -13 -44l-359 -334l205 -334q16 -26 -8 -44l-49 -36q-25 -18 -41 8zM470 517q-14 23 11 46l411 380q28 26 45 8l45 -49q16 -17 -13 -44l-359 -334l205 -334q16 -26 -8 -44l-49 -36q-25 -18 -41 8z" />
    <glyph glyph-name="logicalnot" unicode="&#xac;" horiz-adv-x="1110" 
d="M175 808q-45 0 -45 35v50q0 35 45 35h860q45 0 45 -35v-420q0 -45 -35 -45h-50q-35 0 -35 45v335h-785z" />
    <glyph glyph-name="uni00AD" unicode="&#xad;" horiz-adv-x="680" 
d="M93 483q-45 0 -37 35l16 70q8 35 53 35h478q45 0 37 -35l-16 -70q-8 -35 -53 -35h-478z" />
    <glyph glyph-name="registered" unicode="&#xae;" horiz-adv-x="1654" 
d="M100 717q0 152 59.5 290t159.5 238t238 159.5t290 59.5t290 -59.5t238 -159.5t159.5 -238t59.5 -290t-59.5 -290t-159.5 -238t-238 -159.5t-290 -59.5t-290 59.5t-238 159.5t-159.5 238t-59.5 290zM200 717q0 -132 51.5 -251.5t138 -206t206 -140t251.5 -53.5t251.5 53.5
t206 140t138 206t51.5 251.5t-51.5 251.5t-138 206t-206 140t-251.5 53.5t-251.5 -53.5t-206 -140t-138 -206t-51.5 -251.5zM589 283q-29 0 -29 32v768q0 32 29 32h280q168 0 243 -63t75 -165q0 -90 -58.5 -152.5t-174.5 -76.5v-1q57 -35 77 -59t44 -64l131 -212
q24 -39 -11 -39h-76q-26 0 -40 23l-116 197q-23 39 -75.5 84.5t-125.5 45.5h-82v-318q0 -32 -29 -32h-62zM680 743h149q113 0 173 32.5t60 108.5q0 70 -55 95.5t-150 25.5h-177v-262z" />
    <glyph glyph-name="macron" unicode="&#xaf;" horiz-adv-x="614" 
d="M209 1240q-45 0 -37 35l10 40q8 35 53 35h528q45 0 37 -35l-10 -40q-8 -35 -53 -35h-528z" />
    <glyph glyph-name="degree" unicode="&#xb0;" horiz-adv-x="560" 
d="M246 1240q0 83 58.5 141.5t141.5 58.5t141.5 -58.5t58.5 -141.5t-58.5 -141.5t-141.5 -58.5t-141.5 58.5t-58.5 141.5zM346 1240q0 -42 29 -71t71 -29t71 29t29 71t-29 71t-71 29t-71 -29t-29 -71z" />
    <glyph glyph-name="plusminus" unicode="&#xb1;" horiz-adv-x="1280" 
d="M172 -60q-45 0 -45 35v50q0 35 45 35h1030q45 0 45 -35v-50q0 -35 -45 -35h-1030zM172 665q-45 0 -45 35v50q0 35 45 35h454v454q0 45 35 45h50q35 0 35 -45v-454h456q45 0 45 -35v-50q0 -35 -45 -35h-456v-456q0 -45 -35 -45h-50q-35 0 -35 45v456h-454z" />
    <glyph glyph-name="uni00B2" unicode="&#xb2;" horiz-adv-x="590" 
d="M121 712q-27 0 -22 23l9 41q4 20 26 38l287 235q91 74 123.5 123t32.5 106q0 44 -28.5 66t-75.5 22q-41 0 -81 -27t-69 -84q-15 -30 -31 -23l-51 23q-22 10 -7 44q32 70 99 118.5t148 48.5q113 0 166.5 -48t53.5 -128q0 -64 -34.5 -130t-153.5 -161l-223 -179v-2
q21 1 41 1h248q29 0 24 -23l-14 -61q-5 -23 -35 -23h-433z" />
    <glyph glyph-name="uni00B3" unicode="&#xb3;" horiz-adv-x="594" 
d="M122 788q-20 25 0 39l46 33q20 14 40 -10q28 -34 57 -44t67 -10q86 0 133 44t47 106q0 46 -30 81.5t-92 35.5h-41q-23 0 -19 17l14 60q4 18 27 18h29q66 0 113.5 39.5t47.5 90.5q0 40 -24 59t-74 19q-40 0 -71.5 -12t-61.5 -35q-29 -22 -40 -8l-37 46q-14 17 21 43
q40 30 88 48t111 18q107 0 157.5 -47.5t50.5 -113.5q0 -88 -54.5 -130.5t-119.5 -58.5l-1 -2q59 -17 94.5 -62t35.5 -115q0 -96 -88 -168.5t-222 -72.5q-78 0 -126 27t-78 65z" />
    <glyph glyph-name="acute" unicode="&#xb4;" horiz-adv-x="614" 
d="M335 1150q-50 0 -5 53l166 195q32 37 87 37h121q59 0 6 -52l-206 -204q-30 -29 -85 -29h-84z" />
    <glyph glyph-name="uni00B5" unicode="&#xb5;" horiz-adv-x="1160" 
d="M-23 -417q-45 0 -35 45l318 1376q10 45 55 45h86q45 0 35 -45l-127 -549q-36 -154 3.5 -248.5t159.5 -94.5q96 0 207 92t148 252l127 549q10 45 55 45h86q45 0 35 -45l-222 -960q-10 -45 -55 -45h-84q-46 0 -35 45l19 80h-4q-84 -79 -151 -111t-144 -32q-61 0 -121 32
t-98 110h-4q-5 -29 -12 -60l-101 -436q-10 -45 -55 -45h-86z" />
    <glyph glyph-name="paragraph" unicode="&#xb6;" horiz-adv-x="1022" 
d="M83 1084q0 142 104 246t246 104h95q35 0 35 -45v-1714q0 -45 -35 -45h-60q-35 0 -35 45v1059q-142 0 -246 104t-104 246zM788 -370q-35 0 -35 45v1714q0 45 35 45h60q35 0 35 -45v-1714q0 -45 -35 -45h-60z" />
    <glyph glyph-name="periodcentered" unicode="&#xb7;" horiz-adv-x="600" 
d="M291 619q-45 0 -45 45v122q0 45 45 45h112q45 0 45 -45v-122q0 -45 -45 -45h-112z" />
    <glyph glyph-name="cedilla" unicode="&#xb8;" horiz-adv-x="614" 
d="M-74 -395q-21 8 -11 36l13 38q11 32 40 17q24 -12 86 -12q48 0 79 19t31 52q0 25 -24.5 40.5t-73.5 15.5h-28q-22 0 -18 25q7 42 18 55l89 109q18 22 45 22h69q32 0 14 -22l-78 -96l-1 -3q67 -13 90 -43t23 -89q0 -82 -70 -133.5t-168 -51.5q-69 0 -125 21z" />
    <glyph glyph-name="uni00B9" unicode="&#xb9;" horiz-adv-x="480" 
d="M260 1314q-5 14 17 24q26 12 78.5 41t86.5 62q19 19 33 19h72q24 0 19 -23l-162 -702q-5 -23 -30 -23h-72q-23 0 -18 23l127 552q3 15 10 31h-3q-21 -20 -51.5 -39.5t-58.5 -29.5q-22 -8 -28 9z" />
    <glyph glyph-name="ordmasculine" unicode="&#xba;" horiz-adv-x="780" 
d="M190 1060q0 172 111.5 302.5t291.5 130.5q165 0 225 -84t60 -189q0 -172 -111 -302t-291 -130q-165 0 -225.5 83.5t-60.5 188.5zM328 1051q0 -75 35.5 -115t123.5 -40q100 0 176.5 84.5t76.5 249.5q0 75 -35 115t-123 40q-100 0 -177 -84.5t-77 -249.5z" />
    <glyph glyph-name="guillemotright" unicode="&#xbb;" horiz-adv-x="1032" 
d="M59 178q-16 17 13 44l359 334l-205 334q-16 26 8 44l49 36q25 18 41 -8l247 -399q14 -23 -11 -46l-411 -380q-28 -26 -45 -8zM409 178q-16 17 13 44l359 334l-205 334q-16 26 8 44l49 36q25 18 41 -8l247 -399q14 -23 -11 -46l-411 -380q-28 -26 -45 -8z" />
    <glyph glyph-name="onequarter" unicode="&#xbc;" horiz-adv-x="1756" 
d="M239 -40q-27 23 2 56l1280 1496q29 35 56 12l38 -33q25 -22 -4 -56l-1278 -1497q-31 -35 -58 -12zM1037 173q-23 0 -18 23l15 71q3 14 22 36l373 426q17 19 33 19h88q24 0 19 -23l-103 -445h70q23 0 18 -23l-14 -61q-5 -23 -28 -23h-71l-34 -150q-5 -23 -29 -23h-74
q-22 0 -17 23l34 150h-284zM1162 280h184l61 262q3 14 10 31h-3zM370 1314q-5 14 17 24q26 12 78.5 41t86.5 62q19 19 33 19h72q24 0 19 -23l-162 -702q-5 -23 -30 -23h-72q-23 0 -18 23l127 552q3 15 10 31h-3q-21 -20 -51.5 -39.5t-58.5 -29.5q-22 -8 -28 9z" />
    <glyph glyph-name="onehalf" unicode="&#xbd;" horiz-adv-x="1756" 
d="M239 -40q-27 23 2 56l1280 1496q29 35 56 12l38 -33q25 -22 -4 -56l-1278 -1497q-31 -35 -58 -12zM370 1314q-5 14 17 24q26 12 78.5 41t86.5 62q19 19 33 19h72q24 0 19 -23l-162 -702q-5 -23 -30 -23h-72q-23 0 -18 23l127 552q3 15 10 31h-3q-21 -20 -51.5 -39.5
t-58.5 -29.5q-22 -8 -28 9zM1050 0q-27 0 -22 23l9 41q4 20 26 38l287 235q91 74 123.5 123t32.5 106q0 44 -28.5 66t-75.5 22q-41 0 -81 -27t-69 -84q-15 -30 -31 -23l-51 23q-22 10 -7 44q32 70 99 118.5t148 48.5q113 0 166.5 -48t53.5 -128q0 -64 -34.5 -130
t-153.5 -161l-223 -179v-2q21 1 41 1h248q29 0 24 -23l-14 -61q-5 -23 -35 -23h-433z" />
    <glyph glyph-name="threequarters" unicode="&#xbe;" horiz-adv-x="1756" 
d="M239 -40q-27 23 2 56l1280 1496q29 35 56 12l38 -33q25 -22 -4 -56l-1278 -1497q-31 -35 -58 -12zM177 788q-20 25 0 39l46 33q20 14 40 -10q28 -34 57 -44t67 -10q86 0 133 44t47 106q0 46 -30 81.5t-92 35.5h-41q-23 0 -19 17l14 60q4 18 27 18h29q66 0 113.5 39.5
t47.5 90.5q0 40 -24 59t-74 19q-40 0 -71.5 -12t-61.5 -35q-29 -22 -40 -8l-37 46q-14 17 21 43q40 30 88 48t111 18q107 0 157.5 -47.5t50.5 -113.5q0 -88 -54.5 -130.5t-119.5 -58.5l-1 -2q59 -17 94.5 -62t35.5 -115q0 -96 -88 -168.5t-222 -72.5q-78 0 -126 27t-78 65z
M1047 173q-23 0 -18 23l15 71q3 14 22 36l373 426q17 19 33 19h88q24 0 19 -23l-103 -445h70q23 0 18 -23l-14 -61q-5 -23 -28 -23h-71l-34 -150q-5 -23 -29 -23h-74q-22 0 -17 23l34 150h-284zM1172 280h184l61 262q3 14 10 31h-3z" />
    <glyph glyph-name="questiondown" unicode="&#xbf;" horiz-adv-x="1016" 
d="M-29 -83q0 159 231 365t258 330l5 23q10 45 56 45h86q44 0 34 -45l-8 -37q-38 -176 -252 -373.5t-214 -318.5q0 -98 53.5 -134t133.5 -36q88 0 167.5 51t106.5 104q27 52 68 29l71 -40q34 -19 -4 -86q-42 -73 -147 -140.5t-268 -67.5q-198 0 -287.5 81t-89.5 250z
M545 838q-45 0 -35 45l29 122q10 45 55 45h112q45 0 35 -45l-29 -122q-10 -45 -55 -45h-112z" />
    <glyph glyph-name="Agrave" unicode="&#xc0;" horiz-adv-x="1360" 
d="M619 1733q-56 52 21 52h145q49 0 76 -37l111 -155q38 -53 -20 -53h-82q-46 0 -76 29zM-47 0q-51 0 -12 66l770 1307q36 61 80 61h140q41 0 52 -61l226 -1307q11 -66 -42 -66h-91q-53 0 -61 49l-57 331h-615l-195 -331q-29 -49 -83 -49h-112zM441 544h488l-70 400
q-13 72 -21 157.5t-8 159.5h-4q-18 -71 -56 -145t-95 -172z" />
    <glyph glyph-name="Aacute" unicode="&#xc1;" horiz-adv-x="1360" 
d="M828 1540q-57 0 -4 53l155 155q37 37 86 37h169q77 0 7 -52l-221 -164q-40 -29 -86 -29h-106zM-47 0q-51 0 -12 66l770 1307q36 61 80 61h140q41 0 52 -61l226 -1307q11 -66 -42 -66h-91q-53 0 -61 49l-57 331h-615l-195 -331q-29 -49 -83 -49h-112zM441 544h488l-70 400
q-13 72 -21 157.5t-8 159.5h-4q-18 -71 -56 -145t-95 -172z" />
    <glyph glyph-name="Acircumflex" unicode="&#xc2;" horiz-adv-x="1360" 
d="M529 1589q-8 32 38 51l248 104q43 18 68 18h70q25 0 60 -18l234 -122q35 -19 14 -51l-28 -41q-21 -32 -59 -13l-257 132h-2l-319 -132q-45 -19 -53 13zM-47 0q-51 0 -12 66l770 1307q36 61 80 61h140q41 0 52 -61l226 -1307q11 -66 -42 -66h-91q-53 0 -61 49l-57 331
h-615l-195 -331q-29 -49 -83 -49h-112zM441 544h488l-70 400q-13 72 -21 157.5t-8 159.5h-4q-18 -71 -56 -145t-95 -172z" />
    <glyph glyph-name="Atilde" unicode="&#xc3;" horiz-adv-x="1360" 
d="M553 1575q-23 13 -9 45q28 65 85.5 108t146.5 43q75 0 159 -49t128 -49q48 0 81 27t49 52q19 29 38 18l42 -25q23 -13 9 -45q-28 -65 -85.5 -108t-146.5 -43q-75 0 -159 49t-128 49q-48 0 -81 -27t-49 -52q-19 -29 -38 -18zM-47 0q-51 0 -12 66l770 1307q36 61 80 61h140
q41 0 52 -61l226 -1307q11 -66 -42 -66h-91q-53 0 -61 49l-57 331h-615l-195 -331q-29 -49 -83 -49h-112zM441 544h488l-70 400q-13 72 -21 157.5t-8 159.5h-4q-18 -71 -56 -145t-95 -172z" />
    <glyph glyph-name="Adieresis" unicode="&#xc4;" horiz-adv-x="1360" 
d="M-47 0q-51 0 -12 66l770 1307q36 61 80 61h140q41 0 52 -61l226 -1307q11 -66 -42 -66h-91q-53 0 -61 49l-57 331h-615l-195 -331q-29 -49 -83 -49h-112zM441 544h488l-70 400q-13 72 -21 157.5t-8 159.5h-4q-18 -71 -56 -145t-95 -172zM603 1550q-45 0 -35 45l21 92
q11 45 56 45h92q45 0 34 -45l-21 -92q-10 -45 -55 -45h-92zM1081 1550q-45 0 -35 45l21 92q11 45 56 45h92q45 0 34 -45l-21 -92q-10 -45 -55 -45h-92z" />
    <glyph glyph-name="Aring" unicode="&#xc5;" horiz-adv-x="1360" 
d="M-47 0q-51 0 -12 66l770 1307q36 61 80 61h140q41 0 52 -61l226 -1307q11 -66 -42 -66h-91q-53 0 -61 49l-57 331h-615l-195 -331q-29 -49 -83 -49h-112zM441 544h488l-70 400q-13 72 -21 157.5t-8 159.5h-4q-18 -71 -56 -145t-95 -172zM709 1647q0 75 52 124t130 49
t130 -50t52 -123t-52 -123t-130 -50t-130 49t-52 124zM787 1647q0 -42 29 -70.5t75 -28.5t75 28.5t29 70.5t-29 70.5t-75 28.5t-75 -28.5t-29 -70.5z" />
    <glyph glyph-name="AE" unicode="&#xc6;" horiz-adv-x="1957" 
d="M-46 0q-59 0 -13 66l924 1316q37 52 79 52h1049q55 0 45 -45l-17 -74q-10 -45 -66 -45h-693l-102 -444h633q54 0 44 -45l-17 -74q-10 -45 -65 -45h-633l-115 -498h723q54 0 44 -45l-17 -74q-10 -45 -65 -45h-865q-50 0 -37 55l75 325h-474l-232 -331q-34 -49 -78 -49
h-127zM506 544h397l167 726h-72q-30 -59 -66.5 -115t-68.5 -102z" />
    <glyph glyph-name="Ccedilla" unicode="&#xc7;" horiz-adv-x="1392" 
d="M110 580q0 395 210.5 639.5t587.5 244.5q184 0 298 -64t161 -170q23 -53 -23 -80l-78 -46q-27 -16 -52 28q-30 54 -109 115t-214 61q-250 0 -413 -183t-163 -568q0 -182 96 -306.5t326 -124.5q136 0 230.5 71.5t146.5 143.5q42 58 78 35l90 -58q33 -21 -8 -80
q-79 -115 -213 -191.5t-351 -76.5q-302 0 -451 172.5t-149 437.5zM430 -395q-21 8 -11 36l13 38q11 32 40 17q24 -12 86 -12q48 0 79 19t31 52q0 25 -24.5 40.5t-73.5 15.5h-28q-22 0 -18 25q7 42 18 55l89 109q18 22 45 22h69q32 0 14 -22l-78 -96l-1 -3q67 -13 90 -43
t23 -89q0 -82 -70 -133.5t-168 -51.5q-69 0 -125 21z" />
    <glyph glyph-name="Egrave" unicode="&#xc8;" horiz-adv-x="1270" 
d="M644 1733q-56 52 21 52h145q49 0 76 -37l111 -155q38 -53 -20 -53h-82q-46 0 -76 29zM100 0q-50 0 -37 55l305 1324q13 55 63 55h875q55 0 45 -45l-17 -74q-11 -45 -66 -45h-733l-102 -444h673q55 0 44 -45l-17 -74q-10 -45 -65 -45h-673l-115 -498h763q55 0 44 -45
l-17 -74q-10 -45 -65 -45h-905z" />
    <glyph glyph-name="Eacute" unicode="&#xc9;" horiz-adv-x="1270" 
d="M853 1540q-57 0 -4 53l155 155q37 37 86 37h169q77 0 7 -52l-221 -164q-40 -29 -86 -29h-106zM100 0q-50 0 -37 55l305 1324q13 55 63 55h875q55 0 45 -45l-17 -74q-11 -45 -66 -45h-733l-102 -444h673q55 0 44 -45l-17 -74q-10 -45 -65 -45h-673l-115 -498h763
q55 0 44 -45l-17 -74q-10 -45 -65 -45h-905z" />
    <glyph glyph-name="Ecircumflex" unicode="&#xca;" horiz-adv-x="1270" 
d="M554 1589q-8 32 38 51l248 104q43 18 68 18h70q25 0 60 -18l234 -122q35 -19 14 -51l-28 -41q-21 -32 -59 -13l-257 132h-2l-319 -132q-45 -19 -53 13zM100 0q-50 0 -37 55l305 1324q13 55 63 55h875q55 0 45 -45l-17 -74q-11 -45 -66 -45h-733l-102 -444h673
q55 0 44 -45l-17 -74q-10 -45 -65 -45h-673l-115 -498h763q55 0 44 -45l-17 -74q-10 -45 -65 -45h-905z" />
    <glyph glyph-name="Edieresis" unicode="&#xcb;" horiz-adv-x="1270" 
d="M628 1550q-45 0 -35 45l21 92q11 45 56 45h92q45 0 34 -45l-21 -92q-10 -45 -55 -45h-92zM1106 1550q-45 0 -35 45l21 92q11 45 56 45h92q45 0 34 -45l-21 -92q-10 -45 -55 -45h-92zM100 0q-50 0 -37 55l305 1324q13 55 63 55h875q55 0 45 -45l-17 -74q-11 -45 -66 -45
h-733l-102 -444h673q55 0 44 -45l-17 -74q-10 -45 -65 -45h-673l-115 -498h763q55 0 44 -45l-17 -74q-10 -45 -65 -45h-905z" />
    <glyph glyph-name="Igrave" unicode="&#xcc;" horiz-adv-x="532" 
d="M234 1733q-56 52 21 52h145q49 0 76 -37l111 -155q38 -53 -20 -53h-82q-46 0 -76 29zM100 0q-50 0 -37 55l305 1324q13 55 63 55h92q50 0 37 -55l-305 -1324q-13 -55 -63 -55h-92z" />
    <glyph glyph-name="Iacute" unicode="&#xcd;" horiz-adv-x="532" 
d="M443 1540q-57 0 -4 53l155 155q37 37 86 37h169q77 0 7 -52l-221 -164q-40 -29 -86 -29h-106zM100 0q-50 0 -37 55l305 1324q13 55 63 55h92q50 0 37 -55l-305 -1324q-13 -55 -63 -55h-92z" />
    <glyph glyph-name="Icircumflex" unicode="&#xce;" horiz-adv-x="532" 
d="M144 1589q-8 32 38 51l248 104q43 18 68 18h70q25 0 60 -18l234 -122q35 -19 14 -51l-28 -41q-21 -32 -59 -13l-257 132h-2l-319 -132q-45 -19 -53 13zM100 0q-50 0 -37 55l305 1324q13 55 63 55h92q50 0 37 -55l-305 -1324q-13 -55 -63 -55h-92z" />
    <glyph glyph-name="Idieresis" unicode="&#xcf;" horiz-adv-x="532" 
d="M100 0q-50 0 -37 55l305 1324q13 55 63 55h92q50 0 37 -55l-305 -1324q-13 -55 -63 -55h-92zM261 1550q-45 0 -35 45l21 92q11 45 56 45h92q45 0 34 -45l-21 -92q-10 -45 -55 -45h-92zM655 1550q-45 0 -35 45l21 92q11 45 56 45h92q45 0 34 -45l-21 -92q-10 -45 -55 -45
h-92z" />
    <glyph glyph-name="Eth" unicode="&#xd0;" horiz-adv-x="1446" 
d="M126 654q-55 0 -45 45l17 74q10 45 66 45h115l129 561q13 55 63 55h319q358 0 496 -175t138 -411q0 -340 -210 -594t-655 -254h-419q-50 0 -37 55l138 599h-115zM320 164h268q332 0 481.5 212t149.5 484q0 172 -81.5 292t-393.5 120h-168l-105 -454h321q55 0 44 -45
l-17 -74q-10 -45 -65 -45h-321z" />
    <glyph glyph-name="Ntilde" unicode="&#xd1;" horiz-adv-x="1438" 
d="M621 1575q-23 13 -9 45q28 65 85.5 108t146.5 43q75 0 159 -49t128 -49q48 0 81 27t49 52q19 29 38 18l42 -25q23 -13 9 -45q-28 -65 -85.5 -108t-146.5 -43q-75 0 -159 49t-128 49q-48 0 -81 -27t-49 -52q-19 -29 -38 -18zM100 0q-50 0 -37 55l305 1324q13 55 63 55h121
q71 0 89 -50l388 -1060h4q9 46 17 80l224 975q13 55 63 55h92q50 0 37 -55l-305 -1324q-13 -55 -63 -55h-82q-70 0 -88 50l-413 1125h-4q-8 -44 -16 -80l-240 -1040q-13 -55 -63 -55h-92z" />
    <glyph glyph-name="Ograve" unicode="&#xd2;" horiz-adv-x="1514" 
d="M629 1733q-56 52 21 52h145q49 0 76 -37l111 -155q38 -53 -20 -53h-82q-46 0 -76 29zM110 580q0 400 214 642t554 242q305 0 461 -162.5t156 -447.5q0 -400 -214 -642t-554 -242q-305 0 -461 162.5t-156 447.5zM315 556q0 -205 106.5 -317.5t316.5 -112.5
q220 0 386 183.5t166 568.5q0 205 -106.5 317.5t-316.5 112.5q-220 0 -386 -183.5t-166 -568.5z" />
    <glyph glyph-name="Oacute" unicode="&#xd3;" horiz-adv-x="1514" 
d="M110 580q0 400 214 642t554 242q305 0 461 -162.5t156 -447.5q0 -400 -214 -642t-554 -242q-305 0 -461 162.5t-156 447.5zM315 556q0 -205 106.5 -317.5t316.5 -112.5q220 0 386 183.5t166 568.5q0 205 -106.5 317.5t-316.5 112.5q-220 0 -386 -183.5t-166 -568.5z
M838 1540q-57 0 -4 53l155 155q37 37 86 37h169q77 0 7 -52l-221 -164q-40 -29 -86 -29h-106z" />
    <glyph glyph-name="Ocircumflex" unicode="&#xd4;" horiz-adv-x="1514" 
d="M539 1589q-8 32 38 51l248 104q43 18 68 18h70q25 0 60 -18l234 -122q35 -19 14 -51l-28 -41q-21 -32 -59 -13l-257 132h-2l-319 -132q-45 -19 -53 13zM110 580q0 400 214 642t554 242q305 0 461 -162.5t156 -447.5q0 -400 -214 -642t-554 -242q-305 0 -461 162.5
t-156 447.5zM315 556q0 -205 106.5 -317.5t316.5 -112.5q220 0 386 183.5t166 568.5q0 205 -106.5 317.5t-316.5 112.5q-220 0 -386 -183.5t-166 -568.5z" />
    <glyph glyph-name="Otilde" unicode="&#xd5;" horiz-adv-x="1514" 
d="M563 1575q-23 13 -9 45q28 65 85.5 108t146.5 43q75 0 159 -49t128 -49q48 0 81 27t49 52q19 29 38 18l42 -25q23 -13 9 -45q-28 -65 -85.5 -108t-146.5 -43q-75 0 -159 49t-128 49q-48 0 -81 -27t-49 -52q-19 -29 -38 -18zM110 580q0 400 214 642t554 242
q305 0 461 -162.5t156 -447.5q0 -400 -214 -642t-554 -242q-305 0 -461 162.5t-156 447.5zM315 556q0 -205 106.5 -317.5t316.5 -112.5q220 0 386 183.5t166 568.5q0 205 -106.5 317.5t-316.5 112.5q-220 0 -386 -183.5t-166 -568.5z" />
    <glyph glyph-name="Odieresis" unicode="&#xd6;" horiz-adv-x="1514" 
d="M110 580q0 400 214 642t554 242q305 0 461 -162.5t156 -447.5q0 -400 -214 -642t-554 -242q-305 0 -461 162.5t-156 447.5zM315 556q0 -205 106.5 -317.5t316.5 -112.5q220 0 386 183.5t166 568.5q0 205 -106.5 317.5t-316.5 112.5q-220 0 -386 -183.5t-166 -568.5z
M610 1550q-45 0 -35 45l21 92q11 45 56 45h92q45 0 34 -45l-21 -92q-10 -45 -55 -45h-92zM1088 1550q-45 0 -35 45l21 92q11 45 56 45h92q45 0 34 -45l-21 -92q-10 -45 -55 -45h-92z" />
    <glyph glyph-name="multiply" unicode="&#xd7;" horiz-adv-x="1280" 
d="M272 347q-25 25 8 57l321 321l-321 321q-32 32 -8 56l36 36q25 25 56 -7l321 -321l323 322q32 32 56 7l36 -35q25 -25 -7 -57l-322 -322l322 -323q32 -32 7 -56l-36 -36q-25 -25 -56 7l-323 323l-321 -321q-32 -32 -56 -7z" />
    <glyph glyph-name="Oslash" unicode="&#xd8;" horiz-adv-x="1514" 
d="M110 580q0 400 214 642t554 242q307 0 464 -165l133 118q41 36 71 2l40 -45q30 -34 -11 -71l-146 -130q66 -134 66 -319q0 -400 -214 -642t-554 -242q-308 0 -464 166l-134 -119q-41 -36 -71 -2l-40 45q-30 34 11 71l147 131q-66 133 -66 318zM315 556q0 -85 18 -154
l869 772q-107 134 -335 134q-220 0 -386 -183.5t-166 -568.5zM403 260q107 -134 335 -134q220 0 386 183.5t166 568.5q0 86 -19 155z" />
    <glyph glyph-name="Ugrave" unicode="&#xd9;" horiz-adv-x="1402" 
d="M669 1733q-56 52 21 52h145q49 0 76 -37l111 -155q38 -53 -20 -53h-82q-46 0 -76 29zM176 547l192 832q13 55 63 55h92q50 0 37 -55l-185 -802q-64 -280 -5 -365.5t240 -85.5q146 0 262.5 85.5t180.5 365.5l185 802q13 55 63 55h92q50 0 37 -55l-192 -832
q-73 -317 -234 -447t-430 -130q-199 0 -335 130t-63 447z" />
    <glyph glyph-name="Uacute" unicode="&#xda;" horiz-adv-x="1402" 
d="M878 1540q-57 0 -4 53l155 155q37 37 86 37h169q77 0 7 -52l-221 -164q-40 -29 -86 -29h-106zM176 547l192 832q13 55 63 55h92q50 0 37 -55l-185 -802q-64 -280 -5 -365.5t240 -85.5q146 0 262.5 85.5t180.5 365.5l185 802q13 55 63 55h92q50 0 37 -55l-192 -832
q-73 -317 -234 -447t-430 -130q-199 0 -335 130t-63 447z" />
    <glyph glyph-name="Ucircumflex" unicode="&#xdb;" horiz-adv-x="1402" 
d="M579 1589q-8 32 38 51l248 104q43 18 68 18h70q25 0 60 -18l234 -122q35 -19 14 -51l-28 -41q-21 -32 -59 -13l-257 132h-2l-319 -132q-45 -19 -53 13zM176 547l192 832q13 55 63 55h92q50 0 37 -55l-185 -802q-64 -280 -5 -365.5t240 -85.5q146 0 262.5 85.5
t180.5 365.5l185 802q13 55 63 55h92q50 0 37 -55l-192 -832q-73 -317 -234 -447t-430 -130q-199 0 -335 130t-63 447z" />
    <glyph glyph-name="Udieresis" unicode="&#xdc;" horiz-adv-x="1402" 
d="M653 1550q-45 0 -35 45l21 92q11 45 56 45h92q45 0 34 -45l-21 -92q-10 -45 -55 -45h-92zM1131 1550q-45 0 -35 45l21 92q11 45 56 45h92q45 0 34 -45l-21 -92q-10 -45 -55 -45h-92zM176 547l192 832q13 55 63 55h92q50 0 37 -55l-185 -802q-64 -280 -5 -365.5t240 -85.5
q146 0 262.5 85.5t180.5 365.5l185 802q13 55 63 55h92q50 0 37 -55l-192 -832q-73 -317 -234 -447t-430 -130q-199 0 -335 130t-63 447z" />
    <glyph glyph-name="Yacute" unicode="&#xdd;" horiz-adv-x="1302" 
d="M828 1540q-57 0 -4 53l155 155q37 37 86 37h169q77 0 7 -52l-221 -164q-40 -29 -86 -29h-106zM250 1368q-27 66 42 66h93q44 0 61 -49l156 -437q14 -40 37.5 -109.5t37.5 -129.5h4q42 60 82.5 112t102.5 127l358 437q40 49 83 49h125q70 0 12 -66l-681 -778l-123 -535
q-13 -55 -63 -55h-92q-50 0 -37 55l123 535z" />
    <glyph glyph-name="Thorn" unicode="&#xde;" horiz-adv-x="1233" 
d="M98 -8q-50 0 -37 55l308 1333q13 55 62 55h92q51 0 38 -55l-47 -204h198q284 0 383 -109t99 -259q0 -214 -165 -343t-491 -129h-218l-67 -289q-13 -55 -63 -55h-92zM357 500h236q187 0 291.5 78t104.5 210q0 122 -73.5 173t-243.5 51h-196z" />
    <glyph glyph-name="germandbls" unicode="&#xdf;" horiz-adv-x="1216" 
d="M-25 -400q-45 0 -35 45l345 1494q47 202 182.5 278t321.5 76q183 0 268 -83.5t85 -206.5q0 -137 -88 -229t-260 -187l-1 -3q163 -26 228 -132t65 -230q0 -177 -135 -308t-326 -131q-96 0 -152 13.5t-99 51.5q-22 19 1 54l38 58q22 33 64 -2q17 -14 59 -29.5t95 -15.5
q101 0 185 86t84 213q0 161 -75 211t-203 50q-12 0 -14 25l-10 114q-2 20 22 33l92 49q94 50 174 122.5t80 171.5q0 87 -40 131t-152 44q-102 0 -194.5 -55t-125.5 -198l-338 -1465q-10 -45 -55 -45h-86z" />
    <glyph glyph-name="agrave" unicode="&#xe0;" horiz-adv-x="1099" 
d="M468 1383q-38 52 22 52h101q54 0 75 -37l112 -195q30 -53 -19 -53h-64q-56 0 -77 29zM66 339q0 275 186.5 501.5t391.5 226.5q90 0 148 -37.5t86 -87.5h2l21 63q15 45 49 45h84q45 0 35 -45l-222 -960q-10 -45 -55 -45h-81q-44 0 -35 45l25 120h-2q-49 -65 -130.5 -123.5
t-181.5 -58.5q-145 0 -233 87.5t-88 268.5zM252 332q0 -66 35.5 -142.5t145.5 -76.5q90 0 199 119t139 248l67 290q0 90 -57.5 128.5t-142.5 38.5q-140 0 -263 -179.5t-123 -425.5z" />
    <glyph glyph-name="aacute" unicode="&#xe1;" horiz-adv-x="1099" 
d="M584 1150q-50 0 -5 53l166 195q32 37 87 37h121q59 0 6 -52l-206 -204q-30 -29 -85 -29h-84zM66 339q0 275 186.5 501.5t391.5 226.5q90 0 148 -37.5t86 -87.5h2l21 63q15 45 49 45h84q45 0 35 -45l-222 -960q-10 -45 -55 -45h-81q-44 0 -35 45l25 120h-2
q-49 -65 -130.5 -123.5t-181.5 -58.5q-145 0 -233 87.5t-88 268.5zM252 332q0 -66 35.5 -142.5t145.5 -76.5q90 0 199 119t139 248l67 290q0 90 -57.5 128.5t-142.5 38.5q-140 0 -263 -179.5t-123 -425.5z" />
    <glyph glyph-name="acircumflex" unicode="&#xe2;" horiz-adv-x="1099" 
d="M374 1190q-17 26 25 55l234 163q37 26 62 26h50q25 0 50 -26l174 -179q28 -29 -1 -55l-25 -23q-29 -27 -57 2l-172 179h-2l-256 -179q-40 -28 -57 -2zM66 339q0 275 186.5 501.5t391.5 226.5q90 0 148 -37.5t86 -87.5h2l21 63q15 45 49 45h84q45 0 35 -45l-222 -960
q-10 -45 -55 -45h-81q-44 0 -35 45l25 120h-2q-49 -65 -130.5 -123.5t-181.5 -58.5q-145 0 -233 87.5t-88 268.5zM252 332q0 -66 35.5 -142.5t145.5 -76.5q90 0 199 119t139 248l67 290q0 90 -57.5 128.5t-142.5 38.5q-140 0 -263 -179.5t-123 -425.5z" />
    <glyph glyph-name="atilde" unicode="&#xe3;" horiz-adv-x="1099" 
d="M383 1175q-22 10 -12 44q21 71 71.5 116t130.5 45q68 0 138 -55t109 -55q43 0 64 22t37 60q13 30 37 20l39 -17q22 -10 12 -44q-21 -71 -71.5 -116t-130.5 -45q-68 0 -138 55t-109 55q-43 0 -64 -22t-37 -60q-13 -30 -37 -20zM66 339q0 275 186.5 501.5t391.5 226.5
q90 0 148 -37.5t86 -87.5h2l21 63q15 45 49 45h84q45 0 35 -45l-222 -960q-10 -45 -55 -45h-81q-44 0 -35 45l25 120h-2q-49 -65 -130.5 -123.5t-181.5 -58.5q-145 0 -233 87.5t-88 268.5zM252 332q0 -66 35.5 -142.5t145.5 -76.5q90 0 199 119t139 248l67 290
q0 90 -57.5 128.5t-142.5 38.5q-140 0 -263 -179.5t-123 -425.5z" />
    <glyph glyph-name="adieresis" unicode="&#xe4;" horiz-adv-x="1099" 
d="M66 339q0 275 186.5 501.5t391.5 226.5q90 0 148 -37.5t86 -87.5h2l21 63q15 45 49 45h84q45 0 35 -45l-222 -960q-10 -45 -55 -45h-81q-44 0 -35 45l25 120h-2q-49 -65 -130.5 -123.5t-181.5 -58.5q-145 0 -233 87.5t-88 268.5zM252 332q0 -66 35.5 -142.5t145.5 -76.5
q90 0 199 119t139 248l67 290q0 90 -57.5 128.5t-142.5 38.5q-140 0 -263 -179.5t-123 -425.5zM441 1240q-45 0 -34 45l20 86q10 45 55 45h86q45 0 35 -45l-20 -86q-11 -45 -56 -45h-86zM847 1240q-45 0 -34 45l20 86q10 45 55 45h86q45 0 35 -45l-20 -86q-11 -45 -56 -45
h-86z" />
    <glyph glyph-name="aring" unicode="&#xe5;" horiz-adv-x="1099" 
d="M479 1313q0 75 52.5 127.5t127.5 52.5t127.5 -52.5t52.5 -127.5t-52.5 -127.5t-127.5 -52.5t-127.5 52.5t-52.5 127.5zM555 1313q0 -44 30 -74t74 -30t74 30t30 74t-30 74t-74 30t-74 -30t-30 -74zM66 339q0 275 186.5 501.5t391.5 226.5q90 0 148 -37.5t86 -87.5h2
l21 63q15 45 49 45h84q45 0 35 -45l-222 -960q-10 -45 -55 -45h-81q-44 0 -35 45l25 120h-2q-49 -65 -130.5 -123.5t-181.5 -58.5q-145 0 -233 87.5t-88 268.5zM252 332q0 -66 35.5 -142.5t145.5 -76.5q90 0 199 119t139 248l67 290q0 90 -57.5 128.5t-142.5 38.5
q-140 0 -263 -179.5t-123 -425.5z" />
    <glyph glyph-name="ae" unicode="&#xe6;" horiz-adv-x="1698" 
d="M35 220q0 182 165.5 290t564.5 128l16 68q25 106 -10.5 168.5t-156.5 62.5q-92 0 -155 -24.5t-134 -92.5q-29 -28 -51 -3l-47 55q-24 28 15 60q88 72 196 103.5t192 31.5q106 0 180 -31.5t111 -112.5h2q39 40 133 92t236 52q154 0 240 -92.5t86 -196.5
q0 -142 -117.5 -212.5t-361.5 -120.5l-224 -46q-6 -38 -6 -40q0 -103 55 -174t173 -71q98 0 167.5 45t92.5 73q37 45 63 21l56 -51q23 -21 -6 -56q-31 -38 -121 -100.5t-276 -62.5q-117 0 -205.5 48t-132.5 151h-2q-94 -92 -204 -145.5t-206 -53.5q-187 0 -257.5 63.5
t-70.5 173.5zM217 242q0 -62 36.5 -93t124.5 -31q100 0 191.5 41.5t164.5 118.5q-25 100 5 229q-325 -21 -423.5 -95t-98.5 -170zM920 538l183 37q200 40 269.5 82.5t69.5 128.5q0 68 -44.5 109.5t-138.5 41.5q-107 0 -201 -92t-138 -307z" />
    <glyph glyph-name="ccedilla" unicode="&#xe7;" horiz-adv-x="1026" 
d="M68 402q0 265 163.5 465t428.5 200q162 0 231 -56.5t100 -124.5q16 -36 -14 -52l-66 -35q-34 -18 -53 25q-14 32 -64 72.5t-147 40.5q-156 0 -274.5 -140t-118.5 -410q0 -122 58.5 -198t188.5 -76q103 0 169 53.5t94 95.5q23 35 53 14l63 -46q29 -21 5 -55
q-29 -40 -127 -116t-270 -76q-234 0 -327 133.5t-93 285.5zM216 -395q-21 8 -11 36l13 38q11 32 40 17q24 -12 86 -12q48 0 79 19t31 52q0 25 -24.5 40.5t-73.5 15.5h-28q-22 0 -18 25q7 42 18 55l89 109q18 22 45 22h69q32 0 14 -22l-78 -96l-1 -3q67 -13 90 -43t23 -89
q0 -82 -70 -133.5t-168 -51.5q-69 0 -125 21z" />
    <glyph glyph-name="egrave" unicode="&#xe8;" horiz-adv-x="1078" 
d="M476 1383q-38 52 22 52h101q54 0 75 -37l112 -195q30 -53 -19 -53h-64q-56 0 -77 29zM68 396q0 300 156.5 485.5t427.5 185.5q155 0 250.5 -88.5t95.5 -200.5q0 -148 -141.5 -218t-350.5 -112l-246 -49q-6 -38 -6 -40q0 -99 54 -172t189 -73q115 0 185 42t95 76
q35 47 63 21l59 -51q19 -17 -6 -56q-23 -36 -124 -99.5t-296 -63.5q-213 0 -309 123.5t-96 289.5zM265 538l205 40q140 27 246 74.5t106 133.5q0 68 -61.5 109.5t-141.5 41.5q-121 0 -215.5 -92t-138.5 -307z" />
    <glyph glyph-name="eacute" unicode="&#xe9;" horiz-adv-x="1078" 
d="M592 1150q-50 0 -5 53l166 195q32 37 87 37h121q59 0 6 -52l-206 -204q-30 -29 -85 -29h-84zM68 396q0 300 156.5 485.5t427.5 185.5q155 0 250.5 -88.5t95.5 -200.5q0 -148 -141.5 -218t-350.5 -112l-246 -49q-6 -38 -6 -40q0 -99 54 -172t189 -73q115 0 185 42t95 76
q35 47 63 21l59 -51q19 -17 -6 -56q-23 -36 -124 -99.5t-296 -63.5q-213 0 -309 123.5t-96 289.5zM265 538l205 40q140 27 246 74.5t106 133.5q0 68 -61.5 109.5t-141.5 41.5q-121 0 -215.5 -92t-138.5 -307z" />
    <glyph glyph-name="ecircumflex" unicode="&#xea;" horiz-adv-x="1078" 
d="M382 1190q-17 26 25 55l234 163q37 26 62 26h50q25 0 50 -26l174 -179q28 -29 -1 -55l-25 -23q-29 -27 -57 2l-172 179h-2l-256 -179q-40 -28 -57 -2zM68 396q0 300 156.5 485.5t427.5 185.5q155 0 250.5 -88.5t95.5 -200.5q0 -148 -141.5 -218t-350.5 -112l-246 -49
q-6 -38 -6 -40q0 -99 54 -172t189 -73q115 0 185 42t95 76q35 47 63 21l59 -51q19 -17 -6 -56q-23 -36 -124 -99.5t-296 -63.5q-213 0 -309 123.5t-96 289.5zM265 538l205 40q140 27 246 74.5t106 133.5q0 68 -61.5 109.5t-141.5 41.5q-121 0 -215.5 -92t-138.5 -307z" />
    <glyph glyph-name="edieresis" unicode="&#xeb;" horiz-adv-x="1078" 
d="M449 1240q-45 0 -34 45l20 86q10 45 55 45h86q45 0 35 -45l-20 -86q-11 -45 -56 -45h-86zM855 1240q-45 0 -34 45l20 86q10 45 55 45h86q45 0 35 -45l-20 -86q-11 -45 -56 -45h-86zM68 396q0 300 156.5 485.5t427.5 185.5q155 0 250.5 -88.5t95.5 -200.5
q0 -148 -141.5 -218t-350.5 -112l-246 -49q-6 -38 -6 -40q0 -99 54 -172t189 -73q115 0 185 42t95 76q35 47 63 21l59 -51q19 -17 -6 -56q-23 -36 -124 -99.5t-296 -63.5q-213 0 -309 123.5t-96 289.5zM265 538l205 40q140 27 246 74.5t106 133.5q0 68 -61.5 109.5
t-141.5 41.5q-121 0 -215.5 -92t-138.5 -307z" />
    <glyph glyph-name="eth" unicode="&#xf0;" horiz-adv-x="1153" 
d="M68 402q0 252 168.5 450t413.5 198q97 0 172 -31.5t120 -115.5h4q-13 114 -75 206t-100 132l-174 -71q-42 -17 -55 16l-19 47q-13 32 29 49l112 46q-35 23 -74 42q-44 22 -20 55l36 49q22 30 62 10q83 -42 148 -94l159 64q42 17 55 -16l19 -47q13 -32 -29 -49l-108 -44
q55 -64 122.5 -202.5t67.5 -343.5q0 -360 -174.5 -564.5t-439.5 -204.5q-215 0 -317.5 116.5t-102.5 302.5zM254 387q0 -144 61 -209t186 -65q147 0 278 143t131 394q0 107 -61.5 188.5t-191.5 81.5q-156 0 -279.5 -137.5t-123.5 -395.5z" />
    <glyph glyph-name="ntilde" unicode="&#xf1;" horiz-adv-x="1128" 
d="M430 1175q-22 10 -12 44q21 71 71.5 116t130.5 45q68 0 138 -55t109 -55q43 0 64 22t37 60q13 30 37 20l39 -17q22 -10 12 -44q-21 -71 -71.5 -116t-130.5 -45q-68 0 -138 55t-109 55q-43 0 -64 -22t-37 -60q-13 -30 -37 -20zM67 0q-45 0 -35 45l222 960q10 45 55 45h84
q45 0 35 -45l-27 -120h4q59 73 153.5 127.5t214.5 54.5q170 0 232 -102.5t21 -280.5l-148 -639q-10 -45 -55 -45h-86q-45 0 -35 45l137 591q45 196 -3 248.5t-158 52.5q-120 0 -218.5 -116.5t-133.5 -266.5l-118 -509q-10 -45 -55 -45h-86z" />
    <glyph glyph-name="ograve" unicode="&#xf2;" horiz-adv-x="1148" 
d="M484 1383q-38 52 22 52h101q54 0 75 -37l112 -195q30 -53 -19 -53h-64q-56 0 -77 29zM68 402q0 264 163.5 464.5t428.5 200.5q234 0 327 -134.5t93 -284.5q0 -264 -163.5 -464.5t-428.5 -200.5q-234 0 -327 134.5t-93 284.5zM254 387q0 -125 58.5 -199.5t188.5 -74.5
q156 0 274.5 141.5t118.5 408.5q0 125 -58.5 199.5t-188.5 74.5q-156 0 -274.5 -141.5t-118.5 -408.5z" />
    <glyph glyph-name="oacute" unicode="&#xf3;" horiz-adv-x="1148" 
d="M68 402q0 264 163.5 464.5t428.5 200.5q234 0 327 -134.5t93 -284.5q0 -264 -163.5 -464.5t-428.5 -200.5q-234 0 -327 134.5t-93 284.5zM254 387q0 -125 58.5 -199.5t188.5 -74.5q156 0 274.5 141.5t118.5 408.5q0 125 -58.5 199.5t-188.5 74.5q-156 0 -274.5 -141.5
t-118.5 -408.5zM600 1150q-50 0 -5 53l166 195q32 37 87 37h121q59 0 6 -52l-206 -204q-30 -29 -85 -29h-84z" />
    <glyph glyph-name="ocircumflex" unicode="&#xf4;" horiz-adv-x="1148" 
d="M390 1190q-17 26 25 55l234 163q37 26 62 26h50q25 0 50 -26l174 -179q28 -29 -1 -55l-25 -23q-29 -27 -57 2l-172 179h-2l-256 -179q-40 -28 -57 -2zM68 402q0 264 163.5 464.5t428.5 200.5q234 0 327 -134.5t93 -284.5q0 -264 -163.5 -464.5t-428.5 -200.5
q-234 0 -327 134.5t-93 284.5zM254 387q0 -125 58.5 -199.5t188.5 -74.5q156 0 274.5 141.5t118.5 408.5q0 125 -58.5 199.5t-188.5 74.5q-156 0 -274.5 -141.5t-118.5 -408.5z" />
    <glyph glyph-name="otilde" unicode="&#xf5;" horiz-adv-x="1148" 
d="M399 1175q-22 10 -12 44q21 71 71.5 116t130.5 45q68 0 138 -55t109 -55q43 0 64 22t37 60q13 30 37 20l39 -17q22 -10 12 -44q-21 -71 -71.5 -116t-130.5 -45q-68 0 -138 55t-109 55q-43 0 -64 -22t-37 -60q-13 -30 -37 -20zM68 402q0 264 163.5 464.5t428.5 200.5
q234 0 327 -134.5t93 -284.5q0 -264 -163.5 -464.5t-428.5 -200.5q-234 0 -327 134.5t-93 284.5zM254 387q0 -125 58.5 -199.5t188.5 -74.5q156 0 274.5 141.5t118.5 408.5q0 125 -58.5 199.5t-188.5 74.5q-156 0 -274.5 -141.5t-118.5 -408.5z" />
    <glyph glyph-name="odieresis" unicode="&#xf6;" horiz-adv-x="1148" 
d="M68 402q0 264 163.5 464.5t428.5 200.5q234 0 327 -134.5t93 -284.5q0 -264 -163.5 -464.5t-428.5 -200.5q-234 0 -327 134.5t-93 284.5zM254 387q0 -125 58.5 -199.5t188.5 -74.5q156 0 274.5 141.5t118.5 408.5q0 125 -58.5 199.5t-188.5 74.5q-156 0 -274.5 -141.5
t-118.5 -408.5zM474 1240q-45 0 -34 45l20 86q10 45 55 45h86q45 0 35 -45l-20 -86q-11 -45 -56 -45h-86zM880 1240q-45 0 -34 45l20 86q10 45 55 45h86q45 0 35 -45l-20 -86q-11 -45 -56 -45h-86z" />
    <glyph glyph-name="divide" unicode="&#xf7;" horiz-adv-x="1280" 
d="M172 665q-45 0 -45 35v50q0 35 45 35h1030q45 0 45 -35v-50q0 -35 -45 -35h-1030zM631 1003q-45 0 -45 45v122q0 45 45 45h112q45 0 45 -45v-122q0 -45 -45 -45h-112zM631 235q-45 0 -45 45v122q0 45 45 45h112q45 0 45 -45v-122q0 -45 -45 -45h-112z" />
    <glyph glyph-name="oslash" unicode="&#xf8;" horiz-adv-x="1148" 
d="M68 402q0 264 163.5 464.5t428.5 200.5q216 0 311 -114l75 64q34 29 58 2l39 -44q23 -26 -11 -56l-93 -80q41 -92 41 -191q0 -264 -163.5 -464.5t-428.5 -200.5q-216 0 -311 114l-75 -64q-34 -29 -58 -2l-39 44q-23 26 11 56l93 80q-41 92 -41 191zM254 387q0 -25 2 -49
l591 508q-60 91 -200 91q-156 0 -274.5 -141.5t-118.5 -408.5zM301 204q60 -91 200 -91q156 0 274.5 141.5t118.5 408.5q0 26 -2 49z" />
    <glyph glyph-name="ugrave" unicode="&#xf9;" horiz-adv-x="1120" 
d="M509 1383q-38 52 22 52h101q54 0 75 -37l112 -195q30 -53 -19 -53h-64q-56 0 -77 29zM104 366l148 639q10 45 55 45h86q45 0 35 -45l-136 -591q-45 -197 3 -249t153 -52q147 0 230 116.5t118 266.5l118 509q10 45 55 45h86q45 0 35 -45l-222 -960q-10 -45 -55 -45h-84
q-45 0 -35 45l28 120h-4q-59 -73 -154.5 -127.5t-210.5 -54.5q-160 0 -225 102.5t-24 280.5z" />
    <glyph glyph-name="uacute" unicode="&#xfa;" horiz-adv-x="1120" 
d="M625 1150q-50 0 -5 53l166 195q32 37 87 37h121q59 0 6 -52l-206 -204q-30 -29 -85 -29h-84zM104 366l148 639q10 45 55 45h86q45 0 35 -45l-136 -591q-45 -197 3 -249t153 -52q147 0 230 116.5t118 266.5l118 509q10 45 55 45h86q45 0 35 -45l-222 -960q-10 -45 -55 -45
h-84q-45 0 -35 45l28 120h-4q-59 -73 -154.5 -127.5t-210.5 -54.5q-160 0 -225 102.5t-24 280.5z" />
    <glyph glyph-name="ucircumflex" unicode="&#xfb;" horiz-adv-x="1120" 
d="M415 1190q-17 26 25 55l234 163q37 26 62 26h50q25 0 50 -26l174 -179q28 -29 -1 -55l-25 -23q-29 -27 -57 2l-172 179h-2l-256 -179q-40 -28 -57 -2zM104 366l148 639q10 45 55 45h86q45 0 35 -45l-136 -591q-45 -197 3 -249t153 -52q147 0 230 116.5t118 266.5l118 509
q10 45 55 45h86q45 0 35 -45l-222 -960q-10 -45 -55 -45h-84q-45 0 -35 45l28 120h-4q-59 -73 -154.5 -127.5t-210.5 -54.5q-160 0 -225 102.5t-24 280.5z" />
    <glyph glyph-name="udieresis" unicode="&#xfc;" horiz-adv-x="1120" 
d="M478 1240q-45 0 -34 45l20 86q10 45 55 45h86q45 0 35 -45l-20 -86q-11 -45 -56 -45h-86zM884 1240q-45 0 -34 45l20 86q10 45 55 45h86q45 0 35 -45l-20 -86q-11 -45 -56 -45h-86zM104 366l148 639q10 45 55 45h86q45 0 35 -45l-136 -591q-45 -197 3 -249t153 -52
q147 0 230 116.5t118 266.5l118 509q10 45 55 45h86q45 0 35 -45l-222 -960q-10 -45 -55 -45h-84q-45 0 -35 45l28 120h-4q-59 -73 -154.5 -127.5t-210.5 -54.5q-160 0 -225 102.5t-24 280.5z" />
    <glyph glyph-name="yacute" unicode="&#xfd;" horiz-adv-x="1128" 
d="M631 1150q-50 0 -5 53l166 195q32 37 87 37h121q59 0 6 -52l-206 -204q-30 -29 -85 -29h-84zM106 366l148 639q10 45 55 45h86q45 0 35 -45l-136 -591q-45 -197 2.5 -249t157.5 -52q106 0 211.5 113.5t141.5 269.5l117 509q10 45 55 45h86q45 0 35 -45l-234 -1014
q-47 -205 -158 -306.5t-374 -101.5q-171 0 -236 33t-98 78q-29 40 2 68l56 52q32 29 50 0q30 -48 87 -74.5t170 -26.5q121 0 206.5 68.5t122.5 228.5q23 102 37 155h-4q-59 -73 -150 -127.5t-218 -54.5q-170 0 -232 102.5t-21 280.5z" />
    <glyph glyph-name="thorn" unicode="&#xfe;" horiz-adv-x="1119" 
d="M-25 -400q-45 0 -35 45l412 1786q10 45 55 45h86q45 0 35 -45l-112 -485q-7 -29 -16 -61h2q44 79 137 130.5t173 51.5q190 0 264.5 -116.5t74.5 -279.5q0 -255 -161 -471.5t-379 -216.5q-111 0 -173 33.5t-113 101.5h-2q-4 -28 -12 -61l-95 -412q-10 -45 -55 -45h-86z
M265 290q10 -100 65 -138.5t167 -38.5q152 0 260 169.5t108 395.5q0 104 -45 181.5t-158 77.5q-98 0 -199.5 -117.5t-132.5 -249.5z" />
    <glyph glyph-name="ydieresis" unicode="&#xff;" horiz-adv-x="1128" 
d="M484 1240q-45 0 -34 45l20 86q10 45 55 45h86q45 0 35 -45l-20 -86q-11 -45 -56 -45h-86zM890 1240q-45 0 -34 45l20 86q10 45 55 45h86q45 0 35 -45l-20 -86q-11 -45 -56 -45h-86zM106 366l148 639q10 45 55 45h86q45 0 35 -45l-136 -591q-45 -197 2.5 -249t157.5 -52
q106 0 211.5 113.5t141.5 269.5l117 509q10 45 55 45h86q45 0 35 -45l-234 -1014q-47 -205 -158 -306.5t-374 -101.5q-171 0 -236 33t-98 78q-29 40 2 68l56 52q32 29 50 0q30 -48 87 -74.5t170 -26.5q121 0 206.5 68.5t122.5 228.5q23 102 37 155h-4q-59 -73 -150 -127.5
t-218 -54.5q-170 0 -232 102.5t-21 280.5z" />
    <glyph glyph-name="Amacron" unicode="&#x100;" horiz-adv-x="1360" 
d="M570 1558q-45 0 -36 40l11 50q10 40 55 40h640q45 0 35 -40l-11 -50q-9 -40 -54 -40h-640zM-47 0q-51 0 -12 66l770 1307q36 61 80 61h140q41 0 52 -61l226 -1307q11 -66 -42 -66h-91q-53 0 -61 49l-57 331h-615l-195 -331q-29 -49 -83 -49h-112zM441 544h488l-70 400
q-13 72 -21 157.5t-8 159.5h-4q-18 -71 -56 -145t-95 -172z" />
    <glyph glyph-name="amacron" unicode="&#x101;" horiz-adv-x="1099" 
d="M420 1240q-45 0 -37 35l10 40q8 35 53 35h528q45 0 37 -35l-10 -40q-8 -35 -53 -35h-528zM66 339q0 275 186.5 501.5t391.5 226.5q90 0 148 -37.5t86 -87.5h2l21 63q15 45 49 45h84q45 0 35 -45l-222 -960q-10 -45 -55 -45h-81q-44 0 -35 45l25 120h-2
q-49 -65 -130.5 -123.5t-181.5 -58.5q-145 0 -233 87.5t-88 268.5zM252 332q0 -66 35.5 -142.5t145.5 -76.5q90 0 199 119t139 248l67 290q0 90 -57.5 128.5t-142.5 38.5q-140 0 -263 -179.5t-123 -425.5z" />
    <glyph glyph-name="Abreve" unicode="&#x102;" horiz-adv-x="1360" 
d="M589 1784q-14 48 21 58l52 15q34 10 50 -28q26 -60 69.5 -95.5t141.5 -35.5q84 0 154.5 45t111.5 96q26 32 57 13l45 -28q31 -20 5 -62q-66 -108 -174.5 -161t-215.5 -53q-111 0 -196.5 57t-120.5 179zM-47 0q-51 0 -12 66l770 1307q36 61 80 61h140q41 0 52 -61
l226 -1307q11 -66 -42 -66h-91q-53 0 -61 49l-57 331h-615l-195 -331q-29 -49 -83 -49h-112zM441 544h488l-70 400q-13 72 -21 157.5t-8 159.5h-4q-18 -71 -56 -145t-95 -172z" />
    <glyph glyph-name="abreve" unicode="&#x103;" horiz-adv-x="1099" 
d="M405 1370q-15 41 18 53l48 18q31 11 44 -22q27 -67 62 -105t112 -38q90 0 144.5 42.5t93.5 103.5q19 31 46 15l45 -27q31 -18 8 -55q-64 -112 -160.5 -160.5t-195.5 -48.5q-106 0 -164 52t-101 172zM66 339q0 275 186.5 501.5t391.5 226.5q90 0 148 -37.5t86 -87.5h2
l21 63q15 45 49 45h84q45 0 35 -45l-222 -960q-10 -45 -55 -45h-81q-44 0 -35 45l25 120h-2q-49 -65 -130.5 -123.5t-181.5 -58.5q-145 0 -233 87.5t-88 268.5zM252 332q0 -66 35.5 -142.5t145.5 -76.5q90 0 199 119t139 248l67 290q0 90 -57.5 128.5t-142.5 38.5
q-140 0 -263 -179.5t-123 -425.5z" />
    <glyph glyph-name="aogonek" unicode="&#x105;" horiz-adv-x="1099" 
d="M66 339q0 275 186.5 501.5t391.5 226.5q90 0 148 -37.5t86 -87.5h2l21 63q15 45 49 45h84q45 0 35 -45l-222 -960q-7 -30 -27 -45q-94 -70 -166.5 -128t-72.5 -105q0 -27 15 -40.5t51 -13.5q43 0 73 6q25 5 27 -22l6 -77q2 -24 -18 -28q-58 -9 -118 -9q-100 0 -148 37.5
t-48 95.5q0 52 17.5 93.5t63.5 80t147 104.5q19 13 27 51l25 120h-2q-49 -65 -130.5 -123.5t-181.5 -58.5q-145 0 -233 87.5t-88 268.5zM252 332q0 -66 35.5 -142.5t145.5 -76.5q90 0 199 119t139 248l67 290q0 90 -57.5 128.5t-142.5 38.5q-140 0 -263 -179.5t-123 -425.5z
" />
    <glyph glyph-name="Cacute" unicode="&#x106;" horiz-adv-x="1392" 
d="M868 1540q-57 0 -4 53l155 155q37 37 86 37h169q77 0 7 -52l-221 -164q-40 -29 -86 -29h-106zM110 580q0 395 210.5 639.5t587.5 244.5q184 0 298 -64t161 -170q23 -53 -23 -80l-78 -46q-27 -16 -52 28q-30 54 -109 115t-214 61q-250 0 -413 -183t-163 -568
q0 -182 96 -306.5t326 -124.5q136 0 230.5 71.5t146.5 143.5q42 58 78 35l90 -58q33 -21 -8 -80q-79 -115 -213 -191.5t-351 -76.5q-302 0 -451 172.5t-149 437.5z" />
    <glyph glyph-name="cacute" unicode="&#x107;" horiz-adv-x="1026" 
d="M600 1150q-50 0 -5 53l166 195q32 37 87 37h121q59 0 6 -52l-206 -204q-30 -29 -85 -29h-84zM68 402q0 265 163.5 465t428.5 200q162 0 231 -56.5t100 -124.5q16 -36 -14 -52l-66 -35q-34 -18 -53 25q-14 32 -64 72.5t-147 40.5q-156 0 -274.5 -140t-118.5 -410
q0 -122 58.5 -198t188.5 -76q103 0 169 53.5t94 95.5q23 35 53 14l63 -46q29 -21 5 -55q-29 -40 -127 -116t-270 -76q-234 0 -327 133.5t-93 285.5z" />
    <glyph glyph-name="Ccircumflex" unicode="&#x108;" horiz-adv-x="1392" 
d="M569 1589q-8 32 38 51l248 104q43 18 68 18h70q25 0 60 -18l234 -122q35 -19 14 -51l-28 -41q-21 -32 -59 -13l-257 132h-2l-319 -132q-45 -19 -53 13zM110 580q0 395 210.5 639.5t587.5 244.5q184 0 298 -64t161 -170q23 -53 -23 -80l-78 -46q-27 -16 -52 28
q-30 54 -109 115t-214 61q-250 0 -413 -183t-163 -568q0 -182 96 -306.5t326 -124.5q136 0 230.5 71.5t146.5 143.5q42 58 78 35l90 -58q33 -21 -8 -80q-79 -115 -213 -191.5t-351 -76.5q-302 0 -451 172.5t-149 437.5z" />
    <glyph glyph-name="ccircumflex" unicode="&#x109;" horiz-adv-x="1026" 
d="M390 1190q-17 26 25 55l234 163q37 26 62 26h50q25 0 50 -26l174 -179q28 -29 -1 -55l-25 -23q-29 -27 -57 2l-172 179h-2l-256 -179q-40 -28 -57 -2zM68 402q0 265 163.5 465t428.5 200q162 0 231 -56.5t100 -124.5q16 -36 -14 -52l-66 -35q-34 -18 -53 25
q-14 32 -64 72.5t-147 40.5q-156 0 -274.5 -140t-118.5 -410q0 -122 58.5 -198t188.5 -76q103 0 169 53.5t94 95.5q23 35 53 14l63 -46q29 -21 5 -55q-29 -40 -127 -116t-270 -76q-234 0 -327 133.5t-93 285.5z" />
    <glyph glyph-name="Cdotaccent" unicode="&#x10a;" horiz-adv-x="1392" 
d="M876 1545q-45 0 -35 45l24 102q10 45 55 45h102q45 0 35 -45l-24 -102q-10 -45 -55 -45h-102zM110 580q0 395 210.5 639.5t587.5 244.5q184 0 298 -64t161 -170q23 -53 -23 -80l-78 -46q-27 -16 -52 28q-30 54 -109 115t-214 61q-250 0 -413 -183t-163 -568
q0 -182 96 -306.5t326 -124.5q136 0 230.5 71.5t146.5 143.5q42 58 78 35l90 -58q33 -21 -8 -80q-79 -115 -213 -191.5t-351 -76.5q-302 0 -451 172.5t-149 437.5z" />
    <glyph glyph-name="cdotaccent" unicode="&#x10b;" horiz-adv-x="1026" 
d="M656 1240q-45 0 -34 45l20 86q10 45 55 45h86q45 0 35 -45l-20 -86q-11 -45 -56 -45h-86zM68 402q0 265 163.5 465t428.5 200q162 0 231 -56.5t100 -124.5q16 -36 -14 -52l-66 -35q-34 -18 -53 25q-14 32 -64 72.5t-147 40.5q-156 0 -274.5 -140t-118.5 -410
q0 -122 58.5 -198t188.5 -76q103 0 169 53.5t94 95.5q23 35 53 14l63 -46q29 -21 5 -55q-29 -40 -127 -116t-270 -76q-234 0 -327 133.5t-93 285.5z" />
    <glyph glyph-name="Ccaron" unicode="&#x10c;" horiz-adv-x="1392" 
d="M608 1650q-35 19 -14 51l28 41q21 32 59 13l257 -132h2l319 132q45 19 53 -13l14 -59q8 -32 -38 -51l-248 -104q-43 -18 -68 -18h-70q-25 0 -60 18zM110 580q0 395 210.5 639.5t587.5 244.5q184 0 298 -64t161 -170q23 -53 -23 -80l-78 -46q-27 -16 -52 28
q-30 54 -109 115t-214 61q-250 0 -413 -183t-163 -568q0 -182 96 -306.5t326 -124.5q136 0 230.5 71.5t146.5 143.5q42 58 78 35l90 -58q33 -21 -8 -80q-79 -115 -213 -191.5t-351 -76.5q-302 0 -451 172.5t-149 437.5z" />
    <glyph glyph-name="ccaron" unicode="&#x10d;" horiz-adv-x="1026" 
d="M427 1343q-28 29 1 55l25 23q29 27 57 -2l172 -179h2l256 179q40 28 57 2l25 -39q17 -26 -25 -55l-234 -163q-37 -26 -62 -26h-50q-25 0 -50 26zM68 402q0 265 163.5 465t428.5 200q162 0 231 -56.5t100 -124.5q16 -36 -14 -52l-66 -35q-34 -18 -53 25q-14 32 -64 72.5
t-147 40.5q-156 0 -274.5 -140t-118.5 -410q0 -122 58.5 -198t188.5 -76q103 0 169 53.5t94 95.5q23 35 53 14l63 -46q29 -21 5 -55q-29 -40 -127 -116t-270 -76q-234 0 -327 133.5t-93 285.5z" />
    <glyph glyph-name="Dcaron" unicode="&#x10e;" horiz-adv-x="1406" 
d="M625 1650q-35 19 -14 51l28 41q21 32 59 13l257 -132h2l319 132q45 19 53 -13l14 -59q8 -32 -38 -51l-248 -104q-43 -18 -68 -18h-70q-25 0 -60 18zM100 0q-50 0 -37 55l305 1324q13 55 63 55h319q358 0 496 -175t138 -411q0 -340 -210 -594t-655 -254h-419zM280 164h268
q332 0 481.5 212t149.5 484q0 172 -81.5 292t-393.5 120h-168z" />
    <glyph glyph-name="dcaron" unicode="&#x10f;" horiz-adv-x="1346" 
d="M70 379q0 255 161 471.5t379 216.5q111 0 173 -33.5t113 -101.5h2q3 24 12 61l101 438q10 45 55 45h86q45 0 35 -45l-320 -1386q-10 -45 -55 -45h-84q-37 0 -29 45l22 120h-2q-44 -79 -137 -130.5t-173 -51.5q-190 0 -264.5 116.5t-74.5 279.5zM256 372q0 -104 45 -181.5
t158 -77.5q98 0 199.5 117.5t132.5 249.5l65 280q-10 100 -65 138.5t-167 38.5q-152 0 -260 -169.5t-108 -395.5zM1260 1156q-23 15 5 50q27 34 50 82t33 96l10 47q10 45 56 45h86q44 0 34 -45l-7 -32q-23 -105 -67 -166.5t-89 -96.5q-35 -27 -52 -17z" />
    <glyph glyph-name="Dcroat" unicode="&#x110;" horiz-adv-x="1446" 
d="M126 654q-55 0 -45 45l17 74q10 45 66 45h115l129 561q13 55 63 55h319q358 0 496 -175t138 -411q0 -340 -210 -594t-655 -254h-419q-50 0 -37 55l138 599h-115zM320 164h268q332 0 481.5 212t149.5 484q0 172 -81.5 292t-393.5 120h-168l-105 -454h321q55 0 44 -45
l-17 -74q-10 -45 -65 -45h-321z" />
    <glyph glyph-name="dcroat" unicode="&#x111;" horiz-adv-x="1156" 
d="M70 379q0 255 161 471.5t379 216.5q111 0 173 -33.5t113 -101.5h2q3 24 12 61l50 215h-308q-45 0 -37 35l14 62q8 35 53 35h308l21 91q10 45 55 45h86q45 0 35 -45l-21 -91h114q45 0 37 -35l-14 -62q-8 -35 -53 -35h-114l-269 -1163q-10 -45 -55 -45h-84q-37 0 -29 45
l22 120h-2q-44 -79 -137 -130.5t-173 -51.5q-190 0 -264.5 116.5t-74.5 279.5zM256 372q0 -104 45 -181.5t158 -77.5q98 0 199.5 117.5t132.5 249.5l65 280q-10 100 -65 138.5t-167 38.5q-152 0 -260 -169.5t-108 -395.5z" />
    <glyph glyph-name="Emacron" unicode="&#x112;" horiz-adv-x="1270" 
d="M595 1558q-45 0 -36 40l11 50q10 40 55 40h640q45 0 35 -40l-11 -50q-9 -40 -54 -40h-640zM100 0q-50 0 -37 55l305 1324q13 55 63 55h875q55 0 45 -45l-17 -74q-11 -45 -66 -45h-733l-102 -444h673q55 0 44 -45l-17 -74q-10 -45 -65 -45h-673l-115 -498h763q55 0 44 -45
l-17 -74q-10 -45 -65 -45h-905z" />
    <glyph glyph-name="emacron" unicode="&#x113;" horiz-adv-x="1078" 
d="M428 1240q-45 0 -37 35l10 40q8 35 53 35h528q45 0 37 -35l-10 -40q-8 -35 -53 -35h-528zM68 396q0 300 156.5 485.5t427.5 185.5q155 0 250.5 -88.5t95.5 -200.5q0 -148 -141.5 -218t-350.5 -112l-246 -49q-6 -38 -6 -40q0 -99 54 -172t189 -73q115 0 185 42t95 76
q35 47 63 21l59 -51q19 -17 -6 -56q-23 -36 -124 -99.5t-296 -63.5q-213 0 -309 123.5t-96 289.5zM265 538l205 40q140 27 246 74.5t106 133.5q0 68 -61.5 109.5t-141.5 41.5q-121 0 -215.5 -92t-138.5 -307z" />
    <glyph glyph-name="Ebreve" unicode="&#x114;" horiz-adv-x="1270" 
d="M614 1784q-14 48 21 58l52 15q34 10 50 -28q26 -60 69.5 -95.5t141.5 -35.5q84 0 154.5 45t111.5 96q26 32 57 13l45 -28q31 -20 5 -62q-66 -108 -174.5 -161t-215.5 -53q-111 0 -196.5 57t-120.5 179zM100 0q-50 0 -37 55l305 1324q13 55 63 55h875q55 0 45 -45l-17 -74
q-11 -45 -66 -45h-733l-102 -444h673q55 0 44 -45l-17 -74q-10 -45 -65 -45h-673l-115 -498h763q55 0 44 -45l-17 -74q-10 -45 -65 -45h-905z" />
    <glyph glyph-name="ebreve" unicode="&#x115;" horiz-adv-x="1078" 
d="M413 1370q-15 41 18 53l48 18q31 11 44 -22q27 -67 62 -105t112 -38q90 0 144.5 42.5t93.5 103.5q19 31 46 15l45 -27q31 -18 8 -55q-64 -112 -160.5 -160.5t-195.5 -48.5q-106 0 -164 52t-101 172zM68 396q0 300 156.5 485.5t427.5 185.5q155 0 250.5 -88.5t95.5 -200.5
q0 -148 -141.5 -218t-350.5 -112l-246 -49q-6 -38 -6 -40q0 -99 54 -172t189 -73q115 0 185 42t95 76q35 47 63 21l59 -51q19 -17 -6 -56q-23 -36 -124 -99.5t-296 -63.5q-213 0 -309 123.5t-96 289.5zM265 538l205 40q140 27 246 74.5t106 133.5q0 68 -61.5 109.5
t-141.5 41.5q-121 0 -215.5 -92t-138.5 -307z" />
    <glyph glyph-name="Edotaccent" unicode="&#x116;" horiz-adv-x="1270" 
d="M861 1545q-45 0 -35 45l24 102q10 45 55 45h102q45 0 35 -45l-24 -102q-10 -45 -55 -45h-102zM100 0q-50 0 -37 55l305 1324q13 55 63 55h875q55 0 45 -45l-17 -74q-11 -45 -66 -45h-733l-102 -444h673q55 0 44 -45l-17 -74q-10 -45 -65 -45h-673l-115 -498h763
q55 0 44 -45l-17 -74q-10 -45 -65 -45h-905z" />
    <glyph glyph-name="edotaccent" unicode="&#x117;" horiz-adv-x="1078" 
d="M648 1240q-45 0 -34 45l20 86q10 45 55 45h86q45 0 35 -45l-20 -86q-11 -45 -56 -45h-86zM68 396q0 300 156.5 485.5t427.5 185.5q155 0 250.5 -88.5t95.5 -200.5q0 -148 -141.5 -218t-350.5 -112l-246 -49q-6 -38 -6 -40q0 -99 54 -172t189 -73q115 0 185 42t95 76
q35 47 63 21l59 -51q19 -17 -6 -56q-23 -36 -124 -99.5t-296 -63.5q-213 0 -309 123.5t-96 289.5zM265 538l205 40q140 27 246 74.5t106 133.5q0 68 -61.5 109.5t-141.5 41.5q-121 0 -215.5 -92t-138.5 -307z" />
    <glyph glyph-name="Eogonek" unicode="&#x118;" horiz-adv-x="1270" 
d="M100 0q-50 0 -37 55l305 1324q13 55 63 55h875q55 0 45 -45l-17 -74q-10 -45 -66 -45h-733l-102 -444h673q54 0 44 -45l-17 -74q-10 -45 -65 -45h-673l-115 -498h763q54 0 44 -45l-17 -74q-10 -45 -65 -45h-7q-104 -70 -175 -128t-71 -105q0 -27 15 -40.5t51 -13.5
q43 0 73 6q25 5 27 -22l6 -77q2 -24 -18 -28q-58 -9 -118 -9q-100 0 -148 37.5t-48 95.5q0 52 17.5 93.5t62.5 82t146 106.5v4q-40 -2 -80 -2h-638z" />
    <glyph glyph-name="eogonek" unicode="&#x119;" horiz-adv-x="1078" 
d="M68 396q0 300 156.5 485.5t427.5 185.5q155 0 250.5 -88.5t95.5 -200.5q0 -148 -142 -218.5t-350 -111.5l-246 -49q-6 -38 -6 -40q0 -99 54 -172t189 -73q115 0 185 42t95 76q35 47 63 21l59 -51q20 -17 -6 -56q-20 -30 -83 -72.5t-109 -76.5q-12 -9 -125.5 -93
t-113.5 -137q0 -27 15 -40.5t51 -13.5q43 0 73 6q25 5 27 -22l6 -77q2 -24 -18 -28q-58 -9 -118 -9q-100 0 -148 37.5t-48 95.5q0 52 17.5 93.5t59 77t138.5 94.5v5q-26 -3 -44 -3q-213 0 -309 123.5t-96 289.5zM265 538l205 40q140 27 246 74.5t106 133.5q0 68 -61.5 109.5
t-141.5 41.5q-121 0 -215.5 -92t-138.5 -307z" />
    <glyph glyph-name="Ecaron" unicode="&#x11a;" horiz-adv-x="1270" 
d="M593 1650q-35 19 -14 51l28 41q21 32 59 13l257 -132h2l319 132q45 19 53 -13l14 -59q8 -32 -38 -51l-248 -104q-43 -18 -68 -18h-70q-25 0 -60 18zM100 0q-50 0 -37 55l305 1324q13 55 63 55h875q55 0 45 -45l-17 -74q-11 -45 -66 -45h-733l-102 -444h673q55 0 44 -45
l-17 -74q-10 -45 -65 -45h-673l-115 -498h763q55 0 44 -45l-17 -74q-10 -45 -65 -45h-905z" />
    <glyph glyph-name="ecaron" unicode="&#x11b;" horiz-adv-x="1078" 
d="M419 1343q-28 29 1 55l25 23q29 27 57 -2l172 -179h2l256 179q40 28 57 2l25 -39q17 -26 -25 -55l-234 -163q-37 -26 -62 -26h-50q-25 0 -50 26zM68 396q0 300 156.5 485.5t427.5 185.5q155 0 250.5 -88.5t95.5 -200.5q0 -148 -141.5 -218t-350.5 -112l-246 -49
q-6 -38 -6 -40q0 -99 54 -172t189 -73q115 0 185 42t95 76q35 47 63 21l59 -51q19 -17 -6 -56q-23 -36 -124 -99.5t-296 -63.5q-213 0 -309 123.5t-96 289.5zM265 538l205 40q140 27 246 74.5t106 133.5q0 68 -61.5 109.5t-141.5 41.5q-121 0 -215.5 -92t-138.5 -307z" />
    <glyph glyph-name="Gcircumflex" unicode="&#x11c;" horiz-adv-x="1470" 
d="M577 1589q-8 32 38 51l248 104q43 18 68 18h70q25 0 60 -18l234 -122q35 -19 14 -51l-28 -41q-21 -32 -59 -13l-257 132h-2l-319 -132q-45 -19 -53 13zM110 580q0 395 210.5 639.5t595.5 244.5q194 0 308 -66t158 -150q26 -51 -19 -81l-76 -50q-28 -19 -53 25
q-25 43 -109 104.5t-226 61.5q-257 0 -420.5 -183t-163.5 -568q0 -182 96 -306.5t326 -124.5q130 0 240 40t162 96l57 248h-297q-55 0 -45 45l17 74q11 45 66 45h434q55 0 44 -45l-109 -472q-142 -106 -270 -146.5t-326 -40.5q-302 0 -451 172.5t-149 437.5z" />
    <glyph glyph-name="gcircumflex" unicode="&#x11d;" horiz-adv-x="1119" 
d="M386 1190q-17 26 25 55l234 163q37 26 62 26h50q25 0 50 -26l174 -179q28 -29 -1 -55l-25 -23q-29 -27 -57 2l-172 179h-2l-256 -179q-40 -28 -57 -2zM70 379q0 255 161 471.5t379 216.5q111 0 173 -33.5t113 -101.5h2l23 73q14 45 49 45h84q45 0 35 -45l-234 -1013
q-47 -205 -160 -307t-372 -102q-135 0 -221 32.5t-118 86.5q-21 35 4 60l50 48q25 25 56 -8q38 -40 96 -64.5t164 -24.5q124 0 208.5 67.5t121.5 230.5l21 93q6 27 16 61h-2q-44 -79 -137 -130.5t-173 -51.5q-190 0 -264.5 116.5t-74.5 279.5zM256 372q0 -104 45 -181.5
t158 -77.5q98 0 199.5 117.5t132.5 249.5l65 280q-10 100 -65 138.5t-167 38.5q-152 0 -260 -169.5t-108 -395.5z" />
    <glyph glyph-name="Gbreve" unicode="&#x11e;" horiz-adv-x="1470" 
d="M637 1784q-14 48 21 58l52 15q34 10 50 -28q26 -60 69.5 -95.5t141.5 -35.5q84 0 154.5 45t111.5 96q26 32 57 13l45 -28q31 -20 5 -62q-66 -108 -174.5 -161t-215.5 -53q-111 0 -196.5 57t-120.5 179zM110 580q0 395 210.5 639.5t595.5 244.5q194 0 308 -66t158 -150
q26 -51 -19 -81l-76 -50q-28 -19 -53 25q-25 43 -109 104.5t-226 61.5q-257 0 -420.5 -183t-163.5 -568q0 -182 96 -306.5t326 -124.5q130 0 240 40t162 96l57 248h-297q-55 0 -45 45l17 74q11 45 66 45h434q55 0 44 -45l-109 -472q-142 -106 -270 -146.5t-326 -40.5
q-302 0 -451 172.5t-149 437.5z" />
    <glyph glyph-name="gbreve" unicode="&#x11f;" horiz-adv-x="1119" 
d="M417 1370q-15 41 18 53l48 18q31 11 44 -22q27 -67 62 -105t112 -38q90 0 144.5 42.5t93.5 103.5q19 31 46 15l45 -27q31 -18 8 -55q-64 -112 -160.5 -160.5t-195.5 -48.5q-106 0 -164 52t-101 172zM70 379q0 255 161 471.5t379 216.5q111 0 173 -33.5t113 -101.5h2
l23 73q14 45 49 45h84q45 0 35 -45l-234 -1013q-47 -205 -160 -307t-372 -102q-135 0 -221 32.5t-118 86.5q-21 35 4 60l50 48q25 25 56 -8q38 -40 96 -64.5t164 -24.5q124 0 208.5 67.5t121.5 230.5l21 93q6 27 16 61h-2q-44 -79 -137 -130.5t-173 -51.5
q-190 0 -264.5 116.5t-74.5 279.5zM256 372q0 -104 45 -181.5t158 -77.5q98 0 199.5 117.5t132.5 249.5l65 280q-10 100 -65 138.5t-167 38.5q-152 0 -260 -169.5t-108 -395.5z" />
    <glyph glyph-name="Gdotaccent" unicode="&#x120;" horiz-adv-x="1470" 
d="M884 1545q-45 0 -35 45l24 102q10 45 55 45h102q45 0 35 -45l-24 -102q-10 -45 -55 -45h-102zM110 580q0 395 210.5 639.5t595.5 244.5q194 0 308 -66t158 -150q26 -51 -19 -81l-76 -50q-28 -19 -53 25q-25 43 -109 104.5t-226 61.5q-257 0 -420.5 -183t-163.5 -568
q0 -182 96 -306.5t326 -124.5q130 0 240 40t162 96l57 248h-297q-55 0 -45 45l17 74q11 45 66 45h434q55 0 44 -45l-109 -472q-142 -106 -270 -146.5t-326 -40.5q-302 0 -451 172.5t-149 437.5z" />
    <glyph glyph-name="gdotaccent" unicode="&#x121;" horiz-adv-x="1119" 
d="M652 1240q-45 0 -34 45l20 86q10 45 55 45h86q45 0 35 -45l-20 -86q-11 -45 -56 -45h-86zM70 379q0 255 161 471.5t379 216.5q111 0 173 -33.5t113 -101.5h2l23 73q14 45 49 45h84q45 0 35 -45l-234 -1013q-47 -205 -160 -307t-372 -102q-135 0 -221 32.5t-118 86.5
q-21 35 4 60l50 48q25 25 56 -8q38 -40 96 -64.5t164 -24.5q124 0 208.5 67.5t121.5 230.5l21 93q6 27 16 61h-2q-44 -79 -137 -130.5t-173 -51.5q-190 0 -264.5 116.5t-74.5 279.5zM256 372q0 -104 45 -181.5t158 -77.5q98 0 199.5 117.5t132.5 249.5l65 280
q-10 100 -65 138.5t-167 38.5q-152 0 -260 -169.5t-108 -395.5z" />
    <glyph glyph-name="Hcircumflex" unicode="&#x124;" horiz-adv-x="1422" 
d="M589 1589q-8 32 38 51l248 104q43 18 68 18h70q25 0 60 -18l234 -122q35 -19 14 -51l-28 -41q-21 -32 -59 -13l-257 132h-2l-319 -132q-45 -19 -53 13zM100 0q-50 0 -37 55l305 1324q13 55 63 55h92q50 0 37 -55l-127 -551h698l127 551q13 55 63 55h92q50 0 37 -55
l-305 -1324q-13 -55 -63 -55h-92q-50 0 -37 55l140 609h-698l-140 -609q-13 -55 -63 -55h-92z" />
    <glyph glyph-name="hcircumflex" unicode="&#x125;" horiz-adv-x="1128" 
d="M515 1599q-17 26 25 55l234 163q37 26 62 26h50q25 0 50 -26l174 -179q28 -29 -1 -55l-25 -23q-29 -27 -57 2l-172 179h-2l-256 -179q-40 -28 -57 -2zM67 0q-45 0 -35 45l320 1386q10 45 56 45h86q44 0 34 -45l-112 -486q-6 -28 -15 -60h4q59 73 153.5 127.5t214.5 54.5
q170 0 232 -102.5t21 -280.5l-148 -639q-10 -45 -55 -45h-86q-45 0 -35 45l137 591q45 196 -3 248.5t-158 52.5q-120 0 -218.5 -116.5t-133.5 -266.5l-118 -509q-10 -45 -55 -45h-86z" />
    <glyph glyph-name="hbar" unicode="&#x127;" horiz-adv-x="1198" 
d="M234 1208q-45 0 -37 35l14 62q8 35 53 35h137l21 91q10 45 56 45h86q45 0 34 -45l-21 -91h363q45 0 37 -35l-14 -62q-8 -35 -53 -35h-363l-61 -263q-6 -28 -15 -60h4q59 73 153.5 127.5t214.5 54.5q170 0 232 -102.5t21 -280.5l-148 -639q-10 -45 -55 -45h-86
q-45 0 -35 45l137 591q45 196 -3 248.5t-158 52.5q-120 0 -218.5 -116.5t-133.5 -266.5l-118 -509q-10 -45 -55 -45h-86q-45 0 -35 45l269 1163h-137z" />
    <glyph glyph-name="Itilde" unicode="&#x128;" horiz-adv-x="532" 
d="M168 1575q-23 13 -9 45q28 65 85.5 108t146.5 43q75 0 159 -49t128 -49q48 0 81 27t49 52q19 29 38 18l42 -25q23 -13 9 -45q-28 -65 -85.5 -108t-146.5 -43q-75 0 -159 49t-128 49q-48 0 -81 -27t-49 -52q-19 -29 -38 -18zM100 0q-50 0 -37 55l305 1324q13 55 63 55h92
q50 0 37 -55l-305 -1324q-13 -55 -63 -55h-92z" />
    <glyph glyph-name="itilde" unicode="&#x129;" horiz-adv-x="460" 
d="M95 1175q-22 10 -12 44q21 71 71.5 116t130.5 45q68 0 138 -55t109 -55q43 0 64 22t37 60q13 30 37 20l39 -17q22 -10 12 -44q-21 -71 -71.5 -116t-130.5 -45q-68 0 -138 55t-109 55q-43 0 -64 -22t-37 -60q-13 -30 -37 -20zM67 0q-45 0 -35 45l222 960q10 45 55 45h86
q45 0 35 -45l-222 -960q-10 -45 -55 -45h-86z" />
    <glyph glyph-name="Imacron" unicode="&#x12a;" horiz-adv-x="532" 
d="M185 1558q-45 0 -36 40l11 50q10 40 55 40h640q45 0 35 -40l-11 -50q-9 -40 -54 -40h-640zM100 0q-50 0 -37 55l305 1324q13 55 63 55h92q50 0 37 -55l-305 -1324q-13 -55 -63 -55h-92z" />
    <glyph glyph-name="Ibreve" unicode="&#x12c;" horiz-adv-x="532" 
d="M204 1784q-14 48 21 58l52 15q34 10 50 -28q26 -60 69.5 -95.5t141.5 -35.5q84 0 154.5 45t111.5 96q26 32 57 13l45 -28q31 -20 5 -62q-66 -108 -174.5 -161t-215.5 -53q-111 0 -196.5 57t-120.5 179zM100 0q-50 0 -37 55l305 1324q13 55 63 55h92q50 0 37 -55
l-305 -1324q-13 -55 -63 -55h-92z" />
    <glyph glyph-name="Idotaccent" unicode="&#x130;" horiz-adv-x="532" 
d="M451 1545q-45 0 -35 45l24 102q10 45 55 45h102q45 0 35 -45l-24 -102q-10 -45 -55 -45h-102zM100 0q-50 0 -37 55l305 1324q13 55 63 55h92q50 0 37 -55l-305 -1324q-13 -55 -63 -55h-92z" />
    <glyph glyph-name="dotlessi" unicode="&#x131;" horiz-adv-x="460" 
d="M67 0q-45 0 -35 45l222 960q10 45 55 45h86q45 0 35 -45l-222 -960q-10 -45 -55 -45h-86z" />
    <glyph glyph-name="Jcircumflex" unicode="&#x134;" horiz-adv-x="824" 
d="M436 1589q-8 32 38 51l248 104q43 18 68 18h70q25 0 60 -18l234 -122q35 -19 14 -51l-28 -41q-21 -32 -59 -13l-257 132h-2l-319 -132q-45 -19 -53 13zM-37 29q-35 21 -13 65l36 71q26 52 76 14q70 -53 132 -53q97 0 152 65t83 187l231 1001q13 55 63 55h92q50 0 37 -55
l-225 -978q-40 -176 -132 -303.5t-320 -127.5q-116 0 -212 59z" />
    <glyph glyph-name="Lacute" unicode="&#x139;" horiz-adv-x="1136" 
d="M803 1540q-57 0 -4 53l155 155q37 37 86 37h169q77 0 7 -52l-221 -164q-40 -29 -86 -29h-106zM100 0q-50 0 -37 55l305 1324q13 55 63 55h92q50 0 37 -55l-280 -1215h663q55 0 44 -45l-17 -74q-10 -45 -65 -45h-805z" />
    <glyph glyph-name="lacute" unicode="&#x13a;" horiz-adv-x="460" 
d="M391 1559q-50 0 -5 53l166 195q32 37 87 37h121q59 0 6 -52l-206 -204q-30 -29 -85 -29h-84zM67 0q-45 0 -35 45l289 1248q4 20 18 38l100 127q27 35 39 35h35q30 0 22 -35l-327 -1413q-10 -45 -55 -45h-86z" />
    <glyph glyph-name="Lcaron" unicode="&#x13d;" horiz-adv-x="1136" 
d="M100 0q-50 0 -37 55l305 1324q13 55 63 55h92q50 0 37 -55l-280 -1215h663q55 0 44 -45l-17 -74q-10 -45 -65 -45h-805zM801 1156q-23 15 5 50q27 34 50 82t33 96l10 47q10 45 56 45h86q44 0 34 -45l-7 -32q-23 -105 -67 -166.5t-89 -96.5q-35 -27 -52 -17z" />
    <glyph glyph-name="lcaron" unicode="&#x13e;" horiz-adv-x="684" 
d="M67 0q-45 0 -35 45l289 1248q4 20 18 38l100 127q27 35 39 35h35q30 0 22 -35l-327 -1413q-10 -45 -55 -45h-86zM601 1156q-23 15 5 50q27 34 50 82t33 96l10 47q10 45 56 45h86q44 0 34 -45l-7 -32q-23 -105 -67 -166.5t-89 -96.5q-35 -27 -52 -17z" />
    <glyph glyph-name="Lslash" unicode="&#x141;" horiz-adv-x="1241" 
d="M97 444q-63 -37 -51 15l28 122q9 39 50 63l208 121l141 614q13 55 63 55h92q50 0 37 -55l-92 -402q-10 -42 -21 -80h4l310 181q63 37 51 -15l-28 -122q-9 -40 -49 -63l-335 -195l-120 -519h663q54 0 44 -45l-17 -74q-10 -45 -65 -45h-805q-50 0 -37 55l96 416
q10 45 20 80h-4z" />
    <glyph glyph-name="lslash" unicode="&#x142;" horiz-adv-x="660" 
d="M83 510q-54 -34 -43 11l25 106q9 37 47 61l197 123l112 482q5 21 18 38l100 127q28 35 39 35h35q30 -2 22 -35l-105 -452q-7 -30 -16 -60h2l184 115q52 33 42 -12l-24 -106q-8 -36 -47 -60l-198 -123l-165 -715q-10 -45 -55 -45h-86q-45 0 -35 45l120 520q7 29 16 60h-2z
" />
    <glyph glyph-name="Nacute" unicode="&#x143;" horiz-adv-x="1438" 
d="M896 1540q-57 0 -4 53l155 155q37 37 86 37h169q77 0 7 -52l-221 -164q-40 -29 -86 -29h-106zM100 0q-50 0 -37 55l305 1324q13 55 63 55h121q71 0 89 -50l388 -1060h4q9 46 17 80l224 975q13 55 63 55h92q50 0 37 -55l-305 -1324q-13 -55 -63 -55h-82q-70 0 -88 50
l-413 1125h-4q-8 -44 -16 -80l-240 -1040q-13 -55 -63 -55h-92z" />
    <glyph glyph-name="nacute" unicode="&#x144;" horiz-adv-x="1128" 
d="M631 1150q-50 0 -5 53l166 195q32 37 87 37h121q59 0 6 -52l-206 -204q-30 -29 -85 -29h-84zM67 0q-45 0 -35 45l222 960q10 45 55 45h84q45 0 35 -45l-27 -120h4q59 73 153.5 127.5t214.5 54.5q170 0 232 -102.5t21 -280.5l-148 -639q-10 -45 -55 -45h-86q-45 0 -35 45
l137 591q45 196 -3 248.5t-158 52.5q-120 0 -218.5 -116.5t-133.5 -266.5l-118 -509q-10 -45 -55 -45h-86z" />
    <glyph glyph-name="Ncaron" unicode="&#x147;" horiz-adv-x="1438" 
d="M636 1650q-35 19 -14 51l28 41q21 32 59 13l257 -132h2l319 132q45 19 53 -13l14 -59q8 -32 -38 -51l-248 -104q-43 -18 -68 -18h-70q-25 0 -60 18zM100 0q-50 0 -37 55l305 1324q13 55 63 55h121q71 0 89 -50l388 -1060h4q9 46 17 80l224 975q13 55 63 55h92
q50 0 37 -55l-305 -1324q-13 -55 -63 -55h-82q-70 0 -88 50l-413 1125h-4q-8 -44 -16 -80l-240 -1040q-13 -55 -63 -55h-92z" />
    <glyph glyph-name="ncaron" unicode="&#x148;" horiz-adv-x="1128" 
d="M458 1343q-28 29 1 55l25 23q29 27 57 -2l172 -179h2l256 179q40 28 57 2l25 -39q17 -26 -25 -55l-234 -163q-37 -26 -62 -26h-50q-25 0 -50 26zM67 0q-45 0 -35 45l222 960q10 45 55 45h84q45 0 35 -45l-27 -120h4q59 73 153.5 127.5t214.5 54.5q170 0 232 -102.5
t21 -280.5l-148 -639q-10 -45 -55 -45h-86q-45 0 -35 45l137 591q45 196 -3 248.5t-158 52.5q-120 0 -218.5 -116.5t-133.5 -266.5l-118 -509q-10 -45 -55 -45h-86z" />
    <glyph glyph-name="Eng" unicode="&#x14a;" horiz-adv-x="1422" 
d="M100 0q-50 0 -37 55l305 1324q13 55 63 55h82q46 0 37 -55l-29 -180h4q79 121 212 193t294 72q196 0 290.5 -117.5t48.5 -314.5l-240 -1041q-52 -227 -159 -317.5t-275 -90.5q-84 0 -166 35q-38 16 -19 62l29 71q17 41 68 17q61 -29 107 -29q71 0 131.5 57.5t102.5 241.5
l209 906q45 196 -4.5 280t-243.5 84q-158 0 -297 -152.5t-184 -346.5l-174 -754q-13 -55 -63 -55h-92z" />
    <glyph glyph-name="eng" unicode="&#x14b;" horiz-adv-x="1128" 
d="M67 0q-45 0 -35 45l222 960q10 45 55 45h84q45 0 35 -45l-27 -120h4q59 73 153.5 127.5t214.5 54.5q170 0 232 -102.5t21 -280.5l-180 -777q-45 -194 -136 -259t-200 -65q-99 0 -137 20q-17 9 -10 32l25 81q8 26 29 15q35 -18 91 -18q59 0 101 57t83 236l147 630
q45 196 -3 248.5t-158 52.5q-120 0 -218.5 -116.5t-133.5 -266.5l-118 -509q-10 -45 -55 -45h-86z" />
    <glyph glyph-name="Omacron" unicode="&#x14c;" horiz-adv-x="1514" 
d="M580 1558q-45 0 -36 40l11 50q10 40 55 40h640q45 0 35 -40l-11 -50q-9 -40 -54 -40h-640zM110 580q0 400 214 642t554 242q305 0 461 -162.5t156 -447.5q0 -400 -214 -642t-554 -242q-305 0 -461 162.5t-156 447.5zM315 556q0 -205 106.5 -317.5t316.5 -112.5
q220 0 386 183.5t166 568.5q0 205 -106.5 317.5t-316.5 112.5q-220 0 -386 -183.5t-166 -568.5z" />
    <glyph glyph-name="omacron" unicode="&#x14d;" horiz-adv-x="1148" 
d="M436 1240q-45 0 -37 35l10 40q8 35 53 35h528q45 0 37 -35l-10 -40q-8 -35 -53 -35h-528zM68 402q0 264 163.5 464.5t428.5 200.5q234 0 327 -134.5t93 -284.5q0 -264 -163.5 -464.5t-428.5 -200.5q-234 0 -327 134.5t-93 284.5zM254 387q0 -125 58.5 -199.5t188.5 -74.5
q156 0 274.5 141.5t118.5 408.5q0 125 -58.5 199.5t-188.5 74.5q-156 0 -274.5 -141.5t-118.5 -408.5z" />
    <glyph glyph-name="Obreve" unicode="&#x14e;" horiz-adv-x="1514" 
d="M599 1784q-14 48 21 58l52 15q34 10 50 -28q26 -60 69.5 -95.5t141.5 -35.5q84 0 154.5 45t111.5 96q26 32 57 13l45 -28q31 -20 5 -62q-66 -108 -174.5 -161t-215.5 -53q-111 0 -196.5 57t-120.5 179zM110 580q0 400 214 642t554 242q305 0 461 -162.5t156 -447.5
q0 -400 -214 -642t-554 -242q-305 0 -461 162.5t-156 447.5zM315 556q0 -205 106.5 -317.5t316.5 -112.5q220 0 386 183.5t166 568.5q0 205 -106.5 317.5t-316.5 112.5q-220 0 -386 -183.5t-166 -568.5z" />
    <glyph glyph-name="obreve" unicode="&#x14f;" horiz-adv-x="1148" 
d="M421 1370q-15 41 18 53l48 18q31 11 44 -22q27 -67 62 -105t112 -38q90 0 144.5 42.5t93.5 103.5q19 31 46 15l45 -27q31 -18 8 -55q-64 -112 -160.5 -160.5t-195.5 -48.5q-106 0 -164 52t-101 172zM68 402q0 264 163.5 464.5t428.5 200.5q234 0 327 -134.5t93 -284.5
q0 -264 -163.5 -464.5t-428.5 -200.5q-234 0 -327 134.5t-93 284.5zM254 387q0 -125 58.5 -199.5t188.5 -74.5q156 0 274.5 141.5t118.5 408.5q0 125 -58.5 199.5t-188.5 74.5q-156 0 -274.5 -141.5t-118.5 -408.5z" />
    <glyph glyph-name="Ohungarumlaut" unicode="&#x150;" horiz-adv-x="1514" 
d="M671 1540q-55 0 -4 53l149 155q35 37 86 37h131q73 0 7 -52l-210 -164q-38 -29 -82 -29h-77zM1041 1540q-55 0 -4 53l149 155q35 37 86 37h131q73 0 7 -52l-210 -164q-38 -29 -82 -29h-77zM110 580q0 400 214 642t554 242q305 0 461 -162.5t156 -447.5q0 -400 -214 -642
t-554 -242q-305 0 -461 162.5t-156 447.5zM315 556q0 -205 106.5 -317.5t316.5 -112.5q220 0 386 183.5t166 568.5q0 205 -106.5 317.5t-316.5 112.5q-220 0 -386 -183.5t-166 -568.5z" />
    <glyph glyph-name="ohungarumlaut" unicode="&#x151;" horiz-adv-x="1148" 
d="M68 402q0 264 163.5 464.5t428.5 200.5q234 0 327 -134.5t93 -284.5q0 -264 -163.5 -464.5t-428.5 -200.5q-234 0 -327 134.5t-93 284.5zM254 387q0 -125 58.5 -199.5t188.5 -74.5q156 0 274.5 141.5t118.5 408.5q0 125 -58.5 199.5t-188.5 74.5q-156 0 -274.5 -141.5
t-118.5 -408.5zM785 1150q-39 0 -5 53l126 195q24 37 87 37h107q54 0 6 -52l-188 -204q-27 -29 -81 -29h-52zM485 1150q-39 0 -5 53l126 195q24 37 87 37h107q54 0 6 -52l-188 -204q-27 -29 -81 -29h-52z" />
    <glyph glyph-name="Racute" unicode="&#x154;" horiz-adv-x="1384" 
d="M822 1540q-57 0 -4 53l155 155q37 37 86 37h169q77 0 7 -52l-221 -164q-40 -29 -86 -29h-106zM100 0q-50 0 -37 55l305 1324q13 55 63 55h453q252 0 360 -108t108 -270q0 -165 -137.5 -274t-333.5 -125l-1 -2q85 -76 109 -118.5t46 -103.5l131 -367q24 -66 -33 -66h-93
q-48 0 -61 39l-116 357q-24 74 -95.5 149.5t-208.5 75.5h-174l-130 -566q-13 -55 -63 -55h-92zM423 785h309q180 0 302.5 62t122.5 191q0 144 -89.5 188t-235.5 44h-297z" />
    <glyph glyph-name="racute" unicode="&#x155;" horiz-adv-x="722" 
d="M497 1150q-50 0 -5 53l166 195q32 37 87 37h121q59 0 6 -52l-206 -204q-30 -29 -85 -29h-84zM67 0q-45 0 -35 45l222 960q10 45 55 45h84q45 0 35 -45l-37 -160h4q72 113 147.5 167.5t178.5 54.5q59 0 83 -11q19 -8 10 -30l-33 -82q-7 -18 -29 -14q-34 7 -69 7
q-109 0 -221 -141.5t-147 -291.5l-107 -459q-10 -45 -55 -45h-86z" />
    <glyph glyph-name="Rcaron" unicode="&#x158;" horiz-adv-x="1384" 
d="M562 1650q-35 19 -14 51l28 41q21 32 59 13l257 -132h2l319 132q45 19 53 -13l14 -59q8 -32 -38 -51l-248 -104q-43 -18 -68 -18h-70q-25 0 -60 18zM100 0q-50 0 -37 55l305 1324q13 55 63 55h453q252 0 360 -108t108 -270q0 -165 -137.5 -274t-333.5 -125l-1 -2
q85 -76 109 -118.5t46 -103.5l131 -367q24 -66 -33 -66h-93q-48 0 -61 39l-116 357q-24 74 -95.5 149.5t-208.5 75.5h-174l-130 -566q-13 -55 -63 -55h-92zM423 785h309q180 0 302.5 62t122.5 191q0 144 -89.5 188t-235.5 44h-297z" />
    <glyph glyph-name="rcaron" unicode="&#x159;" horiz-adv-x="722" 
d="M324 1343q-28 29 1 55l25 23q29 27 57 -2l172 -179h2l256 179q40 28 57 2l25 -39q17 -26 -25 -55l-234 -163q-37 -26 -62 -26h-50q-25 0 -50 26zM67 0q-45 0 -35 45l222 960q10 45 55 45h84q45 0 35 -45l-37 -160h4q72 113 147.5 167.5t178.5 54.5q59 0 83 -11
q19 -8 10 -30l-33 -82q-7 -18 -29 -14q-34 7 -69 7q-109 0 -221 -141.5t-147 -291.5l-107 -459q-10 -45 -55 -45h-86z" />
    <glyph glyph-name="Sacute" unicode="&#x15a;" horiz-adv-x="1217" 
d="M727 1540q-57 0 -4 53l155 155q37 37 86 37h169q77 0 7 -52l-221 -164q-40 -29 -86 -29h-106zM84 112q-50 49 -20 86l57 70q31 38 86 -13q65 -61 141 -95t194 -34q100 0 169 28.5t122.5 83t53.5 135.5q0 43 -12.5 89t-52 81t-87.5 54q-55 22 -117 42.5t-138 58.5
q-64 32 -110 81t-73 117t-27 145q0 141 90 250.5t201 141t206 31.5q133 0 223 -33t164 -90q49 -38 17 -80l-58 -75q-23 -30 -69 8q-36 30 -118 65t-171 35q-57 0 -123 -19t-118 -77.5t-52 -142.5q0 -44 12 -84.5t44.5 -70.5t69.5 -48q58 -28 119.5 -48t111.5 -40
q80 -32 146.5 -83t95.5 -128.5t29 -147.5q0 -141 -76 -236t-187 -147t-301 -52q-164 0 -271 40t-171 102z" />
    <glyph glyph-name="sacute" unicode="&#x15b;" horiz-adv-x="937" 
d="M498 1150q-50 0 -5 53l166 195q32 37 87 37h121q59 0 6 -52l-206 -204q-30 -29 -85 -29h-84zM28 102q-29 31 -8 55l50 59q21 24 65 -9q57 -43 122.5 -68.5t137.5 -25.5q54 0 107.5 14.5t88.5 57.5t35 86t-12.5 73t-43.5 51t-62 33q-42 16 -96.5 38t-101.5 44
q-46 22 -82 63t-53 89.5t-17 103.5q0 82 50 160.5t144.5 109.5t205.5 31q96 0 173 -27.5t131 -72.5q30 -25 4 -54l-50 -56q-19 -21 -64 11q-40 28 -92 46t-107 18q-48 0 -101.5 -14t-85.5 -50t-32 -86q0 -36 10 -66t35.5 -50.5t54.5 -33.5q52 -24 100.5 -41t88.5 -35
q70 -30 114 -70t59.5 -89t15.5 -106q0 -111 -69.5 -184t-158.5 -98.5t-204 -25.5q-143 0 -228.5 39.5t-123.5 79.5z" />
    <glyph glyph-name="Scircumflex" unicode="&#x15c;" horiz-adv-x="1217" 
d="M428 1589q-8 32 38 51l248 104q43 18 68 18h70q25 0 60 -18l234 -122q35 -19 14 -51l-28 -41q-21 -32 -59 -13l-257 132h-2l-319 -132q-45 -19 -53 13zM84 112q-50 49 -20 86l57 70q31 38 86 -13q65 -61 141 -95t194 -34q100 0 169 28.5t122.5 83t53.5 135.5
q0 43 -12.5 89t-52 81t-87.5 54q-55 22 -117 42.5t-138 58.5q-64 32 -110 81t-73 117t-27 145q0 141 90 250.5t201 141t206 31.5q133 0 223 -33t164 -90q49 -38 17 -80l-58 -75q-23 -30 -69 8q-36 30 -118 65t-171 35q-57 0 -123 -19t-118 -77.5t-52 -142.5q0 -44 12 -84.5
t44.5 -70.5t69.5 -48q58 -28 119.5 -48t111.5 -40q80 -32 146.5 -83t95.5 -128.5t29 -147.5q0 -141 -76 -236t-187 -147t-301 -52q-164 0 -271 40t-171 102z" />
    <glyph glyph-name="scircumflex" unicode="&#x15d;" horiz-adv-x="937" 
d="M288 1190q-17 26 25 55l234 163q37 26 62 26h50q25 0 50 -26l174 -179q28 -29 -1 -55l-25 -23q-29 -27 -57 2l-172 179h-2l-256 -179q-40 -28 -57 -2zM28 102q-29 31 -8 55l50 59q21 24 65 -9q57 -43 122.5 -68.5t137.5 -25.5q54 0 107.5 14.5t88.5 57.5t35 86t-12.5 73
t-43.5 51t-62 33q-42 16 -96.5 38t-101.5 44q-46 22 -82 63t-53 89.5t-17 103.5q0 82 50 160.5t144.5 109.5t205.5 31q96 0 173 -27.5t131 -72.5q30 -25 4 -54l-50 -56q-19 -21 -64 11q-40 28 -92 46t-107 18q-48 0 -101.5 -14t-85.5 -50t-32 -86q0 -36 10 -66t35.5 -50.5
t54.5 -33.5q52 -24 100.5 -41t88.5 -35q70 -30 114 -70t59.5 -89t15.5 -106q0 -111 -69.5 -184t-158.5 -98.5t-204 -25.5q-143 0 -228.5 39.5t-123.5 79.5z" />
    <glyph glyph-name="Scaron" unicode="&#x160;" horiz-adv-x="1217" 
d="M467 1650q-35 19 -14 51l28 41q21 32 59 13l257 -132h2l319 132q45 19 53 -13l14 -59q8 -32 -38 -51l-248 -104q-43 -18 -68 -18h-70q-25 0 -60 18zM84 112q-50 49 -20 86l57 70q31 38 86 -13q65 -61 141 -95t194 -34q100 0 169 28.5t122.5 83t53.5 135.5q0 43 -12.5 89
t-52 81t-87.5 54q-55 22 -117 42.5t-138 58.5q-64 32 -110 81t-73 117t-27 145q0 141 90 250.5t201 141t206 31.5q133 0 223 -33t164 -90q49 -38 17 -80l-58 -75q-23 -30 -69 8q-36 30 -118 65t-171 35q-57 0 -123 -19t-118 -77.5t-52 -142.5q0 -44 12 -84.5t44.5 -70.5
t69.5 -48q58 -28 119.5 -48t111.5 -40q80 -32 146.5 -83t95.5 -128.5t29 -147.5q0 -141 -76 -236t-187 -147t-301 -52q-164 0 -271 40t-171 102z" />
    <glyph glyph-name="scaron" unicode="&#x161;" horiz-adv-x="937" 
d="M325 1343q-28 29 1 55l25 23q29 27 57 -2l172 -179h2l256 179q40 28 57 2l25 -39q17 -26 -25 -55l-234 -163q-37 -26 -62 -26h-50q-25 0 -50 26zM28 102q-29 31 -8 55l50 59q21 24 65 -9q57 -43 122.5 -68.5t137.5 -25.5q54 0 107.5 14.5t88.5 57.5t35 86t-12.5 73
t-43.5 51t-62 33q-42 16 -96.5 38t-101.5 44q-46 22 -82 63t-53 89.5t-17 103.5q0 82 50 160.5t144.5 109.5t205.5 31q96 0 173 -27.5t131 -72.5q30 -25 4 -54l-50 -56q-19 -21 -64 11q-40 28 -92 46t-107 18q-48 0 -101.5 -14t-85.5 -50t-32 -86q0 -36 10 -66t35.5 -50.5
t54.5 -33.5q52 -24 100.5 -41t88.5 -35q70 -30 114 -70t59.5 -89t15.5 -106q0 -111 -69.5 -184t-158.5 -98.5t-204 -25.5q-143 0 -228.5 39.5t-123.5 79.5z" />
    <glyph glyph-name="Tcaron" unicode="&#x164;" horiz-adv-x="1240" 
d="M537 1650q-35 19 -14 51l28 41q21 32 59 13l257 -132h2l319 132q45 19 53 -13l14 -59q8 -32 -38 -51l-248 -104q-43 -18 -68 -18h-70q-25 0 -60 18zM262 1262q-55 0 -44 45l19 82q10 45 65 45h1058q55 0 45 -45l-19 -82q-11 -45 -66 -45h-433l-278 -1207q-13 -55 -63 -55
h-92q-50 0 -37 55l278 1207h-433z" />
    <glyph glyph-name="tcaron" unicode="&#x165;" horiz-adv-x="757" 
d="M183 918q-45 0 -37 35l14 62q8 35 53 35h118l21 90q5 19 19 38l99 127q27 35 39 35h35q30 0 22 -35l-59 -255h213q45 0 37 -35l-14 -62q-8 -35 -53 -35h-213l-147 -637q-24 -105 0.5 -136.5t59.5 -31.5q46 0 95 17.5t66 28.5q22 14 29 -6l26 -72q6 -18 -11 -29
q-41 -26 -119.5 -47.5t-167.5 -21.5q-88 0 -138.5 75t-18.5 212l150 648h-118zM640 1156q-23 15 5 50q27 34 50 82t33 96l10 47q10 45 56 45h86q44 0 34 -45l-7 -32q-23 -105 -67 -166.5t-89 -96.5q-35 -27 -52 -17z" />
    <glyph glyph-name="Utilde" unicode="&#x168;" horiz-adv-x="1402" 
d="M603 1575q-23 13 -9 45q28 65 85.5 108t146.5 43q75 0 159 -49t128 -49q48 0 81 27t49 52q19 29 38 18l42 -25q23 -13 9 -45q-28 -65 -85.5 -108t-146.5 -43q-75 0 -159 49t-128 49q-48 0 -81 -27t-49 -52q-19 -29 -38 -18zM176 547l192 832q13 55 63 55h92q50 0 37 -55
l-185 -802q-64 -280 -5 -365.5t240 -85.5q146 0 262.5 85.5t180.5 365.5l185 802q13 55 63 55h92q50 0 37 -55l-192 -832q-73 -317 -234 -447t-430 -130q-199 0 -335 130t-63 447z" />
    <glyph glyph-name="utilde" unicode="&#x169;" horiz-adv-x="1120" 
d="M424 1175q-22 10 -12 44q21 71 71.5 116t130.5 45q68 0 138 -55t109 -55q43 0 64 22t37 60q13 30 37 20l39 -17q22 -10 12 -44q-21 -71 -71.5 -116t-130.5 -45q-68 0 -138 55t-109 55q-43 0 -64 -22t-37 -60q-13 -30 -37 -20zM104 366l148 639q10 45 55 45h86
q45 0 35 -45l-136 -591q-45 -197 3 -249t153 -52q147 0 230 116.5t118 266.5l118 509q10 45 55 45h86q45 0 35 -45l-222 -960q-10 -45 -55 -45h-84q-45 0 -35 45l28 120h-4q-59 -73 -154.5 -127.5t-210.5 -54.5q-160 0 -225 102.5t-24 280.5z" />
    <glyph glyph-name="Umacron" unicode="&#x16a;" horiz-adv-x="1402" 
d="M620 1558q-45 0 -36 40l11 50q10 40 55 40h640q45 0 35 -40l-11 -50q-9 -40 -54 -40h-640zM176 547l192 832q13 55 63 55h92q50 0 37 -55l-185 -802q-64 -280 -5 -365.5t240 -85.5q146 0 262.5 85.5t180.5 365.5l185 802q13 55 63 55h92q50 0 37 -55l-192 -832
q-73 -317 -234 -447t-430 -130q-199 0 -335 130t-63 447z" />
    <glyph glyph-name="umacron" unicode="&#x16b;" horiz-adv-x="1120" 
d="M461 1240q-45 0 -37 35l10 40q8 35 53 35h528q45 0 37 -35l-10 -40q-8 -35 -53 -35h-528zM104 366l148 639q10 45 55 45h86q45 0 35 -45l-136 -591q-45 -197 3 -249t153 -52q147 0 230 116.5t118 266.5l118 509q10 45 55 45h86q45 0 35 -45l-222 -960q-10 -45 -55 -45
h-84q-45 0 -35 45l28 120h-4q-59 -73 -154.5 -127.5t-210.5 -54.5q-160 0 -225 102.5t-24 280.5z" />
    <glyph glyph-name="Ubreve" unicode="&#x16c;" horiz-adv-x="1402" 
d="M639 1784q-14 48 21 58l52 15q34 10 50 -28q26 -60 69.5 -95.5t141.5 -35.5q84 0 154.5 45t111.5 96q26 32 57 13l45 -28q31 -20 5 -62q-66 -108 -174.5 -161t-215.5 -53q-111 0 -196.5 57t-120.5 179zM176 547l192 832q13 55 63 55h92q50 0 37 -55l-185 -802
q-64 -280 -5 -365.5t240 -85.5q146 0 262.5 85.5t180.5 365.5l185 802q13 55 63 55h92q50 0 37 -55l-192 -832q-73 -317 -234 -447t-430 -130q-199 0 -335 130t-63 447z" />
    <glyph glyph-name="ubreve" unicode="&#x16d;" horiz-adv-x="1120" 
d="M446 1370q-15 41 18 53l48 18q31 11 44 -22q27 -67 62 -105t112 -38q90 0 144.5 42.5t93.5 103.5q19 31 46 15l45 -27q31 -18 8 -55q-64 -112 -160.5 -160.5t-195.5 -48.5q-106 0 -164 52t-101 172zM104 366l148 639q10 45 55 45h86q45 0 35 -45l-136 -591
q-45 -197 3 -249t153 -52q147 0 230 116.5t118 266.5l118 509q10 45 55 45h86q45 0 35 -45l-222 -960q-10 -45 -55 -45h-84q-45 0 -35 45l28 120h-4q-59 -73 -154.5 -127.5t-210.5 -54.5q-160 0 -225 102.5t-24 280.5z" />
    <glyph glyph-name="Uring" unicode="&#x16e;" horiz-adv-x="1402" 
d="M792 1707q0 75 52 124t130 49t130 -50t52 -123t-52 -123t-130 -50t-130 49t-52 124zM870 1707q0 -42 29 -70.5t75 -28.5t75 28.5t29 70.5t-29 70.5t-75 28.5t-75 -28.5t-29 -70.5zM176 547l192 832q13 55 63 55h92q50 0 37 -55l-185 -802q-64 -280 -5 -365.5t240 -85.5
q146 0 262.5 85.5t180.5 365.5l185 802q13 55 63 55h92q50 0 37 -55l-192 -832q-73 -317 -234 -447t-430 -130q-199 0 -335 130t-63 447z" />
    <glyph glyph-name="uring" unicode="&#x16f;" horiz-adv-x="1120" 
d="M520 1313q0 75 52.5 127.5t127.5 52.5t127.5 -52.5t52.5 -127.5t-52.5 -127.5t-127.5 -52.5t-127.5 52.5t-52.5 127.5zM596 1313q0 -44 30 -74t74 -30t74 30t30 74t-30 74t-74 30t-74 -30t-30 -74zM104 366l148 639q10 45 55 45h86q45 0 35 -45l-136 -591
q-45 -197 3 -249t153 -52q147 0 230 116.5t118 266.5l118 509q10 45 55 45h86q45 0 35 -45l-222 -960q-10 -45 -55 -45h-84q-45 0 -35 45l28 120h-4q-59 -73 -154.5 -127.5t-210.5 -54.5q-160 0 -225 102.5t-24 280.5z" />
    <glyph glyph-name="Uhungarumlaut" unicode="&#x170;" horiz-adv-x="1402" 
d="M711 1540q-55 0 -4 53l149 155q35 37 86 37h131q73 0 7 -52l-210 -164q-38 -29 -82 -29h-77zM1081 1540q-55 0 -4 53l149 155q35 37 86 37h131q73 0 7 -52l-210 -164q-38 -29 -82 -29h-77zM176 547l192 832q13 55 63 55h92q50 0 37 -55l-185 -802q-64 -280 -5 -365.5
t240 -85.5q146 0 262.5 85.5t180.5 365.5l185 802q13 55 63 55h92q50 0 37 -55l-192 -832q-73 -317 -234 -447t-430 -130q-199 0 -335 130t-63 447z" />
    <glyph glyph-name="uhungarumlaut" unicode="&#x171;" horiz-adv-x="1120" 
d="M811 1150q-39 0 -5 53l126 195q24 37 87 37h107q54 0 6 -52l-188 -204q-27 -29 -81 -29h-52zM511 1150q-39 0 -5 53l126 195q24 37 87 37h107q54 0 6 -52l-188 -204q-27 -29 -81 -29h-52zM104 366l148 639q10 45 55 45h86q45 0 35 -45l-136 -591q-45 -197 3 -249t153 -52
q147 0 230 116.5t118 266.5l118 509q10 45 55 45h86q45 0 35 -45l-222 -960q-10 -45 -55 -45h-84q-45 0 -35 45l28 120h-4q-59 -73 -154.5 -127.5t-210.5 -54.5q-160 0 -225 102.5t-24 280.5z" />
    <glyph glyph-name="Wcircumflex" unicode="&#x174;" horiz-adv-x="1888" 
d="M822 1589q-8 32 38 51l248 104q43 18 68 18h70q25 0 60 -18l234 -122q35 -19 14 -51l-28 -41q-21 -32 -59 -13l-257 132h-2l-319 -132q-45 -19 -53 13zM240 1374q-3 60 40 60h107q31 0 32 -46l23 -961q1 -61 -1 -117.5t-2 -136.5h5q24 59 50.5 117t61.5 136l439 954
q25 54 76 54h135q51 0 52 -54l18 -954q1 -49 0 -115.5t-1 -137.5h5q27 60 63 133.5t57 120.5l434 961q21 46 54 46h132q41 0 12 -60l-633 -1297q-38 -77 -92 -77h-125q-50 0 -52 84l-26 959q-2 76 0.5 117.5t2.5 98.5h-2q-21 -61 -37 -103.5t-49 -112.5l-453 -959
q-40 -84 -90 -84h-125q-53 0 -56 77z" />
    <glyph glyph-name="wcircumflex" unicode="&#x175;" horiz-adv-x="1444" 
d="M578 1190q-17 26 25 55l234 163q37 26 62 26h50q25 0 50 -26l174 -179q28 -29 -1 -55l-25 -23q-29 -27 -57 2l-172 179h-2l-256 -179q-40 -28 -57 -2zM156 1001q-2 49 38 49h97q36 0 36 -39l-3 -660q0 -45 -1 -98t-1 -84h4q11 28 38 87.5t45 94.5l328 660q19 39 54 39h90
q35 0 36 -39l24 -660q1 -36 0 -84.5t-1 -97.5h4q13 29 41.5 91t42.5 91l299 660q18 39 54 39h113q40 0 16 -49l-465 -940q-30 -61 -68 -61h-120q-38 0 -40 61l-17 661q-1 58 0.5 92t4.5 59h-2q-9 -25 -26 -66t-39 -85l-323 -661q-30 -61 -68 -61h-120q-38 0 -40 61z" />
    <glyph glyph-name="Ycircumflex" unicode="&#x176;" horiz-adv-x="1302" 
d="M529 1589q-8 32 38 51l248 104q43 18 68 18h70q25 0 60 -18l234 -122q35 -19 14 -51l-28 -41q-21 -32 -59 -13l-257 132h-2l-319 -132q-45 -19 -53 13zM250 1368q-27 66 42 66h93q44 0 61 -49l156 -437q14 -40 37.5 -109.5t37.5 -129.5h4q42 60 82.5 112t102.5 127
l358 437q40 49 83 49h125q70 0 12 -66l-681 -778l-123 -535q-13 -55 -63 -55h-92q-50 0 -37 55l123 535z" />
    <glyph glyph-name="ycircumflex" unicode="&#x177;" horiz-adv-x="1128" 
d="M421 1190q-17 26 25 55l234 163q37 26 62 26h50q25 0 50 -26l174 -179q28 -29 -1 -55l-25 -23q-29 -27 -57 2l-172 179h-2l-256 -179q-40 -28 -57 -2zM106 366l148 639q10 45 55 45h86q45 0 35 -45l-136 -591q-45 -197 2.5 -249t157.5 -52q106 0 211.5 113.5t141.5 269.5
l117 509q10 45 55 45h86q45 0 35 -45l-234 -1014q-47 -205 -158 -306.5t-374 -101.5q-171 0 -236 33t-98 78q-29 40 2 68l56 52q32 29 50 0q30 -48 87 -74.5t170 -26.5q121 0 206.5 68.5t122.5 228.5q23 102 37 155h-4q-59 -73 -150 -127.5t-218 -54.5q-170 0 -232 102.5
t-21 280.5z" />
    <glyph glyph-name="Ydieresis" unicode="&#x178;" horiz-adv-x="1302" 
d="M603 1550q-45 0 -35 45l21 92q11 45 56 45h92q45 0 34 -45l-21 -92q-10 -45 -55 -45h-92zM1081 1550q-45 0 -35 45l21 92q11 45 56 45h92q45 0 34 -45l-21 -92q-10 -45 -55 -45h-92zM250 1368q-27 66 42 66h93q44 0 61 -49l156 -437q14 -40 37.5 -109.5t37.5 -129.5h4
q42 60 82.5 112t102.5 127l358 437q40 49 83 49h125q70 0 12 -66l-681 -778l-123 -535q-13 -55 -63 -55h-92q-50 0 -37 55l123 535z" />
    <glyph glyph-name="Zacute" unicode="&#x179;" horiz-adv-x="1216" 
d="M786 1540q-57 0 -4 53l155 155q37 37 86 37h169q77 0 7 -52l-221 -164q-40 -29 -86 -29h-106zM0 0q-55 0 -45 45l11 48q10 45 51 89l1010 1086l1 4q-41 -2 -81 -2h-622q-54 0 -44 45l17 74q10 45 65 45h922q55 0 45 -45l-7 -31q-7 -30 -35 -61l-1034 -1131l-1 -4
q28 2 81 2h680q54 0 44 -45l-17 -74q-10 -45 -65 -45h-976z" />
    <glyph glyph-name="zacute" unicode="&#x17a;" horiz-adv-x="950" 
d="M541 1150q-50 0 -5 53l166 195q32 37 87 37h121q59 0 6 -52l-206 -204q-30 -29 -85 -29h-84zM-20 0q-45 0 -37 35l12 51q8 34 53 80l737 752v2q-30 -2 -60 -2h-469q-45 0 -37 35l14 62q8 35 53 35h702q45 0 37 -35l-11 -47q-7 -28 -55 -78l-740 -758v-2q30 2 60 2h521
q45 0 37 -35l-14 -62q-8 -35 -53 -35h-750z" />
    <glyph glyph-name="Zdotaccent" unicode="&#x17b;" horiz-adv-x="1216" 
d="M794 1545q-45 0 -35 45l24 102q10 45 55 45h102q45 0 35 -45l-24 -102q-10 -45 -55 -45h-102zM0 0q-55 0 -45 45l11 48q10 45 51 89l1010 1086l1 4q-41 -2 -81 -2h-622q-54 0 -44 45l17 74q10 45 65 45h922q55 0 45 -45l-7 -31q-7 -30 -35 -61l-1034 -1131l-1 -4
q28 2 81 2h680q54 0 44 -45l-17 -74q-10 -45 -65 -45h-976z" />
    <glyph glyph-name="zdotaccent" unicode="&#x17c;" horiz-adv-x="950" 
d="M597 1240q-45 0 -34 45l20 86q10 45 55 45h86q45 0 35 -45l-20 -86q-11 -45 -56 -45h-86zM-20 0q-45 0 -37 35l12 51q8 34 53 80l737 752v2q-30 -2 -60 -2h-469q-45 0 -37 35l14 62q8 35 53 35h702q45 0 37 -35l-11 -47q-7 -28 -55 -78l-740 -758v-2q30 2 60 2h521
q45 0 37 -35l-14 -62q-8 -35 -53 -35h-750z" />
    <glyph glyph-name="Zcaron" unicode="&#x17d;" horiz-adv-x="1216" 
d="M526 1650q-35 19 -14 51l28 41q21 32 59 13l257 -132h2l319 132q45 19 53 -13l14 -59q8 -32 -38 -51l-248 -104q-43 -18 -68 -18h-70q-25 0 -60 18zM0 0q-55 0 -45 45l11 48q10 45 51 89l1010 1086l1 4q-41 -2 -81 -2h-622q-54 0 -44 45l17 74q10 45 65 45h922
q55 0 45 -45l-7 -31q-7 -30 -35 -61l-1034 -1131l-1 -4q28 2 81 2h680q54 0 44 -45l-17 -74q-10 -45 -65 -45h-976z" />
    <glyph glyph-name="zcaron" unicode="&#x17e;" horiz-adv-x="950" 
d="M368 1343q-28 29 1 55l25 23q29 27 57 -2l172 -179h2l256 179q40 28 57 2l25 -39q17 -26 -25 -55l-234 -163q-37 -26 -62 -26h-50q-25 0 -50 26zM-20 0q-45 0 -37 35l12 51q8 34 53 80l737 752v2q-30 -2 -60 -2h-469q-45 0 -37 35l14 62q8 35 53 35h702q45 0 37 -35
l-11 -47q-7 -28 -55 -78l-740 -758v-2q30 2 60 2h521q45 0 37 -35l-14 -62q-8 -35 -53 -35h-750z" />
    <glyph glyph-name="longs" unicode="&#x17f;" horiz-adv-x="580" 
d="M-25 -400q-45 0 -35 45l359 1554q39 167 144 230.5t210 63.5q67 0 105 -7t91 -31q20 -9 6 -32l-50 -79q-13 -20 -37 -8q-19 10 -46.5 18.5t-62.5 8.5q-79 0 -123 -44.5t-68 -148.5l-352 -1525q-10 -45 -55 -45h-86z" />
    <glyph glyph-name="uni0186" unicode="&#x186;" horiz-adv-x="1392" 
d="M117 204q-23 53 23 80l78 46q27 16 52 -28q30 -54 109 -115t214 -61q250 0 413 183t163 568q0 182 -96 306.5t-326 124.5q-136 0 -230.5 -71.5t-146.5 -143.5q-42 -58 -78 -35l-90 58q-33 21 8 80q79 115 213 191.5t351 76.5q302 0 451 -172.5t149 -437.5
q0 -395 -210.5 -639.5t-587.5 -244.5q-184 0 -298 64t-161 170z" />
    <glyph glyph-name="uni0189" unicode="&#x189;" horiz-adv-x="1446" 
d="M126 654q-55 0 -45 45l17 74q10 45 66 45h115l129 561q13 55 63 55h319q358 0 496 -175t138 -411q0 -340 -210 -594t-655 -254h-419q-50 0 -37 55l138 599h-115zM320 164h268q332 0 481.5 212t149.5 484q0 172 -81.5 292t-393.5 120h-168l-105 -454h321q55 0 44 -45
l-17 -74q-10 -45 -65 -45h-321z" />
    <glyph glyph-name="uni018F" unicode="&#x18f;" horiz-adv-x="1464" 
d="M87 547q0 98 25 208q15 63 74 65h1054q1 42 1 83q0 135 -87.5 270t-321.5 135q-134 0 -202 -26.5t-173 -90.5q-55 -34 -79 0l-46 64q-24 34 32 72q83 57 210.5 97t290.5 40q242 0 411 -148.5t169 -468.5q0 -350 -200.5 -613.5t-569.5 -263.5q-318 0 -453 187t-135 390z
M290 530q0 -133 89 -268.5t316 -135.5q184 0 326 126t206 404h-922q-15 -65 -15 -126z" />
    <glyph glyph-name="uni0190" unicode="&#x190;" horiz-adv-x="1194" 
d="M85 306q0 172 105 296.5t282 160.5v4q-111 50 -148 116t-37 173q0 142 127 275t357 133q116 0 211 -28t181 -112q52 -51 14 -85l-69 -62q-27 -25 -70 22q-53 59 -117.5 84t-165.5 25q-100 0 -186.5 -65.5t-86.5 -201.5q0 -71 41 -139.5t181 -68.5h106q47 0 37 -45
l-16 -70q-10 -43 -57 -43h-113q-141 0 -256 -101.5t-115 -230.5q0 -132 73.5 -174.5t189.5 -42.5q94 0 184 45.5t147 97.5q53 48 82 10l55 -72q25 -32 -24 -72q-69 -56 -193 -110.5t-285 -54.5q-185 0 -309.5 86t-124.5 250z" />
    <glyph glyph-name="uni0191" unicode="&#x191;" horiz-adv-x="1166" 
d="M-360 -382q-38 16 -19 62l29 71q17 41 68 17q61 -29 107 -29q71 0 131.5 57.5t102.5 241.5l309 1341q13 55 63 55h815q55 0 45 -45l-17 -74q-10 -45 -66 -45h-673l-109 -474h587q54 0 44 -45l-17 -74q-10 -45 -65 -45h-587l-148 -641q-52 -227 -159 -317.5t-275 -90.5
q-84 0 -166 35z" />
    <glyph glyph-name="florin" unicode="&#x192;" horiz-adv-x="652" 
d="M-241 -397q-17 9 -10 32l25 81q8 26 29 15q35 -18 91 -18q59 0 101 57t83 236l211 912h-107q-45 0 -37 35l14 62q8 35 53 35h107l35 149q38 167 143 230.5t221 63.5q69 0 109.5 -7t93.5 -31q20 -9 6 -32l-50 -79q-12 -20 -37 -8q-19 10 -49 18.5t-67 8.5q-83 0 -129 -40
t-72 -153l-28 -120h183q45 0 37 -35l-14 -62q-8 -35 -53 -35h-183l-233 -1011q-45 -194 -136 -259t-200 -65q-99 0 -137 20z" />
    <glyph glyph-name="uni0194" unicode="&#x194;" horiz-adv-x="1282" 
d="M250 1368q-23 66 42 66h100q47 0 61 -49l141 -487q21 -71 36.5 -123.5t31.5 -118.5h4q42 64 79.5 116.5t92.5 125.5l367 487q37 49 83 49h124q66 0 12 -66l-676 -832q63 -100 87.5 -167t24.5 -106q0 -125 -88 -209t-233 -84q-111 0 -183.5 48t-72.5 165q0 73 71.5 171
t181.5 198zM475 203q0 -45 19.5 -61t64.5 -16t77 42.5t32 87.5q0 33 -9 68.5t-40 99.5h-4q-59 -46 -99.5 -110t-40.5 -111z" />
    <glyph glyph-name="uni0196" unicode="&#x196;" horiz-adv-x="815" 
d="M139 388l229 991q13 55 63 55h92q50 0 37 -55l-244 -1069q-19 -85 2 -134.5t93 -49.5q36 0 72.5 12t86.5 35q52 24 70 -14l27 -56q16 -33 -18 -54q-49 -31 -119 -55t-140 -24q-164 0 -231 107t-20 311z" />
    <glyph glyph-name="uni0197" unicode="&#x197;" horiz-adv-x="702" 
d="M185 0q-50 0 -37 55l136 589h-150q-55 0 -45 45l17 74q10 45 66 45h150l131 571q13 55 63 55h92q50 0 37 -55l-131 -571h150q55 0 44 -45l-17 -74q-10 -45 -65 -45h-150l-136 -589q-13 -55 -63 -55h-92z" />
    <glyph glyph-name="uni019F" unicode="&#x19f;" horiz-adv-x="1514" 
d="M110 580q0 400 214 642t554 242q305 0 461 -162.5t156 -447.5q0 -400 -214 -642t-554 -242q-305 0 -461 162.5t-156 447.5zM315 556q0 -205 106.5 -317.5t316.5 -112.5q220 0 361 156t176 382h-956q-4 -52 -4 -108zM341 828h948q1 25 1 50q0 205 -106.5 317.5
t-316.5 112.5q-220 0 -353.5 -147.5t-172.5 -332.5z" />
    <glyph glyph-name="uni01A9" unicode="&#x1a9;" horiz-adv-x="1208" 
d="M9 0q-55 0 -45 45l11 48q10 46 51 89l515 552q34 37 16 72l-257 493q-14 27 -6 61l7 29q11 45 65 45h898q55 0 45 -45l-17 -74q-10 -45 -66 -45h-628q-40 0 -79 2l-1 -4l257 -498q17 -33 -15 -67l-506 -537l-1 -4q27 2 81 2h665q54 0 44 -45l-17 -74q-10 -45 -65 -45
h-952z" />
    <glyph glyph-name="uni01B2" unicode="&#x1b2;" horiz-adv-x="1341" 
d="M176 547l192 832q13 55 63 55h92q50 0 37 -55l-185 -802q-68 -294 7 -372.5t211 -78.5q185 0 351 203t166 551q0 165 -22.5 264.5t-78.5 180.5q-27 40 15 69l75 52q44 31 79 -20q59 -87 98 -204t39 -270q0 -405 -195 -693.5t-554 -288.5q-211 0 -336 134t-54 443z" />
    <glyph glyph-name="uni01B7" unicode="&#x1b7;" horiz-adv-x="1257" 
d="M62 163q-40 49 -5 77l71 57q38 31 81 -21q51 -62 122 -106t216 -44q182 0 281.5 102t99.5 234q0 96 -62 152.5t-228 56.5h-113q-55 0 -45 43l16 70q12 51 44 80l447 404v4q-40 -2 -81 -2h-560q-54 0 -44 45l17 74q10 45 65 45h866q55 0 45 -45l-10 -45q-9 -38 -34 -61
l-500 -446v-4q164 0 272 -98.5t108 -257.5q0 -191 -153 -349t-452 -158q-208 0 -307 61.5t-157 131.5z" />
    <glyph glyph-name="uni01CD" unicode="&#x1cd;" horiz-adv-x="1360" 
d="M568 1650q-35 19 -14 51l28 41q21 32 59 13l257 -132h2l319 132q45 19 53 -13l14 -59q8 -32 -38 -51l-248 -104q-43 -18 -68 -18h-70q-25 0 -60 18zM-47 0q-51 0 -12 66l770 1307q36 61 80 61h140q41 0 52 -61l226 -1307q11 -66 -42 -66h-91q-53 0 -61 49l-57 331h-615
l-195 -331q-29 -49 -83 -49h-112zM441 544h488l-70 400q-13 72 -21 157.5t-8 159.5h-4q-18 -71 -56 -145t-95 -172z" />
    <glyph glyph-name="uni01CE" unicode="&#x1ce;" horiz-adv-x="1099" 
d="M411 1343q-28 29 1 55l25 23q29 27 57 -2l172 -179h2l256 179q40 28 57 2l25 -39q17 -26 -25 -55l-234 -163q-37 -26 -62 -26h-50q-25 0 -50 26zM66 339q0 275 186.5 501.5t391.5 226.5q90 0 148 -37.5t86 -87.5h2l21 63q15 45 49 45h84q45 0 35 -45l-222 -960
q-10 -45 -55 -45h-81q-44 0 -35 45l25 120h-2q-49 -65 -130.5 -123.5t-181.5 -58.5q-145 0 -233 87.5t-88 268.5zM252 332q0 -66 35.5 -142.5t145.5 -76.5q90 0 199 119t139 248l67 290q0 90 -57.5 128.5t-142.5 38.5q-140 0 -263 -179.5t-123 -425.5z" />
    <glyph glyph-name="uni01CF" unicode="&#x1cf;" horiz-adv-x="532" 
d="M183 1650q-35 19 -14 51l28 41q21 32 59 13l257 -132h2l319 132q45 19 53 -13l14 -59q8 -32 -38 -51l-248 -104q-43 -18 -68 -18h-70q-25 0 -60 18zM100 0q-50 0 -37 55l305 1324q13 55 63 55h92q50 0 37 -55l-305 -1324q-13 -55 -63 -55h-92z" />
    <glyph glyph-name="uni01D1" unicode="&#x1d1;" horiz-adv-x="1514" 
d="M578 1650q-35 19 -14 51l28 41q21 32 59 13l257 -132h2l319 132q45 19 53 -13l14 -59q8 -32 -38 -51l-248 -104q-43 -18 -68 -18h-70q-25 0 -60 18zM110 580q0 400 214 642t554 242q305 0 461 -162.5t156 -447.5q0 -400 -214 -642t-554 -242q-305 0 -461 162.5
t-156 447.5zM315 556q0 -205 106.5 -317.5t316.5 -112.5q220 0 386 183.5t166 568.5q0 205 -106.5 317.5t-316.5 112.5q-220 0 -386 -183.5t-166 -568.5z" />
    <glyph glyph-name="uni01D2" unicode="&#x1d2;" horiz-adv-x="1148" 
d="M427 1343q-28 29 1 55l25 23q29 27 57 -2l172 -179h2l256 179q40 28 57 2l25 -39q17 -26 -25 -55l-234 -163q-37 -26 -62 -26h-50q-25 0 -50 26zM68 402q0 264 163.5 464.5t428.5 200.5q234 0 327 -134.5t93 -284.5q0 -264 -163.5 -464.5t-428.5 -200.5
q-234 0 -327 134.5t-93 284.5zM254 387q0 -125 58.5 -199.5t188.5 -74.5q156 0 274.5 141.5t118.5 408.5q0 125 -58.5 199.5t-188.5 74.5q-156 0 -274.5 -141.5t-118.5 -408.5z" />
    <glyph glyph-name="uni01D3" unicode="&#x1d3;" horiz-adv-x="1402" 
d="M618 1650q-35 19 -14 51l28 41q21 32 59 13l257 -132h2l319 132q45 19 53 -13l14 -59q8 -32 -38 -51l-248 -104q-43 -18 -68 -18h-70q-25 0 -60 18zM176 547l192 832q13 55 63 55h92q50 0 37 -55l-185 -802q-64 -280 -5 -365.5t240 -85.5q146 0 262.5 85.5t180.5 365.5
l185 802q13 55 63 55h92q50 0 37 -55l-192 -832q-73 -317 -234 -447t-430 -130q-199 0 -335 130t-63 447z" />
    <glyph glyph-name="uni01D4" unicode="&#x1d4;" horiz-adv-x="1120" 
d="M452 1343q-28 29 1 55l25 23q29 27 57 -2l172 -179h2l256 179q40 28 57 2l25 -39q17 -26 -25 -55l-234 -163q-37 -26 -62 -26h-50q-25 0 -50 26zM104 366l148 639q10 45 55 45h86q45 0 35 -45l-136 -591q-45 -197 3 -249t153 -52q147 0 230 116.5t118 266.5l118 509
q10 45 55 45h86q45 0 35 -45l-222 -960q-10 -45 -55 -45h-84q-45 0 -35 45l28 120h-4q-59 -73 -154.5 -127.5t-210.5 -54.5q-160 0 -225 102.5t-24 280.5z" />
    <glyph glyph-name="uni01DD" unicode="&#x1dd;" horiz-adv-x="1078" 
d="M82 272q0 148 141.5 218t350.5 112l246 49q6 38 6 40q0 99 -54 172t-189 73q-115 0 -185 -42t-95 -76q-35 -47 -63 -21l-59 51q-19 17 6 56q23 36 124 99.5t296 63.5q213 0 309 -123.5t96 -289.5q0 -300 -156.5 -485.5t-427.5 -185.5q-155 0 -250.5 88.5t-95.5 200.5z
M258 264q0 -68 61.5 -109.5t141.5 -41.5q121 0 215.5 92t138.5 307l-205 -40q-140 -27 -246 -74.5t-106 -133.5z" />
    <glyph glyph-name="uni01E2" unicode="&#x1e2;" horiz-adv-x="1957" 
d="M867 1558q-45 0 -36 40l11 50q10 40 55 40h640q45 0 35 -40l-11 -50q-9 -40 -54 -40h-640zM-46 0q-59 0 -13 66l924 1316q37 52 79 52h1049q55 0 45 -45l-17 -74q-10 -45 -66 -45h-693l-102 -444h633q54 0 44 -45l-17 -74q-10 -45 -65 -45h-633l-115 -498h723
q54 0 44 -45l-17 -74q-10 -45 -65 -45h-865q-50 0 -37 55l75 325h-474l-232 -331q-34 -49 -78 -49h-127zM506 544h397l167 726h-72q-30 -59 -66.5 -115t-68.5 -102z" />
    <glyph glyph-name="uni01E3" unicode="&#x1e3;" horiz-adv-x="1698" 
d="M731 1240q-45 0 -37 35l10 40q8 35 53 35h528q45 0 37 -35l-10 -40q-8 -35 -53 -35h-528zM35 220q0 182 165.5 290t564.5 128l16 68q25 106 -10.5 168.5t-156.5 62.5q-92 0 -155 -24.5t-134 -92.5q-29 -28 -51 -3l-47 55q-24 28 15 60q88 72 196 103.5t192 31.5
q106 0 180 -31.5t111 -112.5h2q39 40 133 92t236 52q154 0 240 -92.5t86 -196.5q0 -142 -117.5 -212.5t-361.5 -120.5l-224 -46q-6 -38 -6 -40q0 -103 55 -174t173 -71q98 0 167.5 45t92.5 73q37 45 63 21l56 -51q23 -21 -6 -56q-31 -38 -121 -100.5t-276 -62.5
q-117 0 -205.5 48t-132.5 151h-2q-94 -92 -204 -145.5t-206 -53.5q-187 0 -257.5 63.5t-70.5 173.5zM217 242q0 -62 36.5 -93t124.5 -31q100 0 191.5 41.5t164.5 118.5q-25 100 5 229q-325 -21 -423.5 -95t-98.5 -170zM920 538l183 37q200 40 269.5 82.5t69.5 128.5
q0 68 -44.5 109.5t-138.5 41.5q-107 0 -201 -92t-138 -307z" />
    <glyph glyph-name="Gcaron" unicode="&#x1e6;" horiz-adv-x="1470" 
d="M616 1650q-35 19 -14 51l28 41q21 32 59 13l257 -132h2l319 132q45 19 53 -13l14 -59q8 -32 -38 -51l-248 -104q-43 -18 -68 -18h-70q-25 0 -60 18zM110 580q0 395 210.5 639.5t595.5 244.5q194 0 308 -66t158 -150q26 -51 -19 -81l-76 -50q-28 -19 -53 25
q-25 43 -109 104.5t-226 61.5q-257 0 -420.5 -183t-163.5 -568q0 -182 96 -306.5t326 -124.5q130 0 240 40t162 96l57 248h-297q-55 0 -45 45l17 74q11 45 66 45h434q55 0 44 -45l-109 -472q-142 -106 -270 -146.5t-326 -40.5q-302 0 -451 172.5t-149 437.5z" />
    <glyph glyph-name="gcaron" unicode="&#x1e7;" horiz-adv-x="1119" 
d="M423 1343q-28 29 1 55l25 23q29 27 57 -2l172 -179h2l256 179q40 28 57 2l25 -39q17 -26 -25 -55l-234 -163q-37 -26 -62 -26h-50q-25 0 -50 26zM70 379q0 255 161 471.5t379 216.5q111 0 173 -33.5t113 -101.5h2l23 73q14 45 49 45h84q45 0 35 -45l-234 -1013
q-47 -205 -160 -307t-372 -102q-135 0 -221 32.5t-118 86.5q-21 35 4 60l50 48q25 25 56 -8q38 -40 96 -64.5t164 -24.5q124 0 208.5 67.5t121.5 230.5l21 93q6 27 16 61h-2q-44 -79 -137 -130.5t-173 -51.5q-190 0 -264.5 116.5t-74.5 279.5zM256 372q0 -104 45 -181.5
t158 -77.5q98 0 199.5 117.5t132.5 249.5l65 280q-10 100 -65 138.5t-167 38.5q-152 0 -260 -169.5t-108 -395.5z" />
    <glyph glyph-name="uni01E8" unicode="&#x1e8;" horiz-adv-x="1328" 
d="M646 1650q-35 19 -14 51l28 41q21 32 59 13l257 -132h2l319 132q45 19 53 -13l14 -59q8 -32 -38 -51l-248 -104q-43 -18 -68 -18h-70q-25 0 -60 18zM100 0q-50 0 -37 55l305 1324q13 55 63 55h92q50 0 37 -55l-130 -565q-5 -22 -21 -80h4l799 661q47 39 79 39h143
q83 0 3 -66l-628 -518l354 -784q30 -66 -33 -66h-107q-43 0 -61 39l-307 684l-304 -252l-96 -416q-13 -55 -63 -55h-92z" />
    <glyph glyph-name="uni01E9" unicode="&#x1e9;" horiz-adv-x="1003" 
d="M535 1752q-28 29 1 55l25 23q29 27 57 -2l172 -179h2l256 179q40 28 57 2l25 -39q17 -26 -25 -55l-234 -163q-37 -26 -62 -26h-50q-25 0 -50 26zM67 0q-45 0 -35 45l320 1386q10 45 56 45h86q44 0 34 -45l-189 -820q-7 -29 -16 -60h2l505 473q28 26 59 26h111
q77 0 13 -59l-409 -380l228 -552q24 -59 -40 -59h-81q-33 0 -48 37l-186 454l-211 -198l-58 -248q-11 -45 -55 -45h-86z" />
    <glyph glyph-name="uni01EE" unicode="&#x1ee;" horiz-adv-x="1257" 
d="M550 1650q-35 19 -14 51l28 41q21 32 59 13l257 -132h2l319 132q45 19 53 -13l14 -59q8 -32 -38 -51l-248 -104q-43 -18 -68 -18h-70q-25 0 -60 18zM62 163q-40 49 -5 77l71 57q38 31 81 -21q51 -62 122 -106t216 -44q182 0 281.5 102t99.5 234q0 96 -62 152.5t-228 56.5
h-113q-55 0 -45 43l16 70q12 51 44 80l447 404v4q-40 -2 -81 -2h-560q-54 0 -44 45l17 74q10 45 65 45h866q55 0 45 -45l-10 -45q-9 -38 -34 -61l-500 -446v-4q164 0 272 -98.5t108 -257.5q0 -191 -153 -349t-452 -158q-208 0 -307 61.5t-157 131.5z" />
    <glyph glyph-name="uni01EF" unicode="&#x1ef;" horiz-adv-x="982" 
d="M376 1343q-28 29 1 55l25 23q29 27 57 -2l172 -179h2l256 179q40 28 57 2l25 -39q17 -26 -25 -55l-234 -163q-37 -26 -62 -26h-50q-25 0 -50 26zM-91 -266q-23 39 2 55l62 41q30 20 62 -19q25 -31 74 -64.5t153 -33.5q162 0 250 106.5t88 277.5q0 103 -64 156t-182 53
h-83q-45 0 -37 35l16 68q7 31 40 63l461 446v2q-30 -2 -60 -2h-475q-45 0 -37 35l14 62q8 35 53 35h702q45 0 37 -35l-12 -51q-7 -32 -55 -78l-459 -448v-4q144 0 234 -94.5t90 -228.5q0 -222 -132.5 -375t-388.5 -153q-164 0 -245 52.5t-108 98.5z" />
    <glyph glyph-name="uni01F4" unicode="&#x1f4;" horiz-adv-x="1470" 
d="M876 1540q-57 0 -4 53l155 155q37 37 86 37h169q77 0 7 -52l-221 -164q-40 -29 -86 -29h-106zM110 580q0 395 210.5 639.5t595.5 244.5q194 0 308 -66t158 -150q26 -51 -19 -81l-76 -50q-28 -19 -53 25q-25 43 -109 104.5t-226 61.5q-257 0 -420.5 -183t-163.5 -568
q0 -182 96 -306.5t326 -124.5q130 0 240 40t162 96l57 248h-297q-55 0 -45 45l17 74q11 45 66 45h434q55 0 44 -45l-109 -472q-142 -106 -270 -146.5t-326 -40.5q-302 0 -451 172.5t-149 437.5z" />
    <glyph glyph-name="uni01F5" unicode="&#x1f5;" horiz-adv-x="1119" 
d="M596 1150q-50 0 -5 53l166 195q32 37 87 37h121q59 0 6 -52l-206 -204q-30 -29 -85 -29h-84zM70 379q0 255 161 471.5t379 216.5q111 0 173 -33.5t113 -101.5h2l23 73q14 45 49 45h84q45 0 35 -45l-234 -1013q-47 -205 -160 -307t-372 -102q-135 0 -221 32.5t-118 86.5
q-21 35 4 60l50 48q25 25 56 -8q38 -40 96 -64.5t164 -24.5q124 0 208.5 67.5t121.5 230.5l21 93q6 27 16 61h-2q-44 -79 -137 -130.5t-173 -51.5q-190 0 -264.5 116.5t-74.5 279.5zM256 372q0 -104 45 -181.5t158 -77.5q98 0 199.5 117.5t132.5 249.5l65 280
q-10 100 -65 138.5t-167 38.5q-152 0 -260 -169.5t-108 -395.5z" />
    <glyph glyph-name="uni01F8" unicode="&#x1f8;" horiz-adv-x="1438" 
d="M687 1733q-56 52 21 52h145q49 0 76 -37l111 -155q38 -53 -20 -53h-82q-46 0 -76 29zM100 0q-50 0 -37 55l305 1324q13 55 63 55h121q71 0 89 -50l388 -1060h4q9 46 17 80l224 975q13 55 63 55h92q50 0 37 -55l-305 -1324q-13 -55 -63 -55h-82q-70 0 -88 50l-413 1125h-4
q-8 -44 -16 -80l-240 -1040q-13 -55 -63 -55h-92z" />
    <glyph glyph-name="uni01F9" unicode="&#x1f9;" horiz-adv-x="1128" 
d="M515 1383q-38 52 22 52h101q54 0 75 -37l112 -195q30 -53 -19 -53h-64q-56 0 -77 29zM67 0q-45 0 -35 45l222 960q10 45 55 45h84q45 0 35 -45l-27 -120h4q59 73 153.5 127.5t214.5 54.5q170 0 232 -102.5t21 -280.5l-148 -639q-10 -45 -55 -45h-86q-45 0 -35 45l137 591
q45 196 -3 248.5t-158 52.5q-120 0 -218.5 -116.5t-133.5 -266.5l-118 -509q-10 -45 -55 -45h-86z" />
    <glyph glyph-name="AEacute" unicode="&#x1fc;" horiz-adv-x="1957" 
d="M1125 1540q-57 0 -4 53l155 155q37 37 86 37h169q77 0 7 -52l-221 -164q-40 -29 -86 -29h-106zM-46 0q-59 0 -13 66l924 1316q37 52 79 52h1049q55 0 45 -45l-17 -74q-10 -45 -66 -45h-693l-102 -444h633q54 0 44 -45l-17 -74q-10 -45 -65 -45h-633l-115 -498h723
q54 0 44 -45l-17 -74q-10 -45 -65 -45h-865q-50 0 -37 55l75 325h-474l-232 -331q-34 -49 -78 -49h-127zM506 544h397l167 726h-72q-30 -59 -66.5 -115t-68.5 -102z" />
    <glyph glyph-name="aeacute" unicode="&#x1fd;" horiz-adv-x="1698" 
d="M895 1150q-50 0 -5 53l166 195q32 37 87 37h121q59 0 6 -52l-206 -204q-30 -29 -85 -29h-84zM35 220q0 182 165.5 290t564.5 128l16 68q25 106 -10.5 168.5t-156.5 62.5q-92 0 -155 -24.5t-134 -92.5q-29 -28 -51 -3l-47 55q-24 28 15 60q88 72 196 103.5t192 31.5
q106 0 180 -31.5t111 -112.5h2q39 40 133 92t236 52q154 0 240 -92.5t86 -196.5q0 -142 -117.5 -212.5t-361.5 -120.5l-224 -46q-6 -38 -6 -40q0 -103 55 -174t173 -71q98 0 167.5 45t92.5 73q37 45 63 21l56 -51q23 -21 -6 -56q-31 -38 -121 -100.5t-276 -62.5
q-117 0 -205.5 48t-132.5 151h-2q-94 -92 -204 -145.5t-206 -53.5q-187 0 -257.5 63.5t-70.5 173.5zM217 242q0 -62 36.5 -93t124.5 -31q100 0 191.5 41.5t164.5 118.5q-25 100 5 229q-325 -21 -423.5 -95t-98.5 -170zM920 538l183 37q200 40 269.5 82.5t69.5 128.5
q0 68 -44.5 109.5t-138.5 41.5q-107 0 -201 -92t-138 -307z" />
    <glyph glyph-name="Oslashacute" unicode="&#x1fe;" horiz-adv-x="1514" 
d="M950 1586q-57 0 -4 53l155 155q37 37 86 37h169q77 0 7 -52l-221 -164q-40 -29 -86 -29h-106zM110 580q0 400 214 642t554 242q307 0 464 -165l133 118q41 36 71 2l40 -45q30 -34 -11 -71l-146 -130q66 -134 66 -319q0 -400 -214 -642t-554 -242q-308 0 -464 166
l-134 -119q-41 -36 -71 -2l-40 45q-30 34 11 71l147 131q-66 133 -66 318zM315 556q0 -85 18 -154l869 772q-107 134 -335 134q-220 0 -386 -183.5t-166 -568.5zM403 260q107 -134 335 -134q220 0 386 183.5t166 568.5q0 86 -19 155z" />
    <glyph glyph-name="oslashacute" unicode="&#x1ff;" horiz-adv-x="1148" 
d="M686 1189q-50 0 -5 53l166 195q32 37 87 37h121q59 0 6 -52l-206 -204q-30 -29 -85 -29h-84zM68 402q0 264 163.5 464.5t428.5 200.5q216 0 311 -114l75 64q34 29 58 2l39 -44q23 -26 -11 -56l-93 -80q41 -92 41 -191q0 -264 -163.5 -464.5t-428.5 -200.5
q-216 0 -311 114l-75 -64q-34 -29 -58 -2l-39 44q-23 26 11 56l93 80q-41 92 -41 191zM254 387q0 -25 2 -49l591 508q-60 91 -200 91q-156 0 -274.5 -141.5t-118.5 -408.5zM301 204q60 -91 200 -91q156 0 274.5 141.5t118.5 408.5q0 26 -2 49z" />
    <glyph glyph-name="uni0200" unicode="&#x200;" horiz-adv-x="1360" 
d="M396 1733q-52 52 21 52h107q66 0 88 -37l93 -155q32 -53 -20 -53h-53q-43 0 -72 29zM766 1733q-52 52 21 52h107q51 0 76 -37l105 -155q36 -53 -20 -53h-53q-43 0 -72 29zM-47 0q-51 0 -12 66l770 1307q36 61 80 61h140q41 0 52 -61l226 -1307q11 -66 -42 -66h-91
q-53 0 -61 49l-57 331h-615l-195 -331q-29 -49 -83 -49h-112zM441 544h488l-70 400q-13 72 -21 157.5t-8 159.5h-4q-18 -71 -56 -145t-95 -172z" />
    <glyph glyph-name="uni0201" unicode="&#x201;" horiz-adv-x="1099" 
d="M291 1383q-34 52 22 52h87q61 0 75 -37l72 -195q20 -53 -19 -53h-32q-54 0 -73 29zM591 1383q-34 52 22 52h87q61 0 75 -37l72 -195q20 -53 -19 -53h-32q-54 0 -73 29zM66 339q0 275 186.5 501.5t391.5 226.5q90 0 148 -37.5t86 -87.5h2l21 63q15 45 49 45h84
q45 0 35 -45l-222 -960q-10 -45 -55 -45h-81q-44 0 -35 45l25 120h-2q-49 -65 -130.5 -123.5t-181.5 -58.5q-145 0 -233 87.5t-88 268.5zM252 332q0 -66 35.5 -142.5t145.5 -76.5q90 0 199 119t139 248l67 290q0 90 -57.5 128.5t-142.5 38.5q-140 0 -263 -179.5t-123 -425.5
z" />
    <glyph glyph-name="uni0202" unicode="&#x202;" horiz-adv-x="1360" 
d="M551 1645q66 108 174.5 161t215.5 53q111 0 196.5 -57t120.5 -179q14 -48 -21 -58l-52 -15q-34 -10 -50 28q-26 60 -69.5 95.5t-141.5 35.5q-84 0 -154.5 -45t-111.5 -96q-26 -32 -57 -13l-45 28q-31 20 -5 62zM-47 0q-51 0 -12 66l770 1307q36 61 80 61h140q41 0 52 -61
l226 -1307q11 -66 -42 -66h-91q-53 0 -61 49l-57 331h-615l-195 -331q-29 -49 -83 -49h-112zM441 544h488l-70 400q-13 72 -21 157.5t-8 159.5h-4q-18 -71 -56 -145t-95 -172z" />
    <glyph glyph-name="uni0203" unicode="&#x203;" horiz-adv-x="1099" 
d="M987.916 1220q14.998 -41 -18.0029 -53l-48.001 -18q-31.001 -11 -43.999 22q-26.9951 67 -61.9932 105t-111.998 38q-90 0 -144.502 -42.5q-54.5029 -42.5 -93.5068 -103.5q-19.002 -31 -46.001 -15l-44.998 27q-30.999 18 -7.99707 55q64.0068 112 160.51 160.5
t195.503 48.5q106 0 163.997 -52t100.989 -172zM66 339q0 275 186.5 501.5t391.5 226.5q90 0 148 -37.5t86 -87.5h2l21 63q15 45 49 45h84q45 0 35 -45l-222 -960q-10 -45 -55 -45h-81q-44 0 -35 45l25 120h-2q-49 -65 -130.5 -123.5t-181.5 -58.5q-145 0 -233 87.5
t-88 268.5zM252 332q0 -66 35.5 -142.5t145.5 -76.5q90 0 199 119t139 248l67 290q0 90 -57.5 128.5t-142.5 38.5q-140 0 -263 -179.5t-123 -425.5z" />
    <glyph glyph-name="uni0204" unicode="&#x204;" horiz-adv-x="1270" 
d="M421 1733q-52 52 21 52h107q66 0 88 -37l93 -155q32 -53 -20 -53h-53q-43 0 -72 29zM791 1733q-52 52 21 52h107q51 0 76 -37l105 -155q36 -53 -20 -53h-53q-43 0 -72 29zM100 0q-50 0 -37 55l305 1324q13 55 63 55h875q55 0 45 -45l-17 -74q-11 -45 -66 -45h-733
l-102 -444h673q55 0 44 -45l-17 -74q-10 -45 -65 -45h-673l-115 -498h763q55 0 44 -45l-17 -74q-10 -45 -65 -45h-905z" />
    <glyph glyph-name="uni0205" unicode="&#x205;" horiz-adv-x="1078" 
d="M299 1383q-34 52 22 52h87q61 0 75 -37l72 -195q20 -53 -19 -53h-32q-54 0 -73 29zM599 1383q-34 52 22 52h87q61 0 75 -37l72 -195q20 -53 -19 -53h-32q-54 0 -73 29zM68 396q0 300 156.5 485.5t427.5 185.5q155 0 250.5 -88.5t95.5 -200.5q0 -148 -141.5 -218
t-350.5 -112l-246 -49q-6 -38 -6 -40q0 -99 54 -172t189 -73q115 0 185 42t95 76q35 47 63 21l59 -51q19 -17 -6 -56q-23 -36 -124 -99.5t-296 -63.5q-213 0 -309 123.5t-96 289.5zM265 538l205 40q140 27 246 74.5t106 133.5q0 68 -61.5 109.5t-141.5 41.5
q-121 0 -215.5 -92t-138.5 -307z" />
    <glyph glyph-name="uni0206" unicode="&#x206;" horiz-adv-x="1270" 
d="M576 1645q66 108 174.5 161t215.5 53q111 0 196.5 -57t120.5 -179q14 -48 -21 -58l-52 -15q-34 -10 -50 28q-26 60 -69.5 95.5t-141.5 35.5q-84 0 -154.5 -45t-111.5 -96q-26 -32 -57 -13l-45 28q-31 20 -5 62zM100 0q-50 0 -37 55l305 1324q13 55 63 55h875q55 0 45 -45
l-17 -74q-11 -45 -66 -45h-733l-102 -444h673q55 0 44 -45l-17 -74q-10 -45 -65 -45h-673l-115 -498h763q55 0 44 -45l-17 -74q-10 -45 -65 -45h-905z" />
    <glyph glyph-name="uni0207" unicode="&#x207;" horiz-adv-x="1078" 
d="M995.916 1220q14.998 -41 -18.0029 -53l-48.001 -18q-31.001 -11 -43.999 22q-26.9951 67 -61.9932 105t-111.998 38q-90 0 -144.502 -42.5q-54.5029 -42.5 -93.5068 -103.5q-19.002 -31 -46.001 -15l-44.998 27q-30.999 18 -7.99707 55q64.0068 112 160.51 160.5
t195.503 48.5q106 0 163.997 -52t100.989 -172zM68 396q0 300 156.5 485.5t427.5 185.5q155 0 250.5 -88.5t95.5 -200.5q0 -148 -141.5 -218t-350.5 -112l-246 -49q-6 -38 -6 -40q0 -99 54 -172t189 -73q115 0 185 42t95 76q35 47 63 21l59 -51q19 -17 -6 -56
q-23 -36 -124 -99.5t-296 -63.5q-213 0 -309 123.5t-96 289.5zM265 538l205 40q140 27 246 74.5t106 133.5q0 68 -61.5 109.5t-141.5 41.5q-121 0 -215.5 -92t-138.5 -307z" />
    <glyph glyph-name="uni0208" unicode="&#x208;" horiz-adv-x="532" 
d="M11 1733q-52 52 21 52h107q66 0 88 -37l93 -155q32 -53 -20 -53h-53q-43 0 -72 29zM381 1733q-52 52 21 52h107q51 0 76 -37l105 -155q36 -53 -20 -53h-53q-43 0 -72 29zM100 0q-50 0 -37 55l305 1324q13 55 63 55h92q50 0 37 -55l-305 -1324q-13 -55 -63 -55h-92z" />
    <glyph glyph-name="uni0209" unicode="&#x209;" horiz-adv-x="460" 
d="M3 1383q-34 52 22 52h87q61 0 75 -37l72 -195q20 -53 -19 -53h-32q-54 0 -73 29zM303 1383q-34 52 22 52h87q61 0 75 -37l72 -195q20 -53 -19 -53h-32q-54 0 -73 29zM67 0q-45 0 -35 45l222 960q10 45 55 45h86q45 0 35 -45l-222 -960q-10 -45 -55 -45h-86z" />
    <glyph glyph-name="uni020A" unicode="&#x20a;" horiz-adv-x="532" 
d="M166 1645q66 108 174.5 161t215.5 53q111 0 196.5 -57t120.5 -179q14 -48 -21 -58l-52 -15q-34 -10 -50 28q-26 60 -69.5 95.5t-141.5 35.5q-84 0 -154.5 -45t-111.5 -96q-26 -32 -57 -13l-45 28q-31 20 -5 62zM100 0q-50 0 -37 55l305 1324q13 55 63 55h92q50 0 37 -55
l-305 -1324q-13 -55 -63 -55h-92z" />
    <glyph glyph-name="uni020B" unicode="&#x20b;" horiz-adv-x="460" 
d="M699.916 1220q14.998 -41 -18.0029 -53l-48.001 -18q-31.001 -11 -43.999 22q-26.9951 67 -61.9932 105t-111.998 38q-90 0 -144.502 -42.5q-54.5029 -42.5 -93.5068 -103.5q-19.002 -31 -46.001 -15l-44.998 27q-30.999 18 -7.99707 55q64.0068 112 160.51 160.5
t195.503 48.5q106 0 163.997 -52t100.989 -172zM67 0q-45 0 -35 45l222 960q10 45 55 45h86q45 0 35 -45l-222 -960q-10 -45 -55 -45h-86z" />
    <glyph glyph-name="uni020C" unicode="&#x20c;" horiz-adv-x="1514" 
d="M110 580q0 400 214 642t554 242q305 0 461 -162.5t156 -447.5q0 -400 -214 -642t-554 -242q-305 0 -461 162.5t-156 447.5zM315 556q0 -205 106.5 -317.5t316.5 -112.5q220 0 386 183.5t166 568.5q0 205 -106.5 317.5t-316.5 112.5q-220 0 -386 -183.5t-166 -568.5z
M407 1733q-52 52 21 52h107q66 0 88 -37l93 -155q32 -53 -20 -53h-53q-43 0 -72 29zM777 1733q-52 52 21 52h107q51 0 76 -37l105 -155q36 -53 -20 -53h-53q-43 0 -72 29z" />
    <glyph glyph-name="uni020D" unicode="&#x20d;" horiz-adv-x="1148" 
d="M68 402q0 264 163.5 464.5t428.5 200.5q234 0 327 -134.5t93 -284.5q0 -264 -163.5 -464.5t-428.5 -200.5q-234 0 -327 134.5t-93 284.5zM254 387q0 -125 58.5 -199.5t188.5 -74.5q156 0 274.5 141.5t118.5 408.5q0 125 -58.5 199.5t-188.5 74.5q-156 0 -274.5 -141.5
t-118.5 -408.5zM307 1383q-34 52 22 52h87q61 0 75 -37l72 -195q20 -53 -19 -53h-32q-54 0 -73 29zM607 1383q-34 52 22 52h87q61 0 75 -37l72 -195q20 -53 -19 -53h-32q-54 0 -73 29z" />
    <glyph glyph-name="uni020E" unicode="&#x20e;" horiz-adv-x="1514" 
d="M561 1645q66 108 174.5 161t215.5 53q111 0 196.5 -57t120.5 -179q14 -48 -21 -58l-52 -15q-34 -10 -50 28q-26 60 -69.5 95.5t-141.5 35.5q-84 0 -154.5 -45t-111.5 -96q-26 -32 -57 -13l-45 28q-31 20 -5 62zM110 580q0 400 214 642t554 242q305 0 461 -162.5
t156 -447.5q0 -400 -214 -642t-554 -242q-305 0 -461 162.5t-156 447.5zM315 556q0 -205 106.5 -317.5t316.5 -112.5q220 0 386 183.5t166 568.5q0 205 -106.5 317.5t-316.5 112.5q-220 0 -386 -183.5t-166 -568.5z" />
    <glyph glyph-name="uni020F" unicode="&#x20f;" horiz-adv-x="1148" 
d="M1003.92 1220q14.998 -41 -18.0029 -53l-48.001 -18q-31.001 -11 -43.999 22q-26.9951 67 -61.9932 105t-111.998 38q-90 0 -144.502 -42.5q-54.5029 -42.5 -93.5068 -103.5q-19.002 -31 -46.001 -15l-44.998 27q-30.999 18 -7.99707 55q64.0068 112 160.51 160.5
t195.503 48.5q106 0 163.997 -52t100.989 -172zM68 402q0 264 163.5 464.5t428.5 200.5q234 0 327 -134.5t93 -284.5q0 -264 -163.5 -464.5t-428.5 -200.5q-234 0 -327 134.5t-93 284.5zM254 387q0 -125 58.5 -199.5t188.5 -74.5q156 0 274.5 141.5t118.5 408.5
q0 125 -58.5 199.5t-188.5 74.5q-156 0 -274.5 -141.5t-118.5 -408.5z" />
    <glyph glyph-name="uni0210" unicode="&#x210;" horiz-adv-x="1384" 
d="M390 1733q-52 52 21 52h107q66 0 88 -37l93 -155q32 -53 -20 -53h-53q-43 0 -72 29zM760 1733q-52 52 21 52h107q51 0 76 -37l105 -155q36 -53 -20 -53h-53q-43 0 -72 29zM100 0q-50 0 -37 55l305 1324q13 55 63 55h453q252 0 360 -108t108 -270q0 -165 -137.5 -274
t-333.5 -125l-1 -2q85 -76 109 -118.5t46 -103.5l131 -367q24 -66 -33 -66h-93q-48 0 -61 39l-116 357q-24 74 -95.5 149.5t-208.5 75.5h-174l-130 -566q-13 -55 -63 -55h-92zM423 785h309q180 0 302.5 62t122.5 191q0 144 -89.5 188t-235.5 44h-297z" />
    <glyph glyph-name="uni0211" unicode="&#x211;" horiz-adv-x="722" 
d="M204 1383q-34 52 22 52h87q61 0 75 -37l72 -195q20 -53 -19 -53h-32q-54 0 -73 29zM504 1383q-34 52 22 52h87q61 0 75 -37l72 -195q20 -53 -19 -53h-32q-54 0 -73 29zM67 0q-45 0 -35 45l222 960q10 45 55 45h84q45 0 35 -45l-37 -160h4q72 113 147.5 167.5t178.5 54.5
q59 0 83 -11q19 -8 10 -30l-33 -82q-7 -18 -29 -14q-34 7 -69 7q-109 0 -221 -141.5t-147 -291.5l-107 -459q-10 -45 -55 -45h-86z" />
    <glyph glyph-name="uni0212" unicode="&#x212;" horiz-adv-x="1384" 
d="M545 1645q66 108 174.5 161t215.5 53q111 0 196.5 -57t120.5 -179q14 -48 -21 -58l-52 -15q-34 -10 -50 28q-26 60 -69.5 95.5t-141.5 35.5q-84 0 -154.5 -45t-111.5 -96q-26 -32 -57 -13l-45 28q-31 20 -5 62zM100 0q-50 0 -37 55l305 1324q13 55 63 55h453
q252 0 360 -108t108 -270q0 -165 -137.5 -274t-333.5 -125l-1 -2q85 -76 109 -118.5t46 -103.5l131 -367q24 -66 -33 -66h-93q-48 0 -61 39l-116 357q-24 74 -95.5 149.5t-208.5 75.5h-174l-130 -566q-13 -55 -63 -55h-92zM423 785h309q180 0 302.5 62t122.5 191
q0 144 -89.5 188t-235.5 44h-297z" />
    <glyph glyph-name="uni0213" unicode="&#x213;" horiz-adv-x="722" 
d="M900.916 1220q14.998 -41 -18.0029 -53l-48.001 -18q-31.001 -11 -43.999 22q-26.9951 67 -61.9932 105t-111.998 38q-90 0 -144.502 -42.5q-54.5029 -42.5 -93.5068 -103.5q-19.002 -31 -46.001 -15l-44.998 27q-30.999 18 -7.99707 55q64.0068 112 160.51 160.5
t195.503 48.5q106 0 163.997 -52t100.989 -172zM67 0q-45 0 -35 45l222 960q10 45 55 45h84q45 0 35 -45l-37 -160h4q72 113 147.5 167.5t178.5 54.5q59 0 83 -11q19 -8 10 -30l-33 -82q-7 -18 -29 -14q-34 7 -69 7q-109 0 -221 -141.5t-147 -291.5l-107 -459
q-10 -45 -55 -45h-86z" />
    <glyph glyph-name="uni0214" unicode="&#x214;" horiz-adv-x="1402" 
d="M446 1733q-52 52 21 52h107q66 0 88 -37l93 -155q32 -53 -20 -53h-53q-43 0 -72 29zM816 1733q-52 52 21 52h107q51 0 76 -37l105 -155q36 -53 -20 -53h-53q-43 0 -72 29zM176 547l192 832q13 55 63 55h92q50 0 37 -55l-185 -802q-64 -280 -5 -365.5t240 -85.5
q146 0 262.5 85.5t180.5 365.5l185 802q13 55 63 55h92q50 0 37 -55l-192 -832q-73 -317 -234 -447t-430 -130q-199 0 -335 130t-63 447z" />
    <glyph glyph-name="uni0215" unicode="&#x215;" horiz-adv-x="1120" 
d="M332 1383q-34 52 22 52h87q61 0 75 -37l72 -195q20 -53 -19 -53h-32q-54 0 -73 29zM632 1383q-34 52 22 52h87q61 0 75 -37l72 -195q20 -53 -19 -53h-32q-54 0 -73 29zM104 366l148 639q10 45 55 45h86q45 0 35 -45l-136 -591q-45 -197 3 -249t153 -52q147 0 230 116.5
t118 266.5l118 509q10 45 55 45h86q45 0 35 -45l-222 -960q-10 -45 -55 -45h-84q-45 0 -35 45l28 120h-4q-59 -73 -154.5 -127.5t-210.5 -54.5q-160 0 -225 102.5t-24 280.5z" />
    <glyph glyph-name="uni0216" unicode="&#x216;" horiz-adv-x="1402" 
d="M601 1645q66 108 174.5 161t215.5 53q111 0 196.5 -57t120.5 -179q14 -48 -21 -58l-52 -15q-34 -10 -50 28q-26 60 -69.5 95.5t-141.5 35.5q-84 0 -154.5 -45t-111.5 -96q-26 -32 -57 -13l-45 28q-31 20 -5 62zM176 547l192 832q13 55 63 55h92q50 0 37 -55l-185 -802
q-64 -280 -5 -365.5t240 -85.5q146 0 262.5 85.5t180.5 365.5l185 802q13 55 63 55h92q50 0 37 -55l-192 -832q-73 -317 -234 -447t-430 -130q-199 0 -335 130t-63 447z" />
    <glyph glyph-name="uni0217" unicode="&#x217;" horiz-adv-x="1120" 
d="M1028.92 1220q14.998 -41 -18.0029 -53l-48.001 -18q-31.001 -11 -43.999 22q-26.9951 67 -61.9932 105t-111.998 38q-90 0 -144.502 -42.5q-54.5029 -42.5 -93.5068 -103.5q-19.002 -31 -46.001 -15l-44.998 27q-30.999 18 -7.99707 55q64.0068 112 160.51 160.5
t195.503 48.5q106 0 163.997 -52t100.989 -172zM104 366l148 639q10 45 55 45h86q45 0 35 -45l-136 -591q-45 -197 3 -249t153 -52q147 0 230 116.5t118 266.5l118 509q10 45 55 45h86q45 0 35 -45l-222 -960q-10 -45 -55 -45h-84q-45 0 -35 45l28 120h-4
q-59 -73 -154.5 -127.5t-210.5 -54.5q-160 0 -225 102.5t-24 280.5z" />
    <glyph glyph-name="uni021E" unicode="&#x21e;" horiz-adv-x="1422" 
d="M628 1650q-35 19 -14 51l28 41q21 32 59 13l257 -132h2l319 132q45 19 53 -13l14 -59q8 -32 -38 -51l-248 -104q-43 -18 -68 -18h-70q-25 0 -60 18zM100 0q-50 0 -37 55l305 1324q13 55 63 55h92q50 0 37 -55l-127 -551h698l127 551q13 55 63 55h92q50 0 37 -55
l-305 -1324q-13 -55 -63 -55h-92q-50 0 -37 55l140 609h-698l-140 -609q-13 -55 -63 -55h-92z" />
    <glyph glyph-name="uni021F" unicode="&#x21f;" horiz-adv-x="1128" 
d="M552 1752q-28 29 1 55l25 23q29 27 57 -2l172 -179h2l256 179q40 28 57 2l25 -39q17 -26 -25 -55l-234 -163q-37 -26 -62 -26h-50q-25 0 -50 26zM67 0q-45 0 -35 45l320 1386q10 45 56 45h86q44 0 34 -45l-112 -486q-6 -28 -15 -60h4q59 73 153.5 127.5t214.5 54.5
q170 0 232 -102.5t21 -280.5l-148 -639q-10 -45 -55 -45h-86q-45 0 -35 45l137 591q45 196 -3 248.5t-158 52.5q-120 0 -218.5 -116.5t-133.5 -266.5l-118 -509q-10 -45 -55 -45h-86z" />
    <glyph glyph-name="uni0226" unicode="&#x226;" horiz-adv-x="1360" 
d="M836 1545q-45 0 -35 45l24 102q10 45 55 45h102q45 0 35 -45l-24 -102q-10 -45 -55 -45h-102zM-47 0q-51 0 -12 66l770 1307q36 61 80 61h140q41 0 52 -61l226 -1307q11 -66 -42 -66h-91q-53 0 -61 49l-57 331h-615l-195 -331q-29 -49 -83 -49h-112zM441 544h488l-70 400
q-13 72 -21 157.5t-8 159.5h-4q-18 -71 -56 -145t-95 -172z" />
    <glyph glyph-name="uni0227" unicode="&#x227;" horiz-adv-x="1099" 
d="M640 1240q-45 0 -34 45l20 86q10 45 55 45h86q45 0 35 -45l-20 -86q-11 -45 -56 -45h-86zM66 339q0 275 186.5 501.5t391.5 226.5q90 0 148 -37.5t86 -87.5h2l21 63q15 45 49 45h84q45 0 35 -45l-222 -960q-10 -45 -55 -45h-81q-44 0 -35 45l25 120h-2
q-49 -65 -130.5 -123.5t-181.5 -58.5q-145 0 -233 87.5t-88 268.5zM252 332q0 -66 35.5 -142.5t145.5 -76.5q90 0 199 119t139 248l67 290q0 90 -57.5 128.5t-142.5 38.5q-140 0 -263 -179.5t-123 -425.5z" />
    <glyph glyph-name="uni022E" unicode="&#x22e;" horiz-adv-x="1514" 
d="M846 1545q-45 0 -35 45l24 102q10 45 55 45h102q45 0 35 -45l-24 -102q-10 -45 -55 -45h-102zM110 580q0 400 214 642t554 242q305 0 461 -162.5t156 -447.5q0 -400 -214 -642t-554 -242q-305 0 -461 162.5t-156 447.5zM315 556q0 -205 106.5 -317.5t316.5 -112.5
q220 0 386 183.5t166 568.5q0 205 -106.5 317.5t-316.5 112.5q-220 0 -386 -183.5t-166 -568.5z" />
    <glyph glyph-name="uni022F" unicode="&#x22f;" horiz-adv-x="1148" 
d="M656 1240q-45 0 -34 45l20 86q10 45 55 45h86q45 0 35 -45l-20 -86q-11 -45 -56 -45h-86zM68 402q0 264 163.5 464.5t428.5 200.5q234 0 327 -134.5t93 -284.5q0 -264 -163.5 -464.5t-428.5 -200.5q-234 0 -327 134.5t-93 284.5zM254 387q0 -125 58.5 -199.5t188.5 -74.5
q156 0 274.5 141.5t118.5 408.5q0 125 -58.5 199.5t-188.5 74.5q-156 0 -274.5 -141.5t-118.5 -408.5z" />
    <glyph glyph-name="uni0232" unicode="&#x232;" horiz-adv-x="1302" 
d="M570 1558q-45 0 -36 40l11 50q10 40 55 40h640q45 0 35 -40l-11 -50q-9 -40 -54 -40h-640zM250 1368q-27 66 42 66h93q44 0 61 -49l156 -437q14 -40 37.5 -109.5t37.5 -129.5h4q42 60 82.5 112t102.5 127l358 437q40 49 83 49h125q70 0 12 -66l-681 -778l-123 -535
q-13 -55 -63 -55h-92q-50 0 -37 55l123 535z" />
    <glyph glyph-name="uni0233" unicode="&#x233;" horiz-adv-x="1128" 
d="M467 1240q-45 0 -37 35l10 40q8 35 53 35h528q45 0 37 -35l-10 -40q-8 -35 -53 -35h-528zM106 366l148 639q10 45 55 45h86q45 0 35 -45l-136 -591q-45 -197 2.5 -249t157.5 -52q106 0 211.5 113.5t141.5 269.5l117 509q10 45 55 45h86q45 0 35 -45l-234 -1014
q-47 -205 -158 -306.5t-374 -101.5q-171 0 -236 33t-98 78q-29 40 2 68l56 52q32 29 50 0q30 -48 87 -74.5t170 -26.5q121 0 206.5 68.5t122.5 228.5q23 102 37 155h-4q-59 -73 -150 -127.5t-218 -54.5q-170 0 -232 102.5t-21 280.5z" />
    <glyph glyph-name="uni0237" unicode="&#x237;" horiz-adv-x="466" 
d="M-290 -397q-17 9 -10 32l25 81q8 26 29 15q35 -18 91 -18q59 0 101 57t83 236l231 999q10 45 55 45h86q45 0 35 -45l-253 -1098q-45 -194 -136 -259t-200 -65q-99 0 -137 20z" />
    <glyph glyph-name="uni0244" unicode="&#x244;" horiz-adv-x="1572" 
d="M134 644q-55 0 -45 45l17 74q10 45 66 45h149l132 571q13 55 63 55h92q50 0 37 -55l-132 -571h678l132 571q13 55 63 55h92q50 0 37 -55l-132 -571h1h150q55 0 44 -45l-17 -74q-10 -45 -65 -45h-150h-1l-22 -97q-73 -317 -234 -447t-430 -130q-199 0 -335 130t-63 447
l22 97h-149zM460 577q-64 -280 -5 -365.5t240 -85.5q146 0 262 85t181 366l15 67h-678z" />
    <glyph glyph-name="uni0245" unicode="&#x245;" horiz-adv-x="1338" 
d="M-47 0q-52 0 -12 66l789 1307q37 61 80 61h140q43 0 52 -61l185 -1307q9 -66 -42 -66h-90q-55 0 -61 49l-118 895q-8 59 -15 157t-7 160h-4q-26 -63 -81.5 -164t-86.5 -153l-532 -895q-29 -49 -83 -49h-114z" />
    <glyph glyph-name="uni0254" unicode="&#x254;" horiz-adv-x="1026" 
d="M37 164q-16 36 14 52l66 35q34 18 53 -25q14 -32 64 -72.5t147 -40.5q156 0 274.5 140t118.5 410q0 122 -58.5 198t-188.5 76q-103 0 -169 -53.5t-94 -95.5q-23 -35 -53 -14l-63 46q-29 21 -5 55q29 40 127 116t270 76q234 0 327 -133.5t93 -285.5q0 -265 -163.5 -465
t-428.5 -200q-162 0 -231 56.5t-100 124.5z" />
    <glyph glyph-name="uni0256" unicode="&#x256;" horiz-adv-x="1127" 
d="M70 379q0 255 161 471.5t379 216.5q111 0 173 -33.5t113 -101.5h2q2 20 12 61l101 438q10 45 55 45h86q45 0 35 -45l-329 -1425q-41 -177 -25 -235t72 -58q37 0 81 14q26 9 29 -14l13 -82q4 -24 -26 -32q-66 -16 -143 -16q-118 0 -174 87t-18 259l26 117q14 58 28 119h-2
q-44 -79 -137 -130.5t-173 -51.5q-190 0 -264.5 116.5t-74.5 279.5zM256 372q0 -104 45 -181.5t158 -77.5q98 0 199.5 117.5t132.5 249.5l65 280q-10 100 -65 138.5t-167 38.5q-152 0 -260 -169.5t-108 -395.5z" />
    <glyph glyph-name="uni0259" unicode="&#x259;" horiz-adv-x="1078" 
d="M82 272q0 148 141.5 218t350.5 112l246 49q6 38 6 40q0 99 -54 172t-189 73q-115 0 -185 -42t-95 -76q-35 -47 -63 -21l-59 51q-19 17 6 56q23 36 124 99.5t296 63.5q213 0 309 -123.5t96 -289.5q0 -300 -156.5 -485.5t-427.5 -185.5q-155 0 -250.5 88.5t-95.5 200.5z
M258 264q0 -68 61.5 -109.5t141.5 -41.5q121 0 215.5 92t138.5 307l-205 -40q-140 -27 -246 -74.5t-106 -133.5z" />
    <glyph glyph-name="uni025B" unicode="&#x25b;" horiz-adv-x="918" 
d="M46 246q0 96 66 186t206 121v3q-48 18 -82 61t-34 94q0 155 114 255.5t266 100.5q104 0 171 -25.5t123 -76.5q39 -36 7 -62l-58 -47q-20 -16 -59 18q-44 38 -92 50.5t-100 12.5q-80 0 -138 -64.5t-58 -154.5q0 -38 31 -71.5t112 -33.5h83q39 0 31 -35l-13 -60
q-8 -35 -48 -35h-82q-100 0 -180 -63.5t-80 -151.5t51 -121.5t143 -33.5q66 0 133 37.5t97 61.5q42 34 65 7l48 -57q23 -28 -9 -55q-42 -34 -139 -79t-216 -45q-163 0 -261 61.5t-98 201.5z" />
    <glyph glyph-name="uni025C" unicode="&#x25c;" horiz-adv-x="918" 
d="M196 107q-19 27 18 55l76 57q36 27 61 -7q18 -24 67 -61.5t115 -37.5q92 0 159.5 33.5t110.5 121.5t-6 151.5t-149 63.5h-82q-40 0 -31 35l16 60q9 35 48 35h83q81 0 128.5 33.5t65.5 71.5q44 90 17.5 154.5t-106.5 64.5q-52 0 -106 -12.5t-117 -50.5q-56 -34 -68 -18
l-35 47q-19 26 38 62q81 51 160 76.5t183 25.5q152 0 217 -100.5t-10 -255.5q-25 -51 -80 -94t-112 -61l-1 -3q125 -31 147 -121t-25 -186q-68 -140 -196 -201.5t-291 -61.5q-119 0 -194 45t-101 79z" />
    <glyph glyph-name="uni0263" unicode="&#x263;" horiz-adv-x="1010" 
d="M156 1001q-10 49 38 49h99q29 0 36 -39l106 -594q6 -31 10 -55t3 -51h4q11 27 23.5 51.5t31.5 54.5l380 594q25 39 54 39h119q49 0 16 -49l-542 -804q42 -103 66.5 -178t24.5 -136q0 -139 -84 -219t-244 -80q-111 0 -173 45t-62 142q0 87 61 191t202 250zM238 -216
q0 -18 12 -44t62 -26q60 0 98.5 43.5t38.5 98.5q0 35 -8 82t-37 142h-2q-72 -95 -118 -170.5t-46 -125.5z" />
    <glyph glyph-name="uni0265" unicode="&#x265;" horiz-adv-x="1120" 
d="M104 366l148 639q10 45 55 45h86q45 0 35 -45l-136 -591q-45 -197 3 -249t153 -52q147 0 230 116.5t118 266.5l118 509q10 45 55 45h86q45 0 35 -45l-314 -1360q-10 -45 -55 -45h-86q-45 0 -35 45l106 459q9 37 16 61h-4q-59 -73 -154.5 -127.5t-210.5 -54.5
q-160 0 -225 102.5t-24 280.5z" />
    <glyph glyph-name="uni0268" unicode="&#x268;" horiz-adv-x="640" 
d="M86 482q-45 0 -37 35l15 62q8 35 53 35h137l90 391q10 45 55 45h86q45 0 35 -45l-90 -391h137q45 0 37 -35l-15 -62q-8 -35 -53 -35h-137l-101 -437q-10 -45 -55 -45h-86q-45 0 -35 45l101 437h-137zM443 1240q-45 0 -34 45l20 86q10 45 55 45h86q45 0 35 -45l-20 -86
q-11 -45 -56 -45h-86z" />
    <glyph glyph-name="uni0269" unicode="&#x269;" horiz-adv-x="660" 
d="M87 283l167 722q10 45 55 45h86q45 0 35 -45l-173 -751q-20 -87 -1.5 -114t66.5 -27q28 0 69.5 16.5t63.5 30.5t33 -12l25 -61q8 -20 -21 -37q-51 -30 -116.5 -48.5t-133.5 -18.5q-108 0 -147 83t-8 217z" />
    <glyph glyph-name="uni026A" unicode="&#x26a;" horiz-adv-x="584" 
d="M25 0q-45 0 -37 35l14 60q8 35 53 35h59l182 790h-59q-45 0 -37 35l14 60q8 35 53 35h294q45 0 37 -35l-14 -60q-8 -35 -53 -35h-59l-182 -790h59q45 0 37 -35l-14 -60q-8 -35 -53 -35h-294z" />
    <glyph glyph-name="uni026F" unicode="&#x26f;" horiz-adv-x="1678" 
d="M104 366l148 639q10 45 55 45h86q45 0 35 -45l-135 -581q-45 -195 -13 -253t142 -58q90 0 189.5 120.5t132.5 262.5l118 509q10 45 55 45h86q45 0 35 -45l-135 -581q-45 -195 -13 -253t142 -58q90 0 188.5 116.5t133.5 266.5l118 509q10 45 55 45h86q45 0 35 -45
l-222 -960q-10 -45 -55 -45h-84q-45 0 -35 45l27 120h-4q-59 -72 -148.5 -127t-179.5 -55q-110 0 -172.5 69.5t-62.5 164.5h-4q-63 -82 -159.5 -158t-211.5 -76q-140 0 -207 102.5t-26 280.5z" />
    <glyph glyph-name="uni0271" unicode="&#x271;" horiz-adv-x="1678" 
d="M67 0q-45 0 -35 45l222 960q10 45 55 45h84q45 0 35 -45l-27 -120h4q59 72 148.5 127t179.5 55q110 0 172.5 -69.5t62.5 -164.5h4q63 82 159.5 158t211.5 76q140 0 207 -102.5t26 -280.5l-179 -777q-45 -194 -136 -259t-200 -65q-99 0 -137 20q-17 9 -10 32l25 81
q8 26 29 15q35 -18 91 -18q59 0 101 57t83 236l144 620q45 195 13 253t-142 58q-90 0 -189.5 -120.5t-132.5 -262.5l-118 -509q-10 -45 -55 -45h-86q-45 0 -35 45l135 581q45 195 13 253t-142 58q-90 0 -188.5 -116.5t-133.5 -266.5l-118 -509q-10 -45 -55 -45h-86z" />
    <glyph glyph-name="uni0275" unicode="&#x275;" horiz-adv-x="1148" 
d="M68 402q0 264 163.5 464.5t428.5 200.5q234 0 327 -134.5t93 -284.5q0 -264 -163.5 -464.5t-428.5 -200.5q-234 0 -327 134.5t-93 284.5zM254 387q0 -125 58.5 -199.5t188.5 -74.5q136 0 243.5 108.5t133.5 260.5h-620q-4 -45 -4 -95zM281 614h612q1 24 1 49
q0 125 -58.5 199.5t-188.5 74.5t-233.5 -98.5t-132.5 -224.5z" />
    <glyph glyph-name="uni0279" unicode="&#x279;" horiz-adv-x="722" 
d="M-90 24l33 82q7 18 29 14q34 -7 69 -7q109 0 221 141.5t147 291.5l107 459q10 45 55 45h86q45 0 35 -45l-222 -960q-10 -45 -55 -45h-84q-45 0 -35 45l37 160h-4q-72 -113 -147.5 -167.5t-178.5 -54.5q-59 0 -83 11q-19 8 -10 30z" />
    <glyph glyph-name="uni0283" unicode="&#x283;" horiz-adv-x="586" 
d="M-290 -397q-17 9 -10 32l25 81q8 26 29 15q35 -18 91 -18q59 0 101 57t83 236l276 1193q39 167 144 230.5t210 63.5q67 0 105 -7t91 -31q20 -9 6 -32l-50 -79q-13 -20 -37 -8q-19 10 -46.5 18.5t-62.5 8.5q-79 0 -123 -44.5t-68 -148.5l-291 -1263q-45 -194 -136 -259
t-200 -65q-99 0 -137 20z" />
    <glyph glyph-name="uni0287" unicode="&#x287;" horiz-adv-x="757" 
d="M3 35l14 62q8 35 53 35h213l147 637q24 105 -0.5 136.5t-59.5 31.5q-46 0 -95 -17.5t-66 -28.5q-22 -14 -29 6l-26 72q-6 18 11 29q41 26 119.5 47.5t167.5 21.5q88 0 138.5 -75t18.5 -212l-150 -648h118q45 0 37 -35l-14 -62q-8 -35 -53 -35h-118l-21 -90
q-5 -19 -19 -38l-99 -127q-27 -35 -39 -35h-35q-30 0 -22 35l59 255h-213q-45 0 -37 35z" />
    <glyph glyph-name="uni0289" unicode="&#x289;" horiz-adv-x="1302" 
d="M86 482q-45 0 -37 35l15 62q8 35 53 35h136l91 391q10 45 55 45h86q45 0 35 -45l-90 -391h485l91 391q10 45 55 45h86q45 0 35 -45l-90 -391h137q45 0 37 -35l-15 -62q-8 -35 -53 -35h-137l-101 -437q-10 -45 -55 -45h-84q-46 0 -35 45l28 120h-4q-59 -73 -154.5 -127.5
t-210.5 -54.5q-160 0 -225 102.5t-24 280.5l27 116h-137zM384 414q-45 -197 3 -249t153 -52q147 0 228 114t117 255h-485z" />
    <glyph glyph-name="uni028B" unicode="&#x28b;" horiz-adv-x="1024" 
d="M112 389l142 616q10 45 55 45h86q45 0 35 -45l-147 -637q-37 -160 2.5 -207.5t147.5 -47.5q120 0 231 155.5t111 371.5q0 93 -10.5 169.5t-44.5 156.5q-20 48 4 53l95 43q36 17 59 -23q47 -81 65 -174t18 -163q0 -299 -159 -509t-401 -210q-169 0 -253.5 97t-35.5 309z
" />
    <glyph glyph-name="uni028C" unicode="&#x28c;" horiz-adv-x="986" 
d="M-48 0q-44 0 -16 49l545 940q35 61 68 61h132q33 0 40 -61l111 -940q6 -49 -38 -49h-99q-32 0 -36 39l-60 660q-4 40 -7 91t-3 96h-4q-18 -45 -34.5 -75.5t-61.5 -111.5l-364 -660q-22 -39 -54 -39h-119z" />
    <glyph glyph-name="uni0292" unicode="&#x292;" horiz-adv-x="982" 
d="M-91 -266q-23 39 2 55l62 41q30 20 62 -19q25 -31 74 -64.5t153 -33.5q162 0 250 106.5t88 277.5q0 103 -64 156t-182 53h-83q-45 0 -37 35l16 68q7 31 40 63l461 446v2q-30 -2 -60 -2h-475q-45 0 -37 35l14 62q8 35 53 35h702q45 0 37 -35l-12 -51q-7 -32 -55 -78
l-459 -448v-4q144 0 234 -94.5t90 -228.5q0 -222 -132.5 -375t-388.5 -153q-164 0 -245 52.5t-108 98.5z" />
    <glyph glyph-name="uni02B9" unicode="&#x2b9;" horiz-adv-x="460" 
d="M280 894q-34 0 -24 45l125 556q12 55 49 55h105q41 0 23 -55l-186 -556q-15 -45 -46 -45h-46z" />
    <glyph glyph-name="uni02BA" unicode="&#x2ba;" horiz-adv-x="837" 
d="M280 894q-34 0 -24 45l125 556q12 55 49 55h105q41 0 23 -55l-186 -556q-15 -45 -46 -45h-46zM657 894q-34 0 -24 45l125 556q12 55 49 55h105q41 0 23 -55l-186 -556q-15 -45 -46 -45h-46z" />
    <glyph glyph-name="circumflex" unicode="&#x2c6;" horiz-adv-x="614" 
d="M164 1190q-17 26 25 55l234 163q37 26 62 26h50q25 0 50 -26l174 -179q28 -29 -1 -55l-25 -23q-29 -27 -57 2l-172 179h-2l-256 -179q-40 -28 -57 -2z" />
    <glyph glyph-name="caron" unicode="&#x2c7;" horiz-adv-x="614" 
d="M209 1343q-28 29 1 55l25 23q29 27 57 -2l172 -179h2l256 179q40 28 57 2l25 -39q17 -26 -25 -55l-234 -163q-37 -26 -62 -26h-50q-25 0 -50 26z" />
    <glyph glyph-name="uni02CA" unicode="&#x2ca;" horiz-adv-x="614" 
d="M335 1150q-50 0 -5 53l166 195q32 37 87 37h121q59 0 6 -52l-206 -204q-30 -29 -85 -29h-84z" />
    <glyph glyph-name="uni02CB" unicode="&#x2cb;" horiz-adv-x="614" 
d="M369 1383q-38 52 22 52h101q54 0 75 -37l112 -195q30 -53 -19 -53h-64q-56 0 -77 29z" />
    <glyph glyph-name="uni02CE" unicode="&#x2ce;" horiz-adv-x="614" 
d="M-29 -339q-38 52 22 52h101q54 0 75 -37l112 -195q30 -53 -19 -53h-64q-56 0 -77 29z" />
    <glyph glyph-name="uni02CF" unicode="&#x2cf;" horiz-adv-x="614" 
d="M-63 -572q-50 0 -5 53l166 195q32 37 87 37h121q59 0 6 -52l-206 -204q-30 -29 -85 -29h-84z" />
    <glyph glyph-name="breve" unicode="&#x2d8;" horiz-adv-x="614" 
d="M188 1370q-15 41 18 53l48 18q31 11 44 -22q27 -67 62 -105t112 -38q90 0 144.5 42.5t93.5 103.5q19 31 46 15l45 -27q31 -18 8 -55q-64 -112 -160.5 -160.5t-195.5 -48.5q-106 0 -164 52t-101 172z" />
    <glyph glyph-name="dotaccent" unicode="&#x2d9;" horiz-adv-x="614" 
d="M430 1240q-45 0 -34 45l20 86q10 45 55 45h86q45 0 35 -45l-20 -86q-11 -45 -56 -45h-86z" />
    <glyph glyph-name="ring" unicode="&#x2da;" horiz-adv-x="614" 
d="M310 1313q0 75 52.5 127.5t127.5 52.5t127.5 -52.5t52.5 -127.5t-52.5 -127.5t-127.5 -52.5t-127.5 52.5t-52.5 127.5zM386 1313q0 -44 30 -74t74 -30t74 30t30 74t-30 74t-74 30t-74 -30t-30 -74z" />
    <glyph glyph-name="ogonek" unicode="&#x2db;" horiz-adv-x="614" 
d="M-64 -284q0 52 17.5 93.5t63.5 80t147 104.5q19 13 27 51h171q-7 -30 -27 -45q-94 -70 -166.5 -128t-72.5 -105q0 -27 15 -40.5t51 -13.5q43 0 73 6q25 5 27 -22l6 -77q2 -24 -18 -28q-58 -9 -118 -9q-100 0 -148 37.5t-48 95.5z" />
    <glyph glyph-name="tilde" unicode="&#x2dc;" horiz-adv-x="614" 
d="M172 1175q-22 10 -12 44q21 71 71.5 116t130.5 45q68 0 138 -55t109 -55q43 0 64 22t37 60q13 30 37 20l39 -17q22 -10 12 -44q-21 -71 -71.5 -116t-130.5 -45q-68 0 -138 55t-109 55q-43 0 -64 -22t-37 -60q-13 -30 -37 -20z" />
    <glyph glyph-name="hungarumlaut" unicode="&#x2dd;" horiz-adv-x="614" 
d="M488 1150q-39 0 -5 53l126 195q24 37 87 37h107q54 0 6 -52l-188 -204q-27 -29 -81 -29h-52zM188 1150q-39 0 -5 53l126 195q24 37 87 37h107q54 0 6 -52l-188 -204q-27 -29 -81 -29h-52z" />
    <glyph glyph-name="uni02EE" unicode="&#x2ee;" horiz-adv-x="760" 
d="M657 1257q-46 0 -35 45l29 122q11 45 55 45h116q46 0 35 -45l-29 -122q-30 -127 -67.5 -192t-115.5 -127q-26 -20 -38 -7l-37 40q-14 15 13 35q35 26 74 88.5t52 117.5h-52zM327 1257q-46 0 -35 45l29 122q11 45 55 45h116q46 0 35 -45l-29 -122q-30 -127 -67.5 -192
t-115.5 -127q-26 -20 -38 -7l-37 40q-14 15 13 35q35 26 74 88.5t52 117.5h-52z" />
    <glyph glyph-name="gravecomb" unicode="&#x300;" 
d="M-245 1383q-38 52 22 52h101q54 0 75 -37l112 -195q30 -53 -19 -53h-64q-56 0 -77 29z" />
    <glyph glyph-name="acutecomb" unicode="&#x301;" 
d="M-279 1150q-50 0 -5 53l166 195q32 37 87 37h121q59 0 6 -52l-206 -204q-30 -29 -85 -29h-84z" />
    <glyph glyph-name="uni0302" unicode="&#x302;" 
d="M-450 1190q-17 26 25 55l234 163q37 26 62 26h50q25 0 50 -26l174 -179q28 -29 -1 -55l-25 -23q-29 -27 -57 2l-172 179h-2l-256 -179q-40 -28 -57 -2z" />
    <glyph glyph-name="tildecomb" unicode="&#x303;" 
d="M-442 1175q-22 10 -12 44q21 71 71.5 116t130.5 45q68 0 138 -55t109 -55q43 0 64 22t37 60q13 30 37 20l39 -17q22 -10 12 -44q-21 -71 -71.5 -116t-130.5 -45q-68 0 -138 55t-109 55q-43 0 -64 -22t-37 -60q-13 -30 -37 -20z" />
    <glyph glyph-name="uni0304" unicode="&#x304;" 
d="M-405 1240q-45 0 -37 35l10 40q8 35 53 35h528q45 0 37 -35l-10 -40q-8 -35 -53 -35h-528z" />
    <glyph glyph-name="uni0305" unicode="&#x305;" 
d="M-902 1220q-45 0 -45 35v60q0 35 45 35h1058q45 0 45 -35v-60q0 -35 -45 -35h-1058z" />
    <glyph glyph-name="uni0306" unicode="&#x306;" 
d="M-426 1370q-15 41 18 53l48 18q31 11 44 -22q27 -67 62 -105t112 -38q90 0 144.5 42.5t93.5 103.5q19 31 46 15l45 -27q31 -18 8 -55q-64 -112 -160.5 -160.5t-195.5 -48.5q-106 0 -164 52t-101 172z" />
    <glyph glyph-name="uni0307" unicode="&#x307;" 
d="M-184 1240q-45 0 -34 45l20 86q10 45 55 45h86q45 0 35 -45l-20 -86q-11 -45 -56 -45h-86z" />
    <glyph glyph-name="uni0308" unicode="&#x308;" 
d="M-387 1240q-45 0 -34 45l20 86q10 45 55 45h86q45 0 35 -45l-20 -86q-11 -45 -56 -45h-86zM19 1240q-45 0 -34 45l20 86q10 45 55 45h86q45 0 35 -45l-20 -86q-11 -45 -56 -45h-86z" />
    <glyph glyph-name="uni030A" unicode="&#x30a;" 
d="M-304 1313q0 75 52.5 127.5t127.5 52.5t127.5 -52.5t52.5 -127.5t-52.5 -127.5t-127.5 -52.5t-127.5 52.5t-52.5 127.5zM-228 1313q0 -44 30 -74t74 -30t74 30t30 74t-30 74t-74 30t-74 -30t-30 -74z" />
    <glyph glyph-name="uni030B" unicode="&#x30b;" 
d="M-126 1150q-39 0 -5 53l126 195q24 37 87 37h107q54 0 6 -52l-188 -204q-27 -29 -81 -29h-52zM-426 1150q-39 0 -5 53l126 195q24 37 87 37h107q54 0 6 -52l-188 -204q-27 -29 -81 -29h-52z" />
    <glyph glyph-name="uni030C" unicode="&#x30c;" 
d="M-405 1343q-28 29 1 55l25 23q29 27 57 -2l172 -179h2l256 179q40 28 57 2l25 -39q17 -26 -25 -55l-234 -163q-37 -26 -62 -26h-50q-25 0 -50 26z" />
    <glyph glyph-name="uni030F" unicode="&#x30f;" 
d="M-433 1383q-34 52 22 52h87q61 0 75 -37l72 -195q20 -53 -19 -53h-32q-54 0 -73 29zM-133 1383q-34 52 22 52h87q61 0 75 -37l72 -195q20 -53 -19 -53h-32q-54 0 -73 29z" />
    <glyph glyph-name="uni0311" unicode="&#x311;" 
d="M199.916 1220q14.998 -41 -18.0029 -53l-48.001 -18q-31.001 -11 -43.999 22q-26.9951 67 -61.9932 105t-111.998 38q-90 0 -144.502 -42.5q-54.5029 -42.5 -93.5068 -103.5q-19.002 -31 -46.001 -15l-44.998 27q-30.999 18 -7.99707 55q64.0068 112 160.51 160.5
t195.503 48.5q106 0 163.997 -52t100.989 -172z" />
    <glyph glyph-name="uni0315" unicode="&#x315;" 
d="M180 1551q-46 0 -35 45l29 122q11 45 55 45h116q46 0 35 -45l-29 -122q-30 -127 -67.5 -192t-115.5 -127q-26 -20 -38 -7l-37 40q-14 15 13 35q35 26 74 88.5t52 117.5h-52z" />
    <glyph glyph-name="uni0316" unicode="&#x316;" 
d="M-643 -339q-38 52 22 52h101q54 0 75 -37l112 -195q30 -53 -19 -53h-64q-56 0 -77 29z" />
    <glyph glyph-name="uni0317" unicode="&#x317;" 
d="M-677 -572q-50 0 -5 53l166 195q32 37 87 37h121q59 0 6 -52l-206 -204q-30 -29 -85 -29h-84z" />
    <glyph glyph-name="dotbelowcomb" unicode="&#x323;" 
d="M-544 -318q-45 0 -34 45l20 86q10 45 55 45h86q45 0 35 -45l-20 -86q-11 -45 -56 -45h-86z" />
    <glyph glyph-name="uni0324" unicode="&#x324;" 
d="M-747 -318q-45 0 -34 45l20 86q10 45 55 45h86q45 0 35 -45l-20 -86q-11 -45 -56 -45h-86zM-341 -318q-45 0 -34 45l20 86q10 45 55 45h86q45 0 35 -45l-20 -86q-11 -45 -56 -45h-86z" />
    <glyph glyph-name="uni0325" unicode="&#x325;" 
d="M-683 -329q0 75 52.5 127.5t127.5 52.5t127.5 -52.5t52.5 -127.5t-52.5 -127.5t-127.5 -52.5t-127.5 52.5t-52.5 127.5zM-607 -329q0 -44 30 -74t74 -30t74 30t30 74t-30 74t-74 30t-74 -30t-30 -74z" />
    <glyph glyph-name="uni0327" unicode="&#x327;" 
d="M-688 -395q-21 8 -11 36l13 38q11 32 40 17q24 -12 86 -12q48 0 79 19t31 52q0 25 -24.5 40.5t-73.5 15.5h-28q-22 0 -18 25q7 42 18 55l89 109q18 22 45 22h69q32 0 14 -22l-78 -96l-1 -3q67 -13 90 -43t23 -89q0 -82 -70 -133.5t-168 -51.5q-69 0 -125 21z" />
    <glyph glyph-name="uni0328" unicode="&#x328;" 
d="M-678 -284q0 52 17.5 93.5t63.5 80t147 104.5q19 13 27 51h171q-7 -30 -27 -45q-94 -70 -166.5 -128t-72.5 -105q0 -27 15 -40.5t51 -13.5q43 0 73 6q25 5 27 -22l6 -77q2 -24 -18 -28q-58 -9 -118 -9q-100 0 -148 37.5t-48 95.5z" />
    <glyph glyph-name="uni032C" unicode="&#x32c;" 
d="M-769 -234q-28 29 1 55l25 23q29 27 57 -2l172 -179h2l256 179q40 28 57 2l25 -39q17 -26 -25 -55l-234 -163q-37 -26 -62 -26h-50q-25 0 -50 26z" />
    <glyph glyph-name="uni032D" unicode="&#x32d;" 
d="M-814 -387q-17 26 25 55l234 163q37 26 62 26h50q25 0 50 -26l174 -179q28 -29 -1 -55l-25 -23q-29 -27 -57 2l-172 179h-2l-256 -179q-40 -28 -57 -2z" />
    <glyph glyph-name="uni032E" unicode="&#x32e;" 
d="M-793 -218q-15 41 18 53l48 18q31 11 44 -22q27 -67 62 -105t112 -38q90 0 144.5 42.5t93.5 103.5q19 31 46 15l45 -27q31 -18 8 -55q-64 -112 -160.5 -160.5t-195.5 -48.5q-106 0 -164 52t-101 172z" />
    <glyph glyph-name="uni032F" unicode="&#x32f;" 
d="M-200.084 -513q14.998 -41 -18.0029 -53l-48.001 -18q-31.001 -11 -43.999 22q-26.9951 67 -61.9932 105t-111.998 38q-90 0 -144.502 -42.5q-54.5029 -42.5 -93.5068 -103.5q-19.002 -31 -46.001 -15l-44.998 27q-30.999 18 -7.99707 55q64.0068 112 160.51 160.5
t195.503 48.5q106 0 163.997 -52t100.989 -172z" />
    <glyph glyph-name="uni0330" unicode="&#x330;" 
d="M-824 -481q-22 10 -12 44q21 71 71.5 116t130.5 45q68 0 138 -55t109 -55q43 0 64 22t37 60q13 30 37 20l39 -17q22 -10 12 -44q-21 -71 -71.5 -116t-130.5 -45q-68 0 -138 55t-109 55q-43 0 -64 -22t-37 -60q-13 -30 -37 -20z" />
    <glyph glyph-name="uni0331" unicode="&#x331;" 
d="M-779 -380q-45 0 -37 35l10 40q8 35 53 35h528q45 0 37 -35l-10 -40q-8 -35 -53 -35h-528z" />
    <glyph glyph-name="uni0332" unicode="&#x332;" 
d="M-1274 -390q-45 0 -45 35v60q0 35 45 35h1058q45 0 45 -35v-60q0 -35 -45 -35h-1058z" />
    <glyph glyph-name="uni0334" unicode="&#x334;" 
d="M-601 485q-22 10 -12 44q21 71 71.5 116t130.5 45q68 0 138 -55t109 -55q43 0 64 22t37 60q13 30 37 20l39 -17q22 -10 12 -44q-21 -71 -71.5 -116t-130.5 -45q-68 0 -138 55t-109 55q-43 0 -64 -22t-37 -60q-13 -30 -37 -20z" />
    <glyph glyph-name="uni0338" unicode="&#x338;" 
d="M-1028 -388q-30 15 -4 56l1124 1771q27 43 57 28l47 -24q28 -14 2 -55l-1124 -1771q-27 -43 -55 -29z" />
    <glyph glyph-name="Sigma" unicode="&#x3a3;" horiz-adv-x="1208" 
d="M9 0q-55 0 -45 45l11 48q10 46 51 89l515 552q34 37 16 72l-257 493q-14 27 -6 61l7 29q11 45 65 45h898q55 0 45 -45l-17 -74q-10 -45 -66 -45h-628q-40 0 -79 2l-1 -4l257 -498q17 -33 -15 -67l-506 -537l-1 -4q27 2 81 2h665q54 0 44 -45l-17 -74q-10 -45 -65 -45
h-952z" />
    <glyph glyph-name="uni0400" unicode="&#x400;" horiz-adv-x="1270" 
d="M644 1733q-56 52 21 52h145q49 0 76 -37l111 -155q38 -53 -20 -53h-82q-46 0 -76 29zM100 0q-50 0 -37 55l305 1324q13 55 63 55h875q55 0 45 -45l-17 -74q-11 -45 -66 -45h-733l-102 -444h673q55 0 44 -45l-17 -74q-10 -45 -65 -45h-673l-115 -498h763q55 0 44 -45
l-17 -74q-10 -45 -65 -45h-905z" />
    <glyph glyph-name="afii10023" unicode="&#x401;" horiz-adv-x="1270" 
d="M628 1550q-45 0 -35 45l21 92q11 45 56 45h92q45 0 34 -45l-21 -92q-10 -45 -55 -45h-92zM1106 1550q-45 0 -35 45l21 92q11 45 56 45h92q45 0 34 -45l-21 -92q-10 -45 -55 -45h-92zM100 0q-50 0 -37 55l305 1324q13 55 63 55h875q55 0 45 -45l-17 -74q-11 -45 -66 -45
h-733l-102 -444h673q55 0 44 -45l-17 -74q-10 -45 -65 -45h-673l-115 -498h763q55 0 44 -45l-17 -74q-10 -45 -65 -45h-905z" />
    <glyph glyph-name="afii10051" unicode="&#x402;" horiz-adv-x="1600" 
d="M265 1270q-55 0 -45 45l17 74q10 45 66 45h1058q54 0 44 -45l-17 -74q-10 -45 -65 -45h-463l-97 -419q-11 -47 -21 -80h4q80 35 162 66t189 31q199 0 296 -107t97 -279q0 -242 -126 -380t-358 -138q-87 0 -153 18q-40 10 -26 49l27 81q8 24 54 16q44 -7 86 -7
q164 0 227.5 97t63.5 230q0 137 -47 201.5t-176 64.5q-59 0 -161.5 -20t-186.5 -57l-135 -582q-13 -55 -63 -55h-92q-50 0 -37 55l281 1215h-403z" />
    <glyph glyph-name="afii10052" unicode="&#x403;" horiz-adv-x="1106" 
d="M100 0q-50 0 -37 55l305 1324q13 55 63 55h795q55 0 45 -45l-17 -74q-11 -45 -66 -45h-653l-280 -1215q-13 -55 -63 -55h-92zM698 1540q-57 0 -4 53l155 155q37 37 86 37h169q77 0 7 -52l-221 -164q-40 -29 -86 -29h-106z" />
    <glyph glyph-name="afii10053" unicode="&#x404;" horiz-adv-x="1382" 
d="M110 580q0 395 204.5 639.5t593.5 244.5q184 0 289.5 -52.5t161.5 -154.5q28 -50 -16 -81l-73 -53q-26 -18 -55 23q-36 53 -112.5 107.5t-211.5 54.5q-250 0 -380.5 -146.5t-169.5 -328.5h683q54 0 44 -45l-17 -74q-10 -45 -65 -45h-667q-4 -54 -4 -112
q0 -182 88.5 -306.5t333.5 -124.5q136 0 228 65t150 132q47 54 81 28l85 -65q30 -24 -15 -79q-90 -108 -214.5 -172.5t-341.5 -64.5q-314 0 -457 172.5t-143 437.5z" />
    <glyph glyph-name="afii10054" unicode="&#x405;" horiz-adv-x="1217" 
d="M84 112q-50 49 -20 86l57 70q31 38 86 -13q65 -61 141 -95t194 -34q100 0 169 28.5t122.5 83t53.5 135.5q0 43 -12.5 89t-52 81t-87.5 54q-55 22 -117 42.5t-138 58.5q-64 32 -110 81t-73 117t-27 145q0 141 90 250.5t201 141t206 31.5q133 0 223 -33t164 -90
q49 -38 17 -80l-58 -75q-23 -30 -69 8q-36 30 -118 65t-171 35q-57 0 -123 -19t-118 -77.5t-52 -142.5q0 -44 12 -84.5t44.5 -70.5t69.5 -48q58 -28 119.5 -48t111.5 -40q80 -32 146.5 -83t95.5 -128.5t29 -147.5q0 -141 -76 -236t-187 -147t-301 -52q-164 0 -271 40
t-171 102z" />
    <glyph glyph-name="afii10055" unicode="&#x406;" horiz-adv-x="532" 
d="M100 0q-50 0 -37 55l305 1324q13 55 63 55h92q50 0 37 -55l-305 -1324q-13 -55 -63 -55h-92z" />
    <glyph glyph-name="afii10056" unicode="&#x407;" horiz-adv-x="532" 
d="M100 0q-50 0 -37 55l305 1324q13 55 63 55h92q50 0 37 -55l-305 -1324q-13 -55 -63 -55h-92zM261 1550q-45 0 -35 45l21 92q11 45 56 45h92q45 0 34 -45l-21 -92q-10 -45 -55 -45h-92zM655 1550q-45 0 -35 45l21 92q11 45 56 45h92q45 0 34 -45l-21 -92q-10 -45 -55 -45
h-92z" />
    <glyph glyph-name="afii10057" unicode="&#x408;" horiz-adv-x="824" 
d="M-37 29q-35 21 -13 65l36 71q26 52 76 14q70 -53 132 -53q97 0 152 65t83 187l231 1001q13 55 63 55h92q50 0 37 -55l-225 -978q-40 -176 -132 -303.5t-320 -127.5q-116 0 -212 59z" />
    <glyph glyph-name="afii10058" unicode="&#x409;" horiz-adv-x="2250" 
d="M-46 -17q-31 11 -21 46l25 83q11 37 57 23q26 -8 77 -8q169 0 271.5 263.5t199.5 686.5l69 302q13 55 63 55h770q50 0 37 -55l-127 -551h268q292 0 399 -106.5t107 -267.5q0 -184 -160 -319t-497 -135h-450q-50 0 -37 55l280 1215h-512l-57 -249q-144 -628 -272.5 -839.5
t-364.5 -211.5q-88 0 -125 13zM1222 164h276q215 0 330.5 74t115.5 206q0 141 -93 180.5t-278 39.5h-236z" />
    <glyph glyph-name="afii10059" unicode="&#x40a;" horiz-adv-x="2198" 
d="M100 0q-50 0 -37 55l305 1324q13 55 63 55h92q50 0 37 -55l-127 -551h698l127 551q13 55 63 55h92q50 0 37 -55l-127 -551h268q292 0 399 -106.5t107 -267.5q0 -184 -160 -319t-497 -135h-450q-50 0 -37 55l140 609h-698l-140 -609q-13 -55 -63 -55h-92zM1170 164h276
q215 0 330.5 74t115.5 206q0 141 -93 180.5t-278 39.5h-236z" />
    <glyph glyph-name="afii10060" unicode="&#x40b;" horiz-adv-x="1630" 
d="M264 1270q-55 0 -44 45l17 74q10 45 65 45h1058q55 0 45 -45l-17 -74q-11 -45 -66 -45h-463l-96 -419q-10 -42 -21 -80h4q104 41 202.5 69t254.5 28t237.5 -102t49.5 -244l-107 -467q-13 -55 -63 -55h-92q-50 0 -37 55l96 419q32 141 -3.5 190.5t-146.5 49.5
q-54 0 -192 -19t-232 -58l-134 -582q-13 -55 -63 -55h-92q-50 0 -37 55l280 1215h-403z" />
    <glyph glyph-name="afii10061" unicode="&#x40c;" horiz-adv-x="1270" 
d="M100 0q-50 0 -37 55l305 1324q13 55 63 55h92q50 0 37 -55l-130 -566h42q114 0 185.5 57t150.5 144l348 381q36 39 79 39h137q65 0 3 -66l-408 -436q-71 -76 -150.5 -131.5t-107.5 -65.5l-1 -1q57 -26 119 -91t92 -137l186 -440q28 -66 -33 -66h-107q-47 0 -61 39
l-136 369q-40 108 -125.5 176.5t-192.5 68.5h-57l-138 -598q-13 -55 -63 -55h-92zM777 1540q-57 0 -4 53l155 155q37 37 86 37h169q77 0 7 -52l-221 -164q-40 -29 -86 -29h-106z" />
    <glyph glyph-name="uni040D" unicode="&#x40d;" horiz-adv-x="1452" 
d="M694 1733q-56 52 21 52h145q49 0 76 -37l111 -155q38 -53 -20 -53h-82q-46 0 -76 29zM100 0q-50 0 -37 55l305 1324q13 55 63 55h92q50 0 37 -55l-233 -1009q-10 -45 -20 -80h4l893 1094q41 50 111 50h128q50 0 37 -55l-305 -1324q-13 -55 -63 -55h-92q-50 0 -37 55
l233 1009q10 45 20 80h-4l-892 -1094q-41 -50 -112 -50h-128z" />
    <glyph glyph-name="afii10062" unicode="&#x40e;" horiz-adv-x="1316" 
d="M262 1368q-19 66 42 66h86q47 0 61 -49l176 -639q17 -61 32 -137.5t24 -137.5h4q34 78 80.5 154.5t84.5 136.5l393 623q31 49 83 49h118q55 0 12 -66l-677 -1037q-118 -182 -222.5 -271.5t-279.5 -89.5q-125 0 -191 44q-28 18 -11 51l41 82q18 38 58 14q56 -34 116 -34
q81 0 136 34t91 88l42 63zM582 1819q5 48 59 48h83q42 0 38 -48l-3 -32q-5 -55 37 -79t123 -24q131 0 213 58.5t121 112.5q25 35 53 16l39 -27q25 -17 -2 -55q-95 -133 -191 -187t-265 -54q-155 0 -237.5 61t-73.5 152z" />
    <glyph glyph-name="afii10145" unicode="&#x40f;" horiz-adv-x="1410" 
d="M100 0q-50 0 -37 55l305 1324q13 55 63 55h92q50 0 37 -55l-280 -1215h686l280 1215q13 55 63 55h92q50 0 37 -55l-305 -1324q-13 -55 -63 -55h-402l-74 -320q-11 -50 -51 -50h-86q-40 0 -29 50l74 320h-402z" />
    <glyph glyph-name="afii10017" unicode="&#x410;" horiz-adv-x="1360" 
d="M-47 0q-51 0 -12 66l770 1307q36 61 80 61h140q41 0 52 -61l226 -1307q11 -66 -42 -66h-91q-53 0 -61 49l-57 331h-615l-195 -331q-29 -49 -83 -49h-112zM441 544h488l-70 400q-13 72 -21 157.5t-8 159.5h-4q-18 -71 -56 -145t-95 -172z" />
    <glyph glyph-name="afii10018" unicode="&#x411;" horiz-adv-x="1330" 
d="M100 0q-50 0 -37 55l305 1324q13 55 63 55h835q55 0 45 -45l-17 -74q-10 -45 -66 -45h-693l-101 -438h278q310 0 408 -113t98 -256q0 -191 -160.5 -327t-497.5 -136h-460zM280 164h286q215 0 331 76.5t116 211.5q0 120 -80.5 168t-290.5 48h-246z" />
    <glyph glyph-name="afii10019" unicode="&#x412;" horiz-adv-x="1338" 
d="M100 0q-50 0 -37 55l305 1324q13 55 63 55h370q273 0 379 -100.5t106 -249.5q0 -139 -95.5 -221.5t-237.5 -112.5v-3q103 -21 183.5 -100.5t80.5 -215.5q0 -167 -151 -299t-496 -132h-470zM280 164h296q210 0 323 71t113 204q0 121 -102.5 173t-278.5 52h-236zM429 808
h271q142 0 266.5 76t124.5 192q0 103 -73 148.5t-252 45.5h-231z" />
    <glyph glyph-name="afii10020" unicode="&#x413;" horiz-adv-x="1106" 
d="M100 0q-50 0 -37 55l305 1324q13 55 63 55h795q55 0 45 -45l-17 -74q-11 -45 -66 -45h-653l-280 -1215q-13 -55 -63 -55h-92z" />
    <glyph glyph-name="afii10021" unicode="&#x414;" horiz-adv-x="1522" 
d="M-111 -370q-40 0 -29 50l99 429q13 55 63 55h82q218 205 302 454t140 489l62 272q13 55 63 55h770q50 0 37 -55l-280 -1215h128q50 0 37 -55l-99 -429q-11 -50 -51 -50h-86q-40 0 -29 50l74 320h-1072l-74 -320q-11 -50 -51 -50h-86zM314 164h692l255 1106h-512l-50 -219
q-103 -450 -207 -641t-178 -246z" />
    <glyph glyph-name="afii10022" unicode="&#x415;" horiz-adv-x="1270" 
d="M100 0q-50 0 -37 55l305 1324q13 55 63 55h875q55 0 45 -45l-17 -74q-11 -45 -66 -45h-733l-102 -444h673q55 0 44 -45l-17 -74q-10 -45 -65 -45h-673l-115 -498h763q55 0 44 -45l-17 -74q-10 -45 -65 -45h-905z" />
    <glyph glyph-name="afii10024" unicode="&#x416;" horiz-adv-x="1928" 
d="M-42 0q-60 0 -3 66l382 440q114 131 183.5 173.5t127.5 54.5l1 1q-24 10 -76 64t-88 133l-198 436q-30 66 33 66h97q44 0 61 -39l164 -381q39 -91 100 -146t164 -55h30l130 566q13 55 63 55h92q50 0 37 -55l-130 -566h30q99 0 168 56t148 145l340 381q35 39 79 39h137
q64 0 3 -66l-400 -436q-75 -82 -150.5 -134.5t-103.5 -62.5l-1 -1q54 -12 104 -54.5t103 -173.5l178 -440q27 -66 -33 -66h-107q-47 0 -61 39l-128 369q-39 112 -122.5 178.5t-175.5 66.5h-45l-138 -598q-13 -55 -63 -55h-92q-50 0 -37 55l138 598h-45q-86 0 -184.5 -67.5
t-187.5 -177.5l-298 -369q-31 -39 -79 -39h-147z" />
    <glyph glyph-name="afii10025" unicode="&#x417;" horiz-adv-x="1272" 
d="M49 165q-45 47 -9 76l77 62q37 29 79 -25q35 -44 128 -98t260 -54q169 0 264 94.5t95 210.5q0 115 -78.5 179.5t-193.5 64.5h-160q-55 0 -45 43l16 70q10 45 65 45h154q162 0 246.5 84.5t84.5 178.5q0 110 -93 161t-205 51q-101 0 -206.5 -40.5t-153.5 -84.5
q-47 -43 -73 -8l-58 77q-29 38 30 81q88 64 197 97.5t269 33.5q242 0 365 -105t123 -249q0 -153 -97.5 -241.5t-226.5 -114.5l-1 -4q103 -21 174.5 -108t71.5 -215q0 -166 -142 -311.5t-429 -145.5q-208 0 -340 67.5t-188 127.5z" />
    <glyph glyph-name="afii10026" unicode="&#x418;" horiz-adv-x="1452" 
d="M100 0q-50 0 -37 55l305 1324q13 55 63 55h92q50 0 37 -55l-233 -1009q-10 -45 -20 -80h4l893 1094q41 50 111 50h128q50 0 37 -55l-305 -1324q-13 -55 -63 -55h-92q-50 0 -37 55l233 1009q10 45 20 80h-4l-892 -1094q-41 -50 -112 -50h-128z" />
    <glyph glyph-name="afii10027" unicode="&#x419;" horiz-adv-x="1452" 
d="M100 0q-50 0 -37 55l305 1324q13 55 63 55h92q50 0 37 -55l-233 -1009q-10 -45 -20 -80h4l893 1094q41 50 111 50h128q50 0 37 -55l-305 -1324q-13 -55 -63 -55h-92q-50 0 -37 55l233 1009q10 45 20 80h-4l-892 -1094q-41 -50 -112 -50h-128zM638 1819q5 48 59 48h83
q42 0 38 -48l-3 -32q-5 -55 37 -79t123 -24q131 0 213 58.5t121 112.5q25 35 53 16l39 -27q25 -17 -2 -55q-95 -133 -191 -187t-265 -54q-155 0 -237.5 61t-73.5 152z" />
    <glyph glyph-name="afii10028" unicode="&#x41a;" horiz-adv-x="1270" 
d="M100 0q-50 0 -37 55l305 1324q13 55 63 55h92q50 0 37 -55l-130 -566h42q114 0 185.5 57t150.5 144l348 381q36 39 79 39h137q65 0 3 -66l-408 -436q-71 -76 -150.5 -131.5t-107.5 -65.5l-1 -1q57 -26 119 -91t92 -137l186 -440q28 -66 -33 -66h-107q-47 0 -61 39
l-136 369q-40 108 -125.5 176.5t-192.5 68.5h-57l-138 -598q-13 -55 -63 -55h-92z" />
    <glyph glyph-name="afii10029" unicode="&#x41b;" horiz-adv-x="1474" 
d="M-46 -17q-31 11 -21 46l25 83q11 37 57 23q26 -8 77 -8q169 0 271.5 263.5t199.5 686.5l69 302q13 55 63 55h770q50 0 37 -55l-305 -1324q-13 -55 -63 -55h-92q-50 0 -37 55l280 1215h-512l-57 -249q-144 -628 -272.5 -839.5t-364.5 -211.5q-88 0 -125 13z" />
    <glyph glyph-name="afii10030" unicode="&#x41c;" horiz-adv-x="1708" 
d="M100 0q-50 0 -37 55l305 1324q13 55 63 55h201q38 0 43 -60l79 -897q7 -82 10 -146.5t3 -124.5h6q27 63 59 125t78 146l493 897q33 60 71 60h225q50 0 37 -55l-305 -1324q-13 -55 -63 -55h-92q-50 0 -37 55l242 1049q10 45 20 80h-4l-628 -1123q-34 -61 -80 -61h-110
q-46 0 -52 61l-110 1123h-4q-8 -44 -16 -80l-242 -1049q-13 -55 -63 -55h-92z" />
    <glyph glyph-name="afii10031" unicode="&#x41d;" horiz-adv-x="1422" 
d="M100 0q-50 0 -37 55l305 1324q13 55 63 55h92q50 0 37 -55l-127 -551h698l127 551q13 55 63 55h92q50 0 37 -55l-305 -1324q-13 -55 -63 -55h-92q-50 0 -37 55l140 609h-698l-140 -609q-13 -55 -63 -55h-92z" />
    <glyph glyph-name="afii10032" unicode="&#x41e;" horiz-adv-x="1514" 
d="M110 580q0 400 214 642t554 242q305 0 461 -162.5t156 -447.5q0 -400 -214 -642t-554 -242q-305 0 -461 162.5t-156 447.5zM315 556q0 -205 106.5 -317.5t316.5 -112.5q220 0 386 183.5t166 568.5q0 205 -106.5 317.5t-316.5 112.5q-220 0 -386 -183.5t-166 -568.5z" />
    <glyph glyph-name="afii10033" unicode="&#x41f;" horiz-adv-x="1416" 
d="M100 0q-50 0 -37 55l305 1324q13 55 63 55h976q50 0 37 -55l-305 -1324q-13 -55 -63 -55h-92q-50 0 -37 55l280 1215h-692l-280 -1215q-13 -55 -63 -55h-92z" />
    <glyph glyph-name="afii10034" unicode="&#x420;" horiz-adv-x="1298" 
d="M100 0q-50 0 -37 55l305 1324q13 55 63 55h410q234 0 355.5 -105t121.5 -284q0 -181 -145.5 -325t-499.5 -144h-298l-120 -521q-13 -55 -63 -55h-92zM413 740h311q207 0 303 78.5t96 206.5q0 136 -75 190.5t-242 54.5h-271z" />
    <glyph glyph-name="afii10035" unicode="&#x421;" horiz-adv-x="1392" 
d="M110 580q0 395 210.5 639.5t587.5 244.5q184 0 298 -64t161 -170q23 -53 -23 -80l-78 -46q-27 -16 -52 28q-30 54 -109 115t-214 61q-250 0 -413 -183t-163 -568q0 -182 96 -306.5t326 -124.5q136 0 230.5 71.5t146.5 143.5q42 58 78 35l90 -58q33 -21 -8 -80
q-79 -115 -213 -191.5t-351 -76.5q-302 0 -451 172.5t-149 437.5z" />
    <glyph glyph-name="afii10036" unicode="&#x422;" horiz-adv-x="1240" 
d="M262 1262q-55 0 -44 45l19 82q10 45 65 45h1058q55 0 45 -45l-19 -82q-11 -45 -66 -45h-433l-278 -1207q-13 -55 -63 -55h-92q-50 0 -37 55l278 1207h-433z" />
    <glyph glyph-name="afii10037" unicode="&#x423;" horiz-adv-x="1316" 
d="M262 1368q-19 66 42 66h86q47 0 61 -49l176 -639q17 -61 32 -137.5t24 -137.5h4q34 78 80.5 154.5t84.5 136.5l393 623q31 49 83 49h118q55 0 12 -66l-677 -1037q-118 -182 -222.5 -271.5t-279.5 -89.5q-125 0 -191 44q-28 18 -11 51l41 82q18 38 58 14q56 -34 116 -34
q81 0 136 34t91 88l42 63z" />
    <glyph glyph-name="afii10038" unicode="&#x424;" horiz-adv-x="1728" 
d="M122 650q0 267 196 438.5t518 171.5h103l29 124q13 55 62 55h92q50 0 38 -55l-29 -124h43q263 0 396 -121.5t133 -328.5q0 -267 -196 -438.5t-518 -171.5h-103l-36 -157q-13 -55 -63 -55h-92q-50 0 -37 55l36 157h-43q-263 0 -396 121.5t-133 328.5zM327 630
q0 -139 92 -209.5t290 -70.5h20l175 760h-80q-205 0 -351 -122t-146 -358zM921 350h80q205 0 351 122t146 358q0 139 -92 209.5t-290 70.5h-20z" />
    <glyph glyph-name="afii10039" unicode="&#x425;" horiz-adv-x="1298" 
d="M-42 0q-64 0 -3 66l638 686l-299 616q-32 66 33 66h98q43 0 61 -39l235 -522l456 522q34 39 79 39h138q64 0 3 -66l-591 -641l326 -661q33 -66 -33 -66h-105q-44 0 -61 39l-254 568l-497 -568q-34 -39 -79 -39h-145z" />
    <glyph glyph-name="afii10040" unicode="&#x426;" horiz-adv-x="1486" 
d="M100 0q-50 0 -37 55l305 1324q13 55 63 55h92q50 0 37 -55l-280 -1215h686l280 1215q13 55 63 55h92q50 0 37 -55l-280 -1215h132q50 0 37 -55l-99 -429q-11 -50 -51 -50h-86q-40 0 -29 50l74 320h-1036z" />
    <glyph glyph-name="afii10041" unicode="&#x427;" horiz-adv-x="1286" 
d="M211 912l107 467q13 55 63 55h92q50 0 37 -55l-96 -419q-32 -141 3.5 -190.5t146.5 -49.5q54 0 192 19t232 58l134 582q13 55 63 55h92q50 0 37 -55l-305 -1324q-13 -55 -63 -55h-92q-50 0 -37 55l121 528q10 42 21 80h-4q-104 -41 -202.5 -69t-248.5 -28
q-162 0 -243.5 102t-49.5 244z" />
    <glyph glyph-name="afii10042" unicode="&#x428;" horiz-adv-x="2040" 
d="M100 0q-50 0 -37 55l305 1324q13 55 63 55h92q50 0 37 -55l-280 -1215h562l280 1215q13 55 63 55h92q50 0 37 -55l-280 -1215h562l280 1215q13 55 63 55h92q50 0 37 -55l-305 -1324q-13 -55 -63 -55h-1600z" />
    <glyph glyph-name="afii10043" unicode="&#x429;" horiz-adv-x="2116" 
d="M100 0q-50 0 -37 55l305 1324q13 55 63 55h92q50 0 37 -55l-280 -1215h562l280 1215q13 55 63 55h92q50 0 37 -55l-280 -1215h562l280 1215q13 55 63 55h92q50 0 37 -55l-280 -1215h132q50 0 37 -55l-99 -429q-11 -50 -51 -50h-86q-40 0 -29 50l74 320h-1666z" />
    <glyph glyph-name="afii10044" unicode="&#x42a;" horiz-adv-x="1700" 
d="M264 1270q-55 0 -44 45l17 74q10 45 65 45h613q50 0 37 -55l-127 -551h268q292 0 399 -106.5t107 -267.5q0 -184 -160 -319t-497 -135h-450q-50 0 -37 55l280 1215h-471zM672 164h276q215 0 330.5 74t115.5 206q0 141 -93 180.5t-278 39.5h-236z" />
    <glyph glyph-name="afii10045" unicode="&#x42b;" horiz-adv-x="1770" 
d="M1338 0q-50 0 -37 55l305 1324q13 55 63 55h92q50 0 37 -55l-305 -1324q-13 -55 -63 -55h-92zM100 0q-50 0 -37 55l305 1324q13 55 63 55h92q50 0 37 -55l-127 -551h268q292 0 399 -106.5t107 -267.5q0 -184 -160 -319t-497 -135h-450zM280 164h276q215 0 330.5 74
t115.5 206q0 141 -93 180.5t-278 39.5h-236z" />
    <glyph glyph-name="afii10046" unicode="&#x42c;" horiz-adv-x="1308" 
d="M100 0q-50 0 -37 55l305 1324q13 55 63 55h92q50 0 37 -55l-127 -551h268q292 0 399 -106.5t107 -267.5q0 -184 -160 -319t-497 -135h-450zM280 164h276q215 0 330.5 74t115.5 206q0 141 -93 180.5t-278 39.5h-236z" />
    <glyph glyph-name="afii10047" unicode="&#x42d;" horiz-adv-x="1352" 
d="M55 191q-35 56 8 85l75 51q43 29 72 -18q33 -54 115.5 -118.5t244.5 -64.5q182 0 338 126t207 416h-693q-56 0 -45 45l18 74q11 45 65 45h670q26 206 -78 341t-314 135q-132 0 -225 -45t-138 -90q-43 -43 -71 -17l-61 55q-37 34 12 85q63 66 183 117t307 51
q263 0 425.5 -145t162.5 -491t-201.5 -602t-561.5 -256q-219 0 -337.5 63t-177.5 158z" />
    <glyph glyph-name="afii10048" unicode="&#x42e;" horiz-adv-x="2023" 
d="M100 0q-50 0 -37 55l305 1324q13 55 63 55h92q50 0 37 -55l-127 -551h210q47 232 225.5 434t518.5 202q305 0 461 -162.5t156 -447.5q0 -400 -214 -642t-554 -242q-305 0 -461 162.5t-156 447.5q0 43 2 84h-226l-140 -609q-13 -55 -63 -55h-92zM824 556
q0 -205 106.5 -317.5t316.5 -112.5q220 0 386 183.5t166 568.5q0 205 -106.5 317.5t-316.5 112.5q-220 0 -386 -183.5t-166 -568.5z" />
    <glyph glyph-name="afii10049" unicode="&#x42f;" horiz-adv-x="1363" 
d="M18 0q-63 0 -3 66l326 359q19 21 107 101t159 110v2q-135 24 -238 115t-103 221q0 226 173 343t451 117h464q50 0 37 -55l-305 -1324q-13 -55 -63 -55h-92q-50 0 -37 55l129 558h-101q-112 0 -206.5 -69t-169.5 -156l-306 -349q-34 -39 -79 -39h-143zM471 996
q0 -108 63 -163.5t306 -55.5h220l114 493h-308q-166 0 -280.5 -66t-114.5 -208z" />
    <glyph glyph-name="afii10065" unicode="&#x430;" horiz-adv-x="1099" 
d="M66 339q0 275 186.5 501.5t391.5 226.5q90 0 148 -37.5t86 -87.5h2l21 63q15 45 49 45h84q45 0 35 -45l-222 -960q-10 -45 -55 -45h-81q-44 0 -35 45l25 120h-2q-49 -65 -130.5 -123.5t-181.5 -58.5q-145 0 -233 87.5t-88 268.5zM252 332q0 -66 35.5 -142.5t145.5 -76.5
q90 0 199 119t139 248l67 290q0 90 -57.5 128.5t-142.5 38.5q-140 0 -263 -179.5t-123 -425.5z" />
    <glyph glyph-name="afii10066" unicode="&#x431;" horiz-adv-x="1148" 
d="M74 452q0 150 68.5 362t128 306.5t119 151.5t153.5 103.5t193 54.5q121 10 176 11t103 19q42 16 54 35t46 19h24q35 0 29 -35q-10 -53 -62.5 -108.5t-156.5 -75.5q-45 -9 -133 -15t-156.5 -12.5t-119.5 -33.5q-197 -103 -286 -412l7 -4q22 58 143.5 153.5t255.5 95.5
q234 0 327 -134.5t93 -284.5q0 -264 -163.5 -464.5t-428.5 -200.5q-234 0 -324 133.5t-90 335.5zM254 387q0 -125 58.5 -199.5t188.5 -74.5q156 0 274.5 141.5t118.5 408.5q0 125 -58.5 199.5t-188.5 74.5q-156 0 -274.5 -141.5t-118.5 -408.5z" />
    <glyph glyph-name="afii10067" unicode="&#x432;" horiz-adv-x="1060" 
d="M72 404q0 212 130 437.5t454 225.5q113 0 201 -53.5t88 -165.5q0 -86 -44.5 -154t-192.5 -124v-2q104 -13 158 -85.5t54 -177.5q0 -151 -123 -236.5t-351 -85.5q-162 0 -268 96.5t-106 324.5zM258 357q0 -109 42 -176.5t172 -67.5q106 0 184 43.5t78 165.5
q0 74 -53 116.5t-133 42.5q-62 0 -140 -18.5t-144 -32.5q-6 -38 -6 -73zM276 569q295 61 394 109t99 158q0 48 -45 74.5t-101 26.5q-103 0 -202 -83.5t-145 -284.5z" />
    <glyph glyph-name="afii10068" unicode="&#x433;" horiz-adv-x="904" 
d="M20 226q0 70 22 113t69 97t137 93q65 28 142 57t140 62q60 31 81 54.5t29.5 51.5t8.5 52q0 30 -10.5 54t-42.5 50.5t-97 26.5q-71 0 -135 -23.5t-106 -55.5q-33 -25 -52 -4l-40 46q-20 23 18 56q54 46 144 78.5t191 32.5q119 0 180 -39.5t93.5 -93t32.5 -113.5
q0 -85 -20.5 -133t-69.5 -92t-132 -82q-65 -30 -126.5 -51t-142.5 -62q-62 -31 -85 -56t-33 -51.5t-10 -61.5t14 -61.5t44 -42t108 -15.5q60 0 144 30.5t156 89.5q30 25 52 3l46 -46q27 -27 -2 -53q-96 -89 -196 -121.5t-222 -32.5q-140 0 -204 37.5t-95 86.5t-31 119z" />
    <glyph glyph-name="afii10069" unicode="&#x434;" horiz-adv-x="1155" 
d="M68 402q0 252 168.5 458.5t433.5 206.5q94 0 166.5 -37.5t102.5 -82.5h4q2 34 2 81q0 145 -62.5 240t-191.5 95q-65 0 -131 -23.5t-98 -51.5q-34 -30 -56 2l-30 43q-25 35 6 60q48 39 136 69.5t192 30.5q188 0 299.5 -125.5t111.5 -379.5q0 -535 -180.5 -770t-452.5 -235
q-226 0 -323 116.5t-97 302.5zM254 387q0 -144 61 -209t186 -65q136 0 272.5 141.5t136.5 408.5q0 107 -61.5 190.5t-191.5 83.5q-156 0 -279.5 -146t-123.5 -404z" />
    <glyph glyph-name="afii10070" unicode="&#x435;" horiz-adv-x="1078" 
d="M68 396q0 300 156.5 485.5t427.5 185.5q155 0 250.5 -88.5t95.5 -200.5q0 -148 -141.5 -218t-350.5 -112l-246 -49q-6 -38 -6 -40q0 -99 54 -172t189 -73q115 0 185 42t95 76q35 47 63 21l59 -51q19 -17 -6 -56q-23 -36 -124 -99.5t-296 -63.5q-213 0 -309 123.5
t-96 289.5zM265 538l205 40q140 27 246 74.5t106 133.5q0 68 -61.5 109.5t-141.5 41.5q-121 0 -215.5 -92t-138.5 -307z" />
    <glyph glyph-name="afii10072" unicode="&#x436;" horiz-adv-x="1458" 
d="M-29 0q-61 0 -12 59l271 325q71 85 116.5 116.5t99.5 51.5l1 2q-41 12 -69.5 54t-53.5 98l-127 285q-26 59 39 59h75q37 0 47 -26l104 -264q14 -36 68.5 -91t107.5 -55h25l90 391q10 45 55 45h86q45 0 35 -45l-90 -391h25q53 0 114.5 53.5t95.5 92.5l226 264q22 26 59 26
h107q67 0 13 -59l-259 -285q-41 -45 -104.5 -94.5t-88.5 -57.5l-1 -2q46 -20 77.5 -52.5t62.5 -115.5l121 -325q22 -59 -40 -59h-79q-35 0 -48 37l-110 321q-27 80 -70.5 102t-105.5 22h-26l-101 -437q-10 -45 -55 -45h-86q-45 0 -35 45l101 437h-26q-62 0 -97 -22t-99 -102
l-258 -321q-30 -37 -66 -37h-115z" />
    <glyph glyph-name="afii10073" unicode="&#x437;" horiz-adv-x="982" 
d="M27 119q-26 33 2 55l60 49q27 22 53 -10q15 -18 79.5 -59t164.5 -41q132 0 206 68.5t74 151.5q0 89 -58 119.5t-161 30.5h-114q-45 0 -37 35l13 60q8 35 54 35h101q122 0 194 53t72 134q0 63 -57 100t-165 37q-70 0 -131 -23.5t-89 -49.5q-36 -34 -55 -16l-50 48
q-32 31 7 66q48 44 126 74.5t228 30.5q196 0 279 -74.5t83 -173.5q0 -123 -82.5 -189t-135.5 -79v-3q74 -16 119 -71.5t45 -152.5q0 -132 -126 -236.5t-339 -104.5q-168 0 -255 56.5t-105 79.5z" />
    <glyph glyph-name="afii10074" unicode="&#x438;" horiz-adv-x="1120" 
d="M104 366l148 639q10 45 55 45h86q45 0 35 -45l-136 -591q-45 -197 3 -249t153 -52q147 0 230 116.5t118 266.5l118 509q10 45 55 45h86q45 0 35 -45l-222 -960q-10 -45 -55 -45h-84q-45 0 -35 45l28 120h-4q-59 -73 -154.5 -127.5t-210.5 -54.5q-160 0 -225 102.5
t-24 280.5z" />
    <glyph glyph-name="afii10075" unicode="&#x439;" horiz-adv-x="1120" 
d="M104 366l148 639q10 45 55 45h86q45 0 35 -45l-136 -591q-45 -197 3 -249t153 -52q147 0 230 116.5t118 266.5l118 509q10 45 55 45h86q45 0 35 -45l-222 -960q-10 -45 -55 -45h-84q-45 0 -35 45l28 120h-4q-59 -73 -154.5 -127.5t-210.5 -54.5q-160 0 -225 102.5
t-24 280.5zM409 1405q5 45 56 45h76q35 0 34 -45l-1 -34q-2 -66 42 -83.5t99 -17.5q95 0 173.5 58t135.5 116q27 28 53 12l40 -24q26 -15 -9 -56q-90 -104 -183 -167t-248 -63q-143 0 -213 63t-60 151z" />
    <glyph glyph-name="afii10076" unicode="&#x43a;" horiz-adv-x="989" 
d="M67 0q-45 0 -35 45l222 960q10 45 55 45h86q45 0 35 -45l-90 -391h41q53 0 119 53t101 93l230 264q23 26 59 26h107q68 0 13 -59l-270 -291q-27 -29 -95.5 -81.5t-103.5 -64.5l-1 -2q53 -19 86.5 -50.5t66.5 -117.5l125 -325q23 -59 -40 -59h-80q-35 0 -48 37l-113 321
q-26 75 -75 99.5t-111 24.5h-42l-101 -437q-10 -45 -55 -45h-86z" />
    <glyph glyph-name="afii10077" unicode="&#x43b;" horiz-adv-x="1136" 
d="M-60 -8q-18 8 -10 30l29 83q7 20 29 14t42 -6q108 0 189 153.5t135 393.5l21 94q30 134 129.5 215t344.5 81h222q45 0 35 -45l-222 -960q-10 -45 -55 -45h-86q-45 0 -35 45l202 873h-36q-174 0 -252.5 -50t-107.5 -177l-19 -84q-68 -301 -173.5 -462.5t-299.5 -161.5
q-63 0 -82 9z" />
    <glyph glyph-name="afii10078" unicode="&#x43c;" horiz-adv-x="1422" 
d="M67 0q-45 0 -35 45l222 960q10 45 55 45h180q31 0 36 -39l77 -660q2 -21 9 -77t7 -106h4q24 50 56 106l44 77l381 660q23 39 54 39h200q45 0 35 -45l-222 -960q-10 -45 -55 -45h-86q-45 0 -35 45l175 755q7 29 16 60h-2l-485 -799q-37 -61 -68 -61h-78q-31 0 -40 61
l-115 799h-2q-5 -29 -12 -60l-175 -755q-10 -45 -55 -45h-86z" />
    <glyph glyph-name="afii10079" unicode="&#x43d;" horiz-adv-x="1120" 
d="M67 0q-45 0 -35 45l222 960q10 45 55 45h86q45 0 35 -45l-90 -391h484l90 391q10 45 55 45h86q45 0 35 -45l-222 -960q-10 -45 -55 -45h-86q-45 0 -35 45l101 437h-484l-101 -437q-10 -45 -55 -45h-86z" />
    <glyph glyph-name="afii10080" unicode="&#x43e;" horiz-adv-x="1148" 
d="M68 402q0 264 163.5 464.5t428.5 200.5q234 0 327 -134.5t93 -284.5q0 -264 -163.5 -464.5t-428.5 -200.5q-234 0 -327 134.5t-93 284.5zM254 387q0 -125 58.5 -199.5t188.5 -74.5q156 0 274.5 141.5t118.5 408.5q0 125 -58.5 199.5t-188.5 74.5q-156 0 -274.5 -141.5
t-118.5 -408.5z" />
    <glyph glyph-name="afii10081" unicode="&#x43f;" horiz-adv-x="1128" 
d="M67 0q-45 0 -35 45l222 960q10 45 55 45h84q45 0 35 -45l-27 -120h4q59 73 153.5 127.5t214.5 54.5q170 0 232 -102.5t21 -280.5l-148 -639q-10 -45 -55 -45h-86q-45 0 -35 45l137 591q45 196 -3 248.5t-158 52.5q-120 0 -218.5 -116.5t-133.5 -266.5l-118 -509
q-10 -45 -55 -45h-86z" />
    <glyph glyph-name="afii10082" unicode="&#x440;" horiz-adv-x="1119" 
d="M-25 -400q-45 0 -35 45l314 1360q10 45 55 45h84q37 0 29 -45l-22 -120h2q44 79 137 130.5t173 51.5q190 0 264.5 -116.5t74.5 -279.5q0 -255 -161 -471.5t-379 -216.5q-111 0 -173 33.5t-113 101.5h-2q-4 -28 -12 -61l-95 -412q-10 -45 -55 -45h-86zM265 290
q10 -100 65 -138.5t167 -38.5q152 0 260 169.5t108 395.5q0 104 -45 181.5t-158 77.5q-98 0 -199.5 -117.5t-132.5 -249.5z" />
    <glyph glyph-name="afii10083" unicode="&#x441;" horiz-adv-x="1026" 
d="M68 402q0 265 163.5 465t428.5 200q162 0 231 -56.5t100 -124.5q16 -36 -14 -52l-66 -35q-34 -18 -53 25q-14 32 -64 72.5t-147 40.5q-156 0 -274.5 -140t-118.5 -410q0 -122 58.5 -198t188.5 -76q103 0 169 53.5t94 95.5q23 35 53 14l63 -46q29 -21 5 -55
q-29 -40 -127 -116t-270 -76q-234 0 -327 133.5t-93 285.5z" />
    <glyph glyph-name="afii10084" unicode="&#x442;" horiz-adv-x="1678" 
d="M67 0q-45 0 -35 45l222 960q10 45 55 45h84q45 0 35 -45l-27 -120h4q59 72 148.5 127t179.5 55q110 0 172.5 -69.5t62.5 -164.5h4q63 82 159.5 158t211.5 76q140 0 207 -102.5t26 -280.5l-148 -639q-10 -45 -55 -45h-86q-45 0 -35 45l135 581q45 195 13 253t-142 58
q-90 0 -189.5 -120.5t-132.5 -262.5l-118 -509q-10 -45 -55 -45h-86q-45 0 -35 45l135 581q45 195 13 253t-142 58q-90 0 -188.5 -116.5t-133.5 -266.5l-118 -509q-10 -45 -55 -45h-86z" />
    <glyph glyph-name="afii10085" unicode="&#x443;" horiz-adv-x="1128" 
d="M106 366l148 639q10 45 55 45h86q45 0 35 -45l-136 -591q-45 -197 2.5 -249t157.5 -52q106 0 211.5 113.5t141.5 269.5l117 509q10 45 55 45h86q45 0 35 -45l-234 -1014q-47 -205 -158 -306.5t-374 -101.5q-171 0 -236 33t-98 78q-29 40 2 68l56 52q32 29 50 0
q30 -48 87 -74.5t170 -26.5q121 0 206.5 68.5t122.5 228.5q23 102 37 155h-4q-59 -73 -150 -127.5t-218 -54.5q-170 0 -232 102.5t-21 280.5z" />
    <glyph glyph-name="afii10086" unicode="&#x444;" horiz-adv-x="1638" 
d="M70 415q0 229 163 440.5t364 211.5q93 0 144 -35.5t83 -106.5h2q5 29 12 60l95 410q10 45 55 45h86q45 0 35 -45l-99 -430q-5 -24 -16 -60h2q48 79 120 120.5t153 41.5q149 0 225 -114.5t76 -317.5q0 -229 -163 -440.5t-364 -211.5q-93 0 -144 35.5t-83 106.5h-2
q-5 -32 -12 -60l-97 -420q-10 -45 -55 -45h-86q-45 0 -35 45l101 440q5 23 16 60h-2q-48 -79 -120 -120.5t-153 -41.5q-149 0 -225 114.5t-76 317.5zM256 405q0 -180 52 -236t108 -56q91 0 179.5 102t119.5 237l70 303q0 81 -43.5 131.5t-109.5 50.5q-176 0 -276 -174.5
t-100 -357.5zM855 295q0 -81 43.5 -131.5t109.5 -50.5q176 0 276 174.5t100 357.5q0 180 -52 236t-108 56q-91 0 -179.5 -102t-119.5 -237z" />
    </font>
</defs>
</svg>
